<?xml version="1.0" standalone="no"?><!DOCTYPE svg PUBLIC "-//W3C//DTD SVG 1.1//EN" "http://www.w3.org/Graphics/SVG/1.1/DTD/svg11.dtd"><svg t="1743500287303" class="icon" viewBox="0 0 1024 1024" version="1.1" xmlns="http://www.w3.org/2000/svg" p-id="6095" xmlns:xlink="http://www.w3.org/1999/xlink" width="26" height="26"><path d="M844.98963 299.311407l73.955555 11.264a101.527704 101.527704 0 0 1 81.08563 70.352593l0.075852 0.227556a105.244444 105.244444 0 0 1-24.158815 104.751407l-159.250963 161.716148 37.622518 229.072593c5.802667 38.039704-9.178074 75.776-39.670518 99.479703a98.607407 98.607407 0 0 1-59.885037 20.593778c-16.839111 0-33.412741-4.058074-47.141926-12.136296l-195.128889-107.140741-194.787556 106.913185a96.635259 96.635259 0 0 1-106.799407-7.205926 102.4 102.4 0 0 1-40.201481-100.427851l37.546666-228.617482-159.061333-161.526518a104.372148 104.372148 0 0 1-25.41037-104.941037A100.769185 100.769185 0 0 1 105.054815 311.068444l218.605037-33.336888 98.379852-207.530667c16.914963-35.574519 51.579259-58.026667 90.415407-58.026667 28.216889 0 54.309926 12.401778 74.524445 34.360889 6.447407 7.35763 12.060444 15.777185 15.928888 24.272593l94.814815 200.362666c0.530963 1.024 0.986074 2.048 1.40326 3.034074l145.825185 25.106963z m62.388148 86.20563l-74.524445-11.339852-152.613926-26.244741a67.735704 67.735704 0 0 1-48.696888-36.408888l-4.020149-8.002371V299.994074l-93.411555-197.328593a26.168889 26.168889 0 0 0-3.565037-5.499259c-5.688889-6.219852-11.908741-9.178074-18.052741-9.178074-9.253926 0-17.445926 5.30963-21.921185 14.715259L374.97363 346.642963l-19.911111 3.034074-238.440297 36.370963a24.917333 24.917333 0 0 0-20.442074 18.204444 28.672 28.672 0 0 0 6.864593 28.975408L289.374815 622.364444l-3.109926 19.000889-40.732445 248.035556a27.230815 27.230815 0 0 0 11.074371 27.192889c6.97837 5.423407 16.118519 6.068148 24.272592 1.517037l231.651556-127.16563 18.204444 10.012445 214.433186 117.684148c2.427259 1.441185 5.764741 2.275556 9.633185 2.275555a22.528 22.528 0 0 0 13.653333-4.854518 29.202963 29.202963 0 0 0 10.998519-27.572148l-43.804445-266.695111 13.539556-13.729186 172.562963-175.217777a29.354667 29.354667 0 0 0 6.030222-29.089186 25.675852 25.675852 0 0 0-20.366222-18.280296z m-278.376297-82.375111a29.733926 29.733926 0 0 1-1.251555-4.133926l0.568889 2.730667 0.682666 1.403259z" fill="#FFBD00" p-id="6096"></path></svg>