<svg xmlns="http://www.w3.org/2000/svg" width="29.25" height="171.38" viewBox="0 0 29.25 171.38" preserveAspectRatio="none" style="width: 100%; height: 100%;">
  <defs>
    
  </defs>
  <path id="jiaou" class="cls-1" d="M16.514,8081.37a8.617,8.617,0,0,0,.312-2.42c-0.032-1.33-.048-2.24-0.048-2.74q-0.1-5.565.024-7.37a1.252,1.252,0,0,1,.144-0.57l0.336-.39a0.284,0.284,0,0,0,0-.38l-1.272-.91a40.644,40.644,0,0,0,3.048-4.11l0.648-.52a0.3,0.3,0,0,0,.072-0.44l-1.872-2.08-0.408.21c0.3,0.71.1,1.69-.624,2.95a39,39,0,0,1-6.312,8.48l0.384,0.52A40.614,40.614,0,0,0,15,8067.72a5.289,5.289,0,0,1,.336,1.6,71.127,71.127,0,0,1-.072,7.49,5.309,5.309,0,0,1-.192,1.23l-0.384.93a0.585,0.585,0,0,0-.048.6l1.368,1.8a0.322,0.322,0,0,0,.5,0h0Zm12.984-17.4a3.171,3.171,0,0,1-1.44.48l-1.92.24c0-.73.016-1.52,0.048-2.35a1.509,1.509,0,0,1,.192-0.65l0.336-.57a0.32,0.32,0,0,0-.048-0.44l-2.784-1.63-0.36.48a2.99,2.99,0,0,1,1.1,2.79q0.048,1.26.048,2.52l-2.256.14c-0.912.06-1.816,0.1-2.712,0.1a0.216,0.216,0,0,0-.072.33l1.128,0.87a0.533,0.533,0,0,0,.5.02c0.736-.11,1.528-0.2,2.376-0.26l1.056-.12v1.1c0.016,1.01.016,1.78,0,2.33-0.128.01-.312,0.03-0.552,0.05q-1.728.165-2.616,0.21-1.512.12-2.928,0.12a0.208,0.208,0,0,0-.072.34l1.272,0.89a0.388,0.388,0,0,0,.48,0,6.459,6.459,0,0,1,1.272-.22l2.376-.26q0.624,0.525.648,2.52l0.024,1.46c-0.768.06-1.552,0.12-2.352,0.17-0.592.05-1.28,0.07-2.064,0.07-0.32.02-.552,0.02-0.7,0.02a0.2,0.2,0,0,0-.048.34l1.2,0.89a0.484,0.484,0,0,0,.5.05,21.5,21.5,0,0,1,2.424-.27l1.056-.09v3.64c-1.28.1-2.5,0.17-3.672,0.22a21.992,21.992,0,0,1-3,.07,0.23,0.23,0,0,0-.072.36l1.368,1.03a0.506,0.506,0,0,0,.48,0,0.231,0.231,0,0,0,.1-0.02c0.768-.11,1.56-0.21,2.376-0.29q3.192-.285,7.368-0.45c0.192-.02.472-0.04,0.84-0.05,1.328-.07,2.328-0.1,3-0.1q0.288-.09.12-0.45l-1.464-1.28a0.265,0.265,0,0,0-.336,0,5.076,5.076,0,0,1-2.088.56l-3.576.33,0.024-3.72,2.544-.21q0.144,0,.432-0.03,1.536-.12,2.352-0.12a0.211,0.211,0,0,0,.144-0.36l-1.3-1.17a0.264,0.264,0,0,0-.336,0,4.33,4.33,0,0,1-1.512.43c-0.768.11-1.536,0.21-2.3,0.31,0-.74.008-1.24,0.024-1.51a1.371,1.371,0,0,1,.144-0.65l0.216-.5c0.128-.21.1-0.36-0.072-0.44l-1.56-.86c0.784-.08,1.928-0.18,3.432-0.29,0.192-.01.336-0.02,0.432-0.02q0.384-.03.264-0.03c1.616-.09,2.808-0.16,3.576-0.19q0.336-.075.192-0.36l-1.368-1.17a0.3,0.3,0,0,0-.36,0,5.354,5.354,0,0,1-2.16.57c-0.16.02-.384,0.04-0.672,0.07q-1.44.2-2.088,0.24v-3.4l2.088-.17c1.264-.07,2.2-0.12,2.808-0.17q0.336-.075.168-0.36l-1.32-1.1a0.271,0.271,0,0,0-.36-0.03h0Zm-7.128,60.31v-0.26c-0.032-1.65-.1-3.36-0.216-5.14l3.048-.33v2.25l-0.744.08-1.632.12h-0.12a0.174,0.174,0,0,0-.048.24l0.84,0.69a0.307,0.307,0,0,0,.288.05,11.077,11.077,0,0,1,1.152-.19l0.264-.03v2.31Zm5.976-4.15a3.924,3.924,0,0,1-1.248.39l-0.624.12a18.965,18.965,0,0,1,.144-2.21l3.024-.29a0.338,0.338,0,0,1,.48.38q-0.168,2.115-.456,4.92a3.492,3.492,0,0,1-1.248.29c-0.112.02-.288,0.04-0.528,0.07q-0.96.12-1.44,0.15v-2.35l1.176-.12c0.784-.1,1.392-0.16,1.824-0.17,0.16-.03.192-0.13,0.1-0.29l-0.96-.89a0.211,0.211,0,0,0-.24,0h0Zm-11.9,17.4a10.507,10.507,0,0,0,.312-2.45l-0.024-2.73q0-6.555.072-8.47a1.138,1.138,0,0,1,.144-0.56l0.336-.48a0.284,0.284,0,0,0,0-.38l-1.128-.77c1.008-1.18,1.872-2.29,2.592-3.31l0.672-.55a0.3,0.3,0,0,0,.048-0.46l-1.8-1.99-0.432.29c0.336,0.73.1,1.73-.7,2.97a34.577,34.577,0,0,1-5.9,7.44l0.432,0.56a40.7,40.7,0,0,0,4.1-3.84,4.062,4.062,0,0,1,.24,1.53q0.048,1.47-.024,4.2-0.048,2.505-.168,4.32a6.856,6.856,0,0,1-.192,1.39l-0.408.96a0.56,0.56,0,0,0-.048.58l1.392,1.8a0.342,0.342,0,0,0,.48-0.05h0Zm12.192-6.62-2.184.38v-3.12l4.632-.36a0.28,0.28,0,0,1,.336.29,52.06,52.06,0,0,1-.5,6.84c-0.08.34-.216,0.47-0.408,0.41l-2.5-.94-0.24.55c0.816,0.58,1.848,1.4,3.1,2.48,0.256,0.32.512,0.3,0.768-.05a4.429,4.429,0,0,0,.816-2.02q0.312-3.21.408-7.13a0.6,0.6,0,0,1,.168-0.38l0.456-.53a0.335,0.335,0,0,0,.024-0.43l-1.536-1.27a0.294,0.294,0,0,0-.336,0l-0.744.69a1.926,1.926,0,0,1-.864.39l-3.576.36V8125l5.328-.36c0.24-.04.288-0.18,0.144-0.4l-1.056-.84c0.272-1.86.552-3.48,0.84-4.88a0.487,0.487,0,0,1,.024-0.09,1.957,1.957,0,0,1,.144-0.34l0.48-.48a0.279,0.279,0,0,0,.024-0.43L30.962,8116a0.335,0.335,0,0,0-.336,0l-0.624.6a2.348,2.348,0,0,1-1.176.46q-3.36.45-6.744,0.72l-1.512-1.39-0.408.33a5.239,5.239,0,0,1,.7,2.28,31.337,31.337,0,0,1,.168,3.8,3.237,3.237,0,0,1-.12.91l-0.24.74a0.5,0.5,0,0,0,0,.43l1.2,1.42q0.312,0.2.408-.12l0.072-.89,2.832-.21v2.08c-1.264.12-2.7,0.22-4.32,0.32l-1.488-1.35-0.384.34a5.878,5.878,0,0,1,.576,2.66,28.742,28.742,0,0,1,.024,4.3,4.1,4.1,0,0,1-.168.93l-0.312.94a0.521,0.521,0,0,0,0,.53l1.2,1.39c0.256,0.24.448,0.22,0.576-.07a20.477,20.477,0,0,0,.12-3.34l-0.12-5.21,4.3-.33-0.048,3.24-0.384.07c-1.136.18-2.112,0.29-2.928,0.34q-0.168.09-.048,0.33l1.488,1.03a0.443,0.443,0,0,0,.456.05,10.1,10.1,0,0,1,1.488-.62c0.192-.08.336-0.15,0.432-0.19s0.168-.06.216-0.08l2.976-1.1c0.24,0.59.44,1.16,0.6,1.7,0.112,0.23.256,0.26,0.432,0.1l0.84-1.46a15.187,15.187,0,0,0-2.568-2.67l-0.336.31a9.2,9.2,0,0,1,.84,1.59h0ZM12.61,8095.27v-0.1H10.42v0.1h0.13a0.615,0.615,0,0,1,.445.18,0.656,0.656,0,0,1,.2.45v6.24a2.282,2.282,0,0,1-.34,1.2,1.624,1.624,0,0,1-.83.74v0.09a1.7,1.7,0,0,0,1.3-.58,2.045,2.045,0,0,0,.525-1.42v-6.27a0.7,0.7,0,0,1,.09-0.32,0.6,0.6,0,0,1,.55-0.31h0.13Zm1.05,6.8v0.1h2.19v-0.1H15.72a0.6,0.6,0,0,1-.45-0.19,0.588,0.588,0,0,1-.19-0.44v-5.55a0.641,0.641,0,0,1,.64-0.62h0.13v-0.1H13.66v0.1h0.13a0.641,0.641,0,0,1,.64.62v5.55a0.632,0.632,0,0,1-.2.44,0.587,0.587,0,0,1-.445.19H13.66Zm9.44-.16a1.141,1.141,0,0,1-.38-0.47l-2.68-6.41H19.95a3.739,3.739,0,0,1-.37,1.03l-2.26,5.38a1.217,1.217,0,0,1-.39.47,0.929,0.929,0,0,1-.49.16h-0.09v0.1h2.01v-0.1H18.27a0.378,0.378,0,0,1-.315-0.14,0.412,0.412,0,0,1-.105-0.25,0.739,0.739,0,0,1,.04-0.23l0.67-1.71h2.7l0.64,1.7a0.76,0.76,0,0,1,.04.24,0.412,0.412,0,0,1-.105.25,0.378,0.378,0,0,1-.315.14H21.43v0.1h2.25v-0.1H23.6A0.943,0.943,0,0,1,23.1,8101.91Zm-3.16-5.68,1.2,3.21H18.68Zm4.32,2.44a3.581,3.581,0,0,0,1,2.63,3.845,3.845,0,0,0,5.2,0,3.972,3.972,0,0,0,0-5.27,3.5,3.5,0,0,0-2.6-1,3.487,3.487,0,0,0-2.595,1A3.589,3.589,0,0,0,24.259,8098.67Zm0.77,0a3.623,3.623,0,0,1,.775-2.42,2.522,2.522,0,0,1,2.045-.92,2.605,2.605,0,0,1,2.48,1.59,4.123,4.123,0,0,1,.35,1.75,3.643,3.643,0,0,1-.775,2.42,2.744,2.744,0,0,1-4.1,0A3.642,3.642,0,0,1,25.029,8098.67Zm14.26-3.5h-1.85v0.1H37.6a0.529,0.529,0,0,1,.37.13,0.487,0.487,0,0,1,.16.35v3.95a2.3,2.3,0,0,1-.61,1.66,2.085,2.085,0,0,1-1.59.64,2,2,0,0,1-1.565-.67,2.6,2.6,0,0,1-.585-1.76v-3.82a0.487,0.487,0,0,1,.16-0.35,0.529,0.529,0,0,1,.37-0.13h0.16v-0.1h-2.03v0.1H32.6a0.6,0.6,0,0,1,.27.06,0.463,0.463,0,0,1,.26.44v3.94a2.438,2.438,0,0,0,.765,1.88,2.793,2.793,0,0,0,1.995.72,2.7,2.7,0,0,0,1.97-.72,2.518,2.518,0,0,0,.74-1.89v-3.96a0.458,0.458,0,0,1,.165-0.34,0.534,0.534,0,0,1,.365-0.13h0.16v-0.1ZM26.32,8189.1v-1.97h-0.1v0.09a0.371,0.371,0,0,1-.13.31,0.457,0.457,0,0,1-.245.1,0.851,0.851,0,0,1-.225-0.03l-4.68-1.34,5.53-1.97,0.01-.09-5.74-1.86,4.87-1.52a0.763,0.763,0,0,1,.22-0.03,0.415,0.415,0,0,1,.255.1,0.384,0.384,0,0,1,.135.32v0.09h0.1v-2.22h-0.1v0.08a0.975,0.975,0,0,1-.155.51,0.954,0.954,0,0,1-.455.37l-6.41,2.27v0.09a4.178,4.178,0,0,1,1.11.21l4.61,1.52-5.72,2.04v0.09a3.943,3.943,0,0,1,1.11.22l5.29,1.66a0.711,0.711,0,0,1,.35.23,0.891,0.891,0,0,1,.27.65v0.08h0.1Zm-6.9.49h-0.1v4.15l1.62,0.58v-0.1a2.514,2.514,0,0,1-.98-0.65,1.711,1.711,0,0,1-.33-1.13v-1.43h2.99v1.7a0.5,0.5,0,0,1-.49.47H21.98v0.1h1.58v-0.1H23.42a0.488,0.488,0,0,1-.35-0.14,0.52,0.52,0,0,1-.15-0.34v-1.69h3.09v2.04a0.563,0.563,0,0,1-.18.39,0.572,0.572,0,0,1-.41.17H25.24v0.1H26.5a2.7,2.7,0,0,1-.12-0.52,4.155,4.155,0,0,1-.06-0.67v-2.93l-0.1.01v0.12a0.626,0.626,0,0,1-.165.43,0.642,0.642,0,0,1-.405.21h-5.6a0.635,0.635,0,0,1-.445-0.2,0.6,0.6,0,0,1-.185-0.44v-0.13Zm6.9,9.16v-3.39l-0.1.01v0.12a0.669,0.669,0,0,1-.165.44,0.516,0.516,0,0,1-.405.2h-5.6a0.635,0.635,0,0,1-.445-0.2,0.6,0.6,0,0,1-.185-0.44v-0.13h-0.1v3.39a3.563,3.563,0,0,0,.965,2.59,3.35,3.35,0,0,0,2.535,1,3.351,3.351,0,0,0,2.535-1,3.564,3.564,0,0,0,.965-2.59h0Zm-0.3,0a2.617,2.617,0,0,1-.88,2.05,3.326,3.326,0,0,1-2.32.79,3.719,3.719,0,0,1-1.675-.36,2.627,2.627,0,0,1-1.125-1,2.742,2.742,0,0,1-.4-1.48v-1.97h6.4v1.97Zm0.3,8.07v-3.39l-0.1.01v0.12a0.669,0.669,0,0,1-.165.44,0.516,0.516,0,0,1-.405.2h-5.6a0.679,0.679,0,0,1-.445-0.2,0.6,0.6,0,0,1-.185-0.44v-0.13h-0.1v3.39a3.563,3.563,0,0,0,.965,2.59,3.388,3.388,0,0,0,2.535,1,3.388,3.388,0,0,0,2.535-1,3.564,3.564,0,0,0,.965-2.59h0Zm-0.3,0a2.617,2.617,0,0,1-.88,2.05,3.373,3.373,0,0,1-2.32.79,3.719,3.719,0,0,1-1.675-.36,2.693,2.693,0,0,1-1.125-1,2.742,2.742,0,0,1-.4-1.48v-1.97h6.4v1.97Zm-6.6,4.68h-0.1v2.19h0.1v-0.13a0.6,0.6,0,0,1,.185-0.45,0.587,0.587,0,0,1,.445-0.19H25.6a0.632,0.632,0,0,1,.62.64v0.13h0.1v-2.19h-0.1v0.13a0.6,0.6,0,0,1-.18.44,0.66,0.66,0,0,1-.44.2H20.05a0.679,0.679,0,0,1-.445-0.2,0.6,0.6,0,0,1-.185-0.44v-0.13Zm6.8,10.74h0.1v-2.06h-0.1v0.19a0.607,0.607,0,0,1-.175.43,0.631,0.631,0,0,1-.435.19H20.65l5.82-5.45v-0.1l-0.16.02a8.726,8.726,0,0,1-1.09.07H20.03a0.582,0.582,0,0,1-.435-0.18,0.606,0.606,0,0,1-.175-0.43v-0.19h-0.1v2.06h0.1v-0.19a0.577,0.577,0,0,1,.08-0.3,0.567,0.567,0,0,1,.52-0.31H25l-5.82,5.45v0.09l0.18-.02a7.727,7.727,0,0,1,1.1-.07h5.16a0.58,0.58,0,0,1,.425.19,0.59,0.59,0,0,1,.175.43v0.18Zm-7.04,4.64a4.044,4.044,0,0,0,.2,1.31,3.55,3.55,0,0,0,.475.97,3.36,3.36,0,0,0,.61.62h1.65a0.379,0.379,0,0,1,.335.12,0.54,0.54,0,0,1,.115.38v0.15h0.1v-1.96h-0.1v0.16a0.547,0.547,0,0,1-.115.37,0.419,0.419,0,0,1-.335.14H20.35a3.339,3.339,0,0,1-.87-2.26,2.607,2.607,0,0,1,.925-2.06,3.6,3.6,0,0,1,2.415-.78,3.615,3.615,0,0,1,2.42.78,2.572,2.572,0,0,1,.92,2.06,2.8,2.8,0,0,1-.465,1.65,2.263,2.263,0,0,1-1.325.89v0.09l1.41-.2a4.371,4.371,0,0,0,.68-2.43,3.492,3.492,0,0,0-1-2.6,3.593,3.593,0,0,0-2.635-.99,3.576,3.576,0,0,0-2.63.99,3.534,3.534,0,0,0-1.01,2.6h0Z" transform="translate(-10.031 -8059.06)" fill="#fff" stroke="#fff" stroke-width="0"></path>
</svg>