<svg xmlns="http://www.w3.org/2000/svg" width="314.375" height="43.69" viewBox="0 0 314.375 43.69" preserveAspectRatio="none" style="width: 100%; height: 100%;">
  <defs>
    
  </defs>
  <path id="If_I_were_to_fall_in_love_It_would_have_to_be_with_youYour_eyes" data-name="If I were to fall in love It would have to be with youYour eyes" class="cls-1" d="M284.1,1107.48a0.265,0.265,0,0,0,.273.23,1.318,1.318,0,0,1,1,.52,6.079,6.079,0,0,1,.317,2.31c0.036,1.25.054,2.9,0.054,4.93a23.6,23.6,0,0,1-.156,3.74,0.971,0.971,0,0,1-1.065.61c-0.182,0-.273.06-0.273,0.2s0.114,0.2.342,0.2l2.065-.03,2.427,0.02a0.182,0.182,0,0,0,.225-0.18,0.222,0.222,0,0,0-.245-0.19,1.951,1.951,0,0,1-1.015-.33,1.157,1.157,0,0,1-.371-0.6,16.918,16.918,0,0,1-.176-2.27c-0.052-1.26-.078-2.4-0.078-3.41a21.425,21.425,0,0,1,.268-4.76,1.516,1.516,0,0,1,1.353-.78c0.176-.03.264-0.09,0.264-0.19,0-.13-0.163-0.19-0.49-0.19l-2.729.03-1.781-.03a0.165,0.165,0,0,0-.2.17h0Zm10.185,5.35q0.429,0,.8-0.03a0.608,0.608,0,0,0,.488-0.21,0.621,0.621,0,0,0,.117-0.34c0-.13-0.122-0.21-0.366-0.25a7.35,7.35,0,0,0-1.128-.07c-0.124,0-.286.01-0.488,0.01q-0.039-.615-0.039-1.17a8.582,8.582,0,0,1,.337-2.41,1.435,1.435,0,0,1,1.5-1.15,1.379,1.379,0,0,1,1.26.88,3.968,3.968,0,0,0,.468.78,0.512,0.512,0,0,0,.391.16,0.583,0.583,0,0,0,.644-0.68,1.3,1.3,0,0,0-.537-1.06,2.807,2.807,0,0,0-1.757-.43,3.44,3.44,0,0,0-2.178.67,3.039,3.039,0,0,0-1.133,1.68,11.3,11.3,0,0,0-.264,2.73,4.36,4.36,0,0,0-1.318.14,0.506,0.506,0,0,0-.176.46c0,0.14.127,0.21,0.381,0.22s0.625,0.02,1.113.05q0.01,0.78.01,1.41,0,1.59-.059,3.21a16.586,16.586,0,0,1-.122,1.88,0.733,0.733,0,0,1-.249.42,1.321,1.321,0,0,1-.634.2c-0.228.03-.342,0.11-0.342,0.22s0.071,0.14.215,0.14h0.107a19.763,19.763,0,0,1,2.139-.07l1.64,0.09c0.144,0,.215-0.04.215-0.13,0-.11-0.091-0.18-0.273-0.2a1.478,1.478,0,0,1-1.03-.47,1.634,1.634,0,0,1-.328-0.99c-0.013-.41-0.019-1.49-0.019-3.26,0-1.38.013-2.19,0.039-2.45,0.234,0.02.426,0.02,0.576,0.02h0Zm7.94-5.35a0.265,0.265,0,0,0,.273.23,1.318,1.318,0,0,1,1,.52,6.079,6.079,0,0,1,.317,2.31c0.036,1.25.054,2.9,0.054,4.93a23.6,23.6,0,0,1-.156,3.74,0.971,0.971,0,0,1-1.065.61c-0.182,0-.273.06-0.273,0.2s0.114,0.2.342,0.2l2.065-.03,2.427,0.02a0.182,0.182,0,0,0,.225-0.18,0.222,0.222,0,0,0-.245-0.19,1.951,1.951,0,0,1-1.015-.33,1.157,1.157,0,0,1-.371-0.6,16.918,16.918,0,0,1-.176-2.27c-0.052-1.26-.078-2.4-0.078-3.41a21.425,21.425,0,0,1,.268-4.76,1.516,1.516,0,0,1,1.353-.78c0.176-.03.264-0.09,0.264-0.19,0-.13-0.163-0.19-0.49-0.19l-2.729.03-1.781-.03a0.165,0.165,0,0,0-.2.17h0Zm14.619,5.42q0-.36.7-0.48c0.254-.04.381-0.12,0.381-0.25,0-.1-0.095-0.15-0.284-0.15l-0.918-.02-2.216.04c-0.293,0-.44.07-0.44,0.22,0,0.09.111,0.16,0.332,0.18a0.849,0.849,0,0,1,.464.18,3.758,3.758,0,0,1,.63,1.13l1.115,2.58c0.45,1.06.942,2.27,1.477,3.64a0.582,0.582,0,0,0,.293.42,0.21,0.21,0,0,0,.122-0.06,7.821,7.821,0,0,0,.522-1.17l1.014-2.49q0.555-1.38.838-2.22l0.065-.05q0.449,1.245,1.424,3.48c0.475,1.11.755,1.78,0.839,1.99a0.679,0.679,0,0,0,.3.49,0.252,0.252,0,0,0,.2-0.21l0.936-2.5c0.578-1.53.952-2.59,1.121-3.19a5.577,5.577,0,0,1,.556-1.45,1.69,1.69,0,0,1,.733-0.56,0.56,0.56,0,0,0,.39-0.3,0.179,0.179,0,0,0-.185-0.16,6.991,6.991,0,0,0-.84-0.03q-1,0-1.309.03c-0.208.01-.312,0.07-0.312,0.16,0,0.12.12,0.2,0.361,0.22a0.564,0.564,0,0,1,.625.56,11.981,11.981,0,0,1-.536,1.89c-0.357,1.09-.756,2.19-1.2,3.31l-1.185-2.72c-0.359-.84-0.6-1.45-0.719-1.8a3.453,3.453,0,0,1-.181-0.64,0.692,0.692,0,0,1,.586-0.57,0.384,0.384,0,0,0,.322-0.23,0.152,0.152,0,0,0-.156-0.16c-0.105-.02-0.573-0.03-1.407-0.03l-1.728.04a0.209,0.209,0,0,0-.254.22c0,0.11.078,0.17,0.234,0.17a1.07,1.07,0,0,1,.513.14,1.185,1.185,0,0,1,.352.44,1.435,1.435,0,0,1,.18.67,21.883,21.883,0,0,1-1.675,4.59,36.892,36.892,0,0,1-2.094-5.35h0Zm18.289,2.65a1.322,1.322,0,0,0,.749-0.1,0.563,0.563,0,0,0,.063-0.3,3.132,3.132,0,0,0-1.064-2.35,3.384,3.384,0,0,0-2.383-1,3.627,3.627,0,0,0-2.642,1.28,4.4,4.4,0,0,0-1.235,3.19,4.066,4.066,0,0,0,1.123,2.95,3.661,3.661,0,0,0,2.746,1.17,4.177,4.177,0,0,0,2-.47,2.868,2.868,0,0,0,1.27-1.15c-0.006-.17-0.062-0.25-0.166-0.25a0.917,0.917,0,0,0-.372.26,3.135,3.135,0,0,1-2.183.94,2.553,2.553,0,0,1-2.021-.96,3.486,3.486,0,0,1-.817-2.34c0-.2.013-0.46,0.039-0.79Zm-3.985-2.71a2,2,0,0,1,1.4-.7,1.737,1.737,0,0,1,1.326.61,2.038,2.038,0,0,1,.563,1.43,0.828,0.828,0,0,1-.313.74,1.789,1.789,0,0,1-.9.23l-0.519.03q-1.194,0-2.467-.06A3.833,3.833,0,0,1,331.151,1112.84Zm8.625-.93-1.8.09a4.931,4.931,0,0,0-.893.1,0.14,0.14,0,0,0-.073.13q0,0.165.351,0.18a0.9,0.9,0,0,1,.982.69,29.974,29.974,0,0,1,.132,3.84,10.922,10.922,0,0,1-.147,2.52,0.783,0.783,0,0,1-.762.38q-0.44.03-.439,0.18c0,0.11.111,0.17,0.332,0.17h3.115q0.459,0,.459-0.21c0-.08-0.058-0.12-0.176-0.14a1.025,1.025,0,0,1-.8-0.35,7.6,7.6,0,0,1-.157-2.18,13.012,13.012,0,0,1,.176-2.72,2.854,2.854,0,0,1,.693-1.2,1.468,1.468,0,0,1,1.006-.55,0.943,0.943,0,0,1,.83.66,0.741,0.741,0,0,0,.625.51,0.759,0.759,0,0,0,.791-0.92,1.21,1.21,0,0,0-.39-0.88,1.3,1.3,0,0,0-.928-0.38,2.37,2.37,0,0,0-1.47.54,5.555,5.555,0,0,0-1.313,1.65c-0.052-1.06-.1-1.76-0.147-2.11h0Zm11.825,3.64a1.315,1.315,0,0,0,.748-0.1,0.553,0.553,0,0,0,.064-0.3,3.132,3.132,0,0,0-1.064-2.35,3.384,3.384,0,0,0-2.383-1,3.627,3.627,0,0,0-2.642,1.28,4.4,4.4,0,0,0-1.235,3.19,4.066,4.066,0,0,0,1.123,2.95,3.66,3.66,0,0,0,2.745,1.17,4.178,4.178,0,0,0,2-.47,2.873,2.873,0,0,0,1.27-1.15c-0.007-.17-0.062-0.25-0.166-0.25a0.917,0.917,0,0,0-.372.26,3.135,3.135,0,0,1-2.183.94,2.553,2.553,0,0,1-2.021-.96,3.486,3.486,0,0,1-.817-2.34c0-.2.013-0.46,0.039-0.79Zm-3.986-2.71a2.008,2.008,0,0,1,1.4-.7,1.737,1.737,0,0,1,1.326.61,2.042,2.042,0,0,1,.563,1.43,0.828,0.828,0,0,1-.313.74,1.79,1.79,0,0,1-.9.23l-0.518.03q-1.2,0-2.467-.06A3.84,3.84,0,0,1,347.615,1112.84Zm16.644-.29a0.821,0.821,0,0,0,.146-0.57,0.646,0.646,0,0,0-.566-0.12l-2.139.03-0.01-1.52c0-.33.01-0.63,0.03-0.88q0.009-.09.009-0.18c0-.18-0.06-0.28-0.18-0.28s-0.193.12-.22,0.35a2.8,2.8,0,0,1-1.1,2,6.482,6.482,0,0,1-1.343.86,0.272,0.272,0,0,0-.243.2c0,0.09.071,0.14,0.214,0.15l0.586,0.04a7.989,7.989,0,0,1,.928.07c-0.117,2.32-.176,3.97-0.176,4.92a3.583,3.583,0,0,0,.5,2.08,1.728,1.728,0,0,0,1.5.69,2.8,2.8,0,0,0,1.7-.51,1.44,1.44,0,0,0,.695-0.74,0.112,0.112,0,0,0-.127-0.13,0.876,0.876,0,0,0-.274.13,2.2,2.2,0,0,1-1.148.38,1.3,1.3,0,0,1-1.1-.49,3.748,3.748,0,0,1-.383-2.09c0-1.39.046-2.8,0.137-4.24q2.05-.15,2.559-0.15h0Zm2.47,6.55a3.971,3.971,0,0,0,2.92,1.23,4.024,4.024,0,0,0,3.008-1.34,4.341,4.341,0,0,0,1.289-3.11,3.872,3.872,0,0,0-1.225-2.93,4.089,4.089,0,0,0-2.925-1.17,4.008,4.008,0,0,0-3.047,1.31,4.257,4.257,0,0,0-1.24,3.02A4.094,4.094,0,0,0,366.729,1119.1Zm1.084-5.81a2.141,2.141,0,0,1,1.856-1.1,2.288,2.288,0,0,1,1.987,1.2,5.03,5.03,0,0,1,.767,2.75,4.459,4.459,0,0,1-.8,2.77,2.182,2.182,0,0,1-3.76-.07,4.757,4.757,0,0,1-.776-2.79A4.917,4.917,0,0,1,367.813,1113.29Zm15.655-.46q0.429,0,.8-0.03a0.608,0.608,0,0,0,.488-0.21,0.621,0.621,0,0,0,.117-0.34c0-.13-0.122-0.21-0.366-0.25a7.35,7.35,0,0,0-1.128-.07c-0.124,0-.287.01-0.488,0.01q-0.039-.615-0.039-1.17a8.618,8.618,0,0,1,.336-2.41,1.436,1.436,0,0,1,1.5-1.15,1.377,1.377,0,0,1,1.26.88,4.007,4.007,0,0,0,.469.78,0.511,0.511,0,0,0,.391.16,0.583,0.583,0,0,0,.644-0.68,1.3,1.3,0,0,0-.537-1.06,2.809,2.809,0,0,0-1.758-.43,3.444,3.444,0,0,0-2.178.67,3.037,3.037,0,0,0-1.132,1.68,11.3,11.3,0,0,0-.264,2.73,4.354,4.354,0,0,0-1.318.14,0.5,0.5,0,0,0-.176.46c0,0.14.127,0.21,0.381,0.22s0.625,0.02,1.113.05q0.009,0.78.01,1.41,0,1.59-.059,3.21a16.856,16.856,0,0,1-.122,1.88,0.733,0.733,0,0,1-.249.42,1.325,1.325,0,0,1-.635.2c-0.228.03-.341,0.11-0.341,0.22s0.071,0.14.214,0.14h0.108a19.729,19.729,0,0,1,2.138-.07l1.641,0.09c0.143,0,.215-0.04.215-0.13,0-.11-0.091-0.18-0.274-0.2a1.48,1.48,0,0,1-1.03-.47,1.64,1.64,0,0,1-.327-0.99c-0.013-.41-0.019-1.49-0.019-3.26,0-1.38.013-2.19,0.039-2.45,0.234,0.02.426,0.02,0.576,0.02h0Zm7.68,7.19a0.89,0.89,0,0,0,.748.25c1.282,0,1.923-.12,1.923-0.37,0-.11-0.075-0.16-0.224-0.16l-0.166.02a1.745,1.745,0,0,1-.274.03,0.709,0.709,0,0,1-.669-0.63,8.719,8.719,0,0,1-.18-2.13l0.058-2.58a4.881,4.881,0,0,0-.171-1.59,1.579,1.579,0,0,0-.839-0.72,4.1,4.1,0,0,0-1.792-.32,3.976,3.976,0,0,0-2.227.54,1.54,1.54,0,0,0-.811,1.27,0.807,0.807,0,0,0,.733.85,0.872,0.872,0,0,0,.771-0.9,2.072,2.072,0,0,1,.479-1.11,1.383,1.383,0,0,1,.928-0.27,1.446,1.446,0,0,1,1.162.48,2.065,2.065,0,0,1,.41,1.36,1.261,1.261,0,0,1-.313.89,5.292,5.292,0,0,1-1.875.86,9.593,9.593,0,0,0-1.528.62,2.155,2.155,0,0,0-.771.8,2.268,2.268,0,0,0-.337,1.2,1.839,1.839,0,0,0,.561,1.39,2.174,2.174,0,0,0,1.548.52,3.022,3.022,0,0,0,2.646-1.38A2.157,2.157,0,0,0,391.148,1120.02Zm-0.141-3.13a4.1,4.1,0,0,1-.239,1.59,2.082,2.082,0,0,1-.738.88,1.841,1.841,0,0,1-1.064.35,1.14,1.14,0,0,1-.913-0.43,1.577,1.577,0,0,1-.366-1.05,1.681,1.681,0,0,1,.449-1.17,5.471,5.471,0,0,1,1.474-1,4.53,4.53,0,0,0,1.328-.93c0.046,0.64.069,1.23,0.069,1.76h0Zm6.328-10.08a10.879,10.879,0,0,1-2.686.43q-0.312.015-.312,0.18,0,0.15.381,0.21a1.59,1.59,0,0,1,.957.45,1.44,1.44,0,0,1,.4.87q0.063,0.525.073,3.21l0.03,5.57a3.685,3.685,0,0,1-.279,1.68,1.208,1.208,0,0,1-1.167.51c-0.175.01-.263,0.07-0.263,0.18s0.1,0.18.293,0.18a1.368,1.368,0,0,0,.195-0.01,9.819,9.819,0,0,1,1.367-.08q1.4,0,2.4.09a1.043,1.043,0,0,0,.166.01c0.17,0,.254-0.05.254-0.16s-0.1-.17-0.312-0.19a1.269,1.269,0,0,1-1.03-.44,2.289,2.289,0,0,1-.24-1.21l-0.039-2.94,0.02-6.08q-0.02-1.23-.049-2.46h-0.166Zm5.625,0a10.879,10.879,0,0,1-2.686.43q-0.312.015-.312,0.18,0,0.15.381,0.21a1.59,1.59,0,0,1,.957.45,1.44,1.44,0,0,1,.4.87q0.063,0.525.073,3.21l0.03,5.57a3.685,3.685,0,0,1-.279,1.68,1.208,1.208,0,0,1-1.167.51c-0.175.01-.263,0.07-0.263,0.18s0.1,0.18.293,0.18a1.368,1.368,0,0,0,.195-0.01,9.819,9.819,0,0,1,1.367-.08q1.4,0,2.4.09a1.043,1.043,0,0,0,.166.01c0.17,0,.254-0.05.254-0.16s-0.1-.17-0.312-0.19a1.269,1.269,0,0,1-1.03-.44,2.289,2.289,0,0,1-.24-1.21l-0.039-2.94,0.02-6.08q-0.02-1.23-.049-2.46H402.96Zm8.979,0.47a0.881,0.881,0,0,0-.249.65,0.8,0.8,0,0,0,.293.65,1.022,1.022,0,0,0,.664.24,0.838,0.838,0,0,0,.66-0.27,0.98,0.98,0,0,0,.239-0.66,0.8,0.8,0,0,0-.293-0.59,0.922,0.922,0,0,0-.664-0.28A0.872,0.872,0,0,0,411.939,1107.28Zm0.23,4.61a7.576,7.576,0,0,0-1.162.12,0.165,0.165,0,0,0-.078.14c0,0.1.078,0.16,0.234,0.16a1.217,1.217,0,0,1,.947.31,4.144,4.144,0,0,1,.244,1.92l-0.068,4.05a1.848,1.848,0,0,1-.15.97,1.224,1.224,0,0,1-.694.24q-0.543.06-.543,0.24a0.188,0.188,0,0,0,.235.18,1.289,1.289,0,0,0,.195-0.02,11.356,11.356,0,0,1,1.729-.08,12.947,12.947,0,0,1,1.689.12c0.065,0,.124.01,0.176,0.01a0.167,0.167,0,0,0,.2-0.16c0-.13-0.179-0.21-0.537-0.23a1.1,1.1,0,0,1-.689-0.21,1.173,1.173,0,0,1-.229-0.89l0.01-1.17v-1.54l-0.02-2.05,0.01-2.2Q413.253,1111.8,412.169,1111.89Zm5.088-.03-0.791-.01c-0.195,0-.293.05-0.293,0.16s0.127,0.19.381,0.25a0.979,0.979,0,0,1,.654.52,5.733,5.733,0,0,1,.234,2.15c0,1.24-.017,2.27-0.053,3.1a4.047,4.047,0,0,1-.208,1.46,0.965,0.965,0,0,1-.6.31c-0.311.05-.466,0.14-0.466,0.25s0.143,0.16.429,0.16l0.779-.02c1.019,0,1.62,0,1.8.02l0.506,0.04c0.143,0,.215-0.05.215-0.14a0.2,0.2,0,0,0-.215-0.19,0.98,0.98,0,0,1-.855-0.43,4.889,4.889,0,0,1-.171-1.67,8.252,8.252,0,0,1,.757-4.11,2.2,2.2,0,0,1,1.9-1.24,1.573,1.573,0,0,1,1.289.68,4.972,4.972,0,0,1,.517,2.75q0,0.75-.044,1.95a8.176,8.176,0,0,1-.112,1.4,0.665,0.665,0,0,1-.234.34,1.925,1.925,0,0,1-.7.25,0.178,0.178,0,0,0-.2.15c0,0.11.121,0.17,0.362,0.17,0.605-.05,1.172-0.07,1.7-0.07a7.285,7.285,0,0,1,1.328.09c0.045,0,.091.01,0.137,0.01a0.14,0.14,0,0,0,.166-0.15,0.379,0.379,0,0,0-.342-0.21,1.169,1.169,0,0,1-.649-0.37,2.547,2.547,0,0,1-.152-1.14l0.059-3.28a4.635,4.635,0,0,0-.337-2.08,1.852,1.852,0,0,0-.957-0.85,3.344,3.344,0,0,0-1.284-.25,2.888,2.888,0,0,0-1.607.48,4.467,4.467,0,0,0-1.343,1.43,6.23,6.23,0,0,0-.283-1.94q-1.191.03-1.318,0.03h0Zm17.158-5.05a10.879,10.879,0,0,1-2.686.43q-0.312.015-.312,0.18,0,0.15.381,0.21a1.59,1.59,0,0,1,.957.45,1.44,1.44,0,0,1,.405.87q0.063,0.525.073,3.21l0.03,5.57a3.685,3.685,0,0,1-.279,1.68,1.208,1.208,0,0,1-1.167.51c-0.175.01-.263,0.07-0.263,0.18s0.1,0.18.293,0.18a1.368,1.368,0,0,0,.195-0.01,9.819,9.819,0,0,1,1.367-.08q1.4,0,2.4.09a1.036,1.036,0,0,0,.166.01c0.169,0,.253-0.05.253-0.16s-0.1-.17-0.312-0.19a1.269,1.269,0,0,1-1.03-.44,2.289,2.289,0,0,1-.24-1.21l-0.039-2.94,0.02-6.08q-0.019-1.23-.049-2.46h-0.166Zm4.189,12.29a3.971,3.971,0,0,0,2.92,1.23,4.024,4.024,0,0,0,3.008-1.34,4.341,4.341,0,0,0,1.289-3.11,3.872,3.872,0,0,0-1.225-2.93,4.089,4.089,0,0,0-2.925-1.17,4.008,4.008,0,0,0-3.047,1.31,4.257,4.257,0,0,0-1.24,3.02A4.094,4.094,0,0,0,438.6,1119.1Zm1.084-5.81a2.141,2.141,0,0,1,1.856-1.1,2.288,2.288,0,0,1,1.987,1.2,5.03,5.03,0,0,1,.767,2.75,4.459,4.459,0,0,1-.8,2.77,2.182,2.182,0,0,1-3.76-.07,4.757,4.757,0,0,1-.776-2.79A4.917,4.917,0,0,1,439.688,1113.29Zm9.991-.47a0.49,0.49,0,0,1,.5-0.5q0.351-.06.351-0.21c0-.12-0.114-0.18-0.341-0.18h-1.348l-1.7-.01c-0.189,0-.284.06-0.284,0.19a0.216,0.216,0,0,0,.225.19,1.315,1.315,0,0,1,.479.14,1.763,1.763,0,0,1,.39.48,14.174,14.174,0,0,1,.88,1.78l1.213,2.7,1.163,2.52a0.585,0.585,0,0,0,.294.41,0.387,0.387,0,0,0,.283-0.33,11.84,11.84,0,0,1,.536-1.21c0.312-.66.812-1.87,1.5-3.64a16.068,16.068,0,0,1,.976-2.17,1.44,1.44,0,0,1,1.162-.67c0.15-.02.225-0.07,0.225-0.17,0-.13-0.105-0.2-0.313-0.2l-0.879.01-1.465-.02a0.2,0.2,0,0,0-.244.2c0,0.1.108,0.16,0.322,0.18a0.474,0.474,0,0,1,.547.48c0,0.69-.7,2.59-2.1,5.68q-2.369-4.89-2.368-5.65h0Zm14.012,2.73a1.315,1.315,0,0,0,.748-0.1,0.553,0.553,0,0,0,.064-0.3,3.129,3.129,0,0,0-1.065-2.35,3.38,3.38,0,0,0-2.382-1,3.627,3.627,0,0,0-2.642,1.28,4.394,4.394,0,0,0-1.235,3.19,4.066,4.066,0,0,0,1.123,2.95,3.66,3.66,0,0,0,2.745,1.17,4.178,4.178,0,0,0,2-.47,2.873,2.873,0,0,0,1.27-1.15c-0.007-.17-0.062-0.25-0.166-0.25a0.924,0.924,0,0,0-.373.26,3.133,3.133,0,0,1-2.182.94,2.551,2.551,0,0,1-2.021-.96,3.486,3.486,0,0,1-.817-2.34c0-.2.013-0.46,0.039-0.79Zm-3.986-2.71a2.008,2.008,0,0,1,1.405-.7,1.737,1.737,0,0,1,1.326.61,2.042,2.042,0,0,1,.563,1.43,0.828,0.828,0,0,1-.313.74,1.79,1.79,0,0,1-.9.23l-0.518.03q-1.2,0-2.467-.06A3.84,3.84,0,0,1,459.705,1112.84ZM216.91,1132.48a0.266,0.266,0,0,0,.274.23,1.318,1.318,0,0,1,1,.52,6.122,6.122,0,0,1,.317,2.31c0.036,1.25.054,2.9,0.054,4.93a23.6,23.6,0,0,1-.156,3.74,0.972,0.972,0,0,1-1.065.61c-0.182,0-.273.06-0.273,0.2s0.114,0.2.342,0.2l2.065-.03,2.426,0.02a0.182,0.182,0,0,0,.225-0.18,0.221,0.221,0,0,0-.244-0.19,1.956,1.956,0,0,1-1.016-.33,1.157,1.157,0,0,1-.371-0.6,17,17,0,0,1-.175-2.27c-0.053-1.26-.079-2.4-0.079-3.41a21.392,21.392,0,0,1,.269-4.76,1.516,1.516,0,0,1,1.353-.78c0.175-.03.263-0.09,0.263-0.19,0-.13-0.163-0.19-0.489-0.19l-2.73.03-1.78-.03a0.165,0.165,0,0,0-.206.17h0Zm12.647,5.07a0.821,0.821,0,0,0,.146-0.57,0.646,0.646,0,0,0-.566-0.12l-2.139.03-0.01-1.52c0-.33.01-0.63,0.03-0.88q0.009-.09.009-0.18c0-.18-0.06-0.28-0.18-0.28s-0.193.12-.22,0.35a2.8,2.8,0,0,1-1.1,2,6.457,6.457,0,0,1-1.342.86,0.272,0.272,0,0,0-.244.2c0,0.09.072,0.14,0.215,0.15l0.586,0.04a7.989,7.989,0,0,1,.928.07c-0.117,2.32-.176,3.97-0.176,4.92a3.583,3.583,0,0,0,.5,2.08,1.728,1.728,0,0,0,1.5.69,2.8,2.8,0,0,0,1.7-.51,1.44,1.44,0,0,0,.695-0.74,0.112,0.112,0,0,0-.127-0.13,0.876,0.876,0,0,0-.274.13,2.2,2.2,0,0,1-1.148.38,1.3,1.3,0,0,1-1.1-.49,3.748,3.748,0,0,1-.383-2.09c0-1.39.046-2.8,0.137-4.24q2.051-.15,2.559-0.15h0Zm8.847,0.35c0-.24.235-0.4,0.7-0.48,0.254-.04.381-0.12,0.381-0.25,0-.1-0.094-0.15-0.283-0.15l-0.918-.02-2.217.04c-0.293,0-.439.07-0.439,0.22,0,0.09.11,0.16,0.332,0.18a0.852,0.852,0,0,1,.464.18,3.782,3.782,0,0,1,.63,1.13l1.115,2.58c0.449,1.06.942,2.27,1.476,3.64a0.582,0.582,0,0,0,.294.42,0.216,0.216,0,0,0,.122-0.06,7.821,7.821,0,0,0,.522-1.17l1.013-2.49q0.557-1.38.839-2.22l0.064-.05q0.448,1.245,1.425,3.48c0.474,1.11.754,1.78,0.839,1.99a0.679,0.679,0,0,0,.3.49,0.253,0.253,0,0,0,.205-0.21l0.936-2.5c0.578-1.53.952-2.59,1.121-3.19a5.577,5.577,0,0,1,.556-1.45,1.686,1.686,0,0,1,.732-0.56,0.563,0.563,0,0,0,.391-0.3,0.179,0.179,0,0,0-.186-0.16,6.991,6.991,0,0,0-.84-0.03q-1,0-1.308.03c-0.209.01-.313,0.07-0.313,0.16,0,0.12.121,0.2,0.362,0.22a0.565,0.565,0,0,1,.625.56,11.981,11.981,0,0,1-.536,1.89c-0.357,1.09-.756,2.19-1.2,3.31l-1.184-2.72c-0.359-.84-0.6-1.45-0.72-1.8a3.545,3.545,0,0,1-.181-0.64,0.693,0.693,0,0,1,.586-0.57,0.382,0.382,0,0,0,.322-0.23,0.152,0.152,0,0,0-.156-0.16q-0.156-.03-1.406-0.03l-1.729.04a0.209,0.209,0,0,0-.253.22c0,0.11.078,0.17,0.234,0.17a1.07,1.07,0,0,1,.513.14,1.185,1.185,0,0,1,.351.44,1.425,1.425,0,0,1,.181.67,21.883,21.883,0,0,1-1.675,4.59,36.975,36.975,0,0,1-2.095-5.35h0Zm13,6.2a3.97,3.97,0,0,0,2.92,1.23,4.024,4.024,0,0,0,3.008-1.34,4.345,4.345,0,0,0,1.289-3.11,3.872,3.872,0,0,0-1.225-2.93,4.09,4.09,0,0,0-2.925-1.17,4.008,4.008,0,0,0-3.047,1.31,4.257,4.257,0,0,0-1.24,3.02A4.09,4.09,0,0,0,251.4,1144.1Zm1.084-5.81a2.14,2.14,0,0,1,1.856-1.1,2.288,2.288,0,0,1,1.987,1.2,5.03,5.03,0,0,1,.767,2.75,4.465,4.465,0,0,1-.8,2.77,2.182,2.182,0,0,1-3.76-.07,4.75,4.75,0,0,1-.776-2.79A4.909,4.909,0,0,1,252.486,1138.29Zm8.047-1.31c-0.312,0-.469.06-0.469,0.17s0.131,0.18.391,0.19a0.489,0.489,0,0,1,.43.18,2.658,2.658,0,0,1,.068.79c0,0.78.02,1.84,0.059,3.2a12.927,12.927,0,0,0,.219,2.56,1.7,1.7,0,0,0,.665.87,2.083,2.083,0,0,0,1.245.36,3.287,3.287,0,0,0,1.67-.47,5.737,5.737,0,0,0,1.543-1.44c0.019,0.33.029,0.57,0.029,0.74q0,0.3-.029.6a1.508,1.508,0,0,0-.01.17q0,0.27.4,0.27h1.543q0.5,0,.5-0.18a0.228,0.228,0,0,0-.254-0.19,0.761,0.761,0,0,1-.6-0.34,3.186,3.186,0,0,1-.191-1.42l0.078-3.67c0-.88-0.029-1.68-0.088-2.39h-1.953a1.508,1.508,0,0,0-.439.04,0.138,0.138,0,0,0-.068.14,0.189,0.189,0,0,0,.224.17,0.881,0.881,0,0,1,.762.3,4.068,4.068,0,0,1,.156,1.51,20.862,20.862,0,0,1-.166,3.43,2.764,2.764,0,0,1-.874,1.41,2.125,2.125,0,0,1-1.411.65,1.329,1.329,0,0,1-.952-0.41,1.7,1.7,0,0,1-.493-1.04q-0.079-.63-0.1-2.52c-0.026-2.03-.055-3.25-0.088-3.68h-1.8Zm12.305-5.17a10.879,10.879,0,0,1-2.686.43q-0.312.015-.312,0.18,0,0.15.381,0.21a1.59,1.59,0,0,1,.957.45,1.44,1.44,0,0,1,.405.87q0.063,0.525.073,3.21l0.03,5.57a3.685,3.685,0,0,1-.279,1.68,1.208,1.208,0,0,1-1.167.51c-0.176.01-.263,0.07-0.263,0.18s0.1,0.18.293,0.18a1.368,1.368,0,0,0,.195-0.01,9.819,9.819,0,0,1,1.367-.08q1.4,0,2.4.09a1.043,1.043,0,0,0,.166.01c0.17,0,.254-0.05.254-0.16s-0.1-.17-0.312-0.19a1.267,1.267,0,0,1-1.03-.44,2.289,2.289,0,0,1-.24-1.21l-0.039-2.94,0.02-6.08q-0.019-1.23-.049-2.46h-0.166Zm8.535,0.06c-0.306,0-.459.05-0.459,0.17,0,0.09.12,0.15,0.361,0.19a0.822,0.822,0,0,1,.733.41,17.857,17.857,0,0,1,.156,3.45c0,0.67-.019,1.4-0.059,2.16a2.534,2.534,0,0,0-.966-1.05,2.778,2.778,0,0,0-1.416-.34,3.467,3.467,0,0,0-2.749,1.32,4.742,4.742,0,0,0-1.119,3.14,3.8,3.8,0,0,0,1.2,2.95,3.537,3.537,0,0,0,2.358,1.09,2.459,2.459,0,0,0,1.494-.49,4.194,4.194,0,0,0,1.2-1.46c-0.019.41-.029,0.73-0.029,0.95,0,0.17.01,0.46,0.029,0.86,0.4,0,.8.01,1.2,0.02a12.711,12.711,0,0,0,1.294-.03,0.141,0.141,0,0,0,.112-0.15c0-.1-0.1-0.17-0.313-0.21a1.062,1.062,0,0,1-.947-1.19l0.078-6.2q0-3.555-.01-5.64Zm0,11.97a2.186,2.186,0,0,1-1.606.89,2.016,2.016,0,0,1-1.538-.84,4.338,4.338,0,0,1-.708-2.79,5.555,5.555,0,0,1,.595-2.88,1.957,1.957,0,0,1,1.778-.96,1.907,1.907,0,0,1,1.694.82,4.462,4.462,0,0,1,.562,2.49A5.084,5.084,0,0,1,281.368,1143.84Zm12.183-7.13,0.029-4.85c-0.736.04-1.422,0.07-2.06,0.07-0.378,0-.588,0-0.63.01a0.081,0.081,0,0,0-.064.09,0.272,0.272,0,0,0,.274.2,1.153,1.153,0,0,1,.761.62,3.707,3.707,0,0,1,.347,1.71c0.023,0.8.034,2.46,0.034,5.01,0,1.42-.039,2.59-0.117,3.5a4.478,4.478,0,0,1-.283,1.58,0.937,0.937,0,0,1-.635.26c-0.156.02-.234,0.08-0.234,0.17s0.1,0.16.293,0.16q0.468-.03,1.1-0.03l1.973,0.04c0.156,0,.234-0.06.234-0.16s-0.081-.15-0.244-0.18a0.844,0.844,0,0,1-.723-0.48,6.192,6.192,0,0,1-.127-1.59c0-1.19.039-2.2,0.118-3.02a2.942,2.942,0,0,1,.756-1.88,2.02,2.02,0,0,1,1.48-.64,1.61,1.61,0,0,1,1.382.75,6.943,6.943,0,0,1,.522,3.38,17.13,17.13,0,0,1-.127,2.88,0.825,0.825,0,0,1-.82.54,0.2,0.2,0,0,0-.225.17,0.177,0.177,0,0,0,.166.17h2.891c0.286,0,.43-0.06.43-0.18q0-.12-0.264-0.12a0.809,0.809,0,0,1-.493-0.2,0.662,0.662,0,0,1-.278-0.46q-0.03-.27-0.03-1.5l0.059-2.59a3.823,3.823,0,0,0-.689-2.61,2.575,2.575,0,0,0-1.977-.73,3.5,3.5,0,0,0-2.8,1.46c-0.019-.41-0.029-0.93-0.029-1.55h0Zm13.1,8.31a0.889,0.889,0,0,0,.747.25c1.283,0,1.924-.12,1.924-0.37,0-.11-0.075-0.16-0.224-0.16l-0.166.02a1.757,1.757,0,0,1-.274.03,0.709,0.709,0,0,1-.669-0.63,8.719,8.719,0,0,1-.18-2.13l0.058-2.58a4.881,4.881,0,0,0-.171-1.59,1.578,1.578,0,0,0-.84-0.72,4.1,4.1,0,0,0-1.792-.32,3.974,3.974,0,0,0-2.226.54,1.54,1.54,0,0,0-.811,1.27,0.807,0.807,0,0,0,.733.85,0.872,0.872,0,0,0,.771-0.9,2.072,2.072,0,0,1,.479-1.11,1.383,1.383,0,0,1,.928-0.27,1.446,1.446,0,0,1,1.162.48,2.065,2.065,0,0,1,.41,1.36,1.261,1.261,0,0,1-.313.89,5.292,5.292,0,0,1-1.875.86,9.593,9.593,0,0,0-1.528.62,2.165,2.165,0,0,0-.772.8,2.276,2.276,0,0,0-.336,1.2,1.839,1.839,0,0,0,.561,1.39,2.174,2.174,0,0,0,1.548.52,3.022,3.022,0,0,0,2.646-1.38A2.157,2.157,0,0,0,306.651,1145.02Zm-0.141-3.13a4.1,4.1,0,0,1-.239,1.59,2.082,2.082,0,0,1-.738.88,1.841,1.841,0,0,1-1.064.35,1.14,1.14,0,0,1-.913-0.43,1.578,1.578,0,0,1-.367-1.05,1.682,1.682,0,0,1,.45-1.17,5.471,5.471,0,0,1,1.474-1,4.53,4.53,0,0,0,1.328-.93c0.046,0.64.069,1.23,0.069,1.76h0Zm6.172-4.07a0.49,0.49,0,0,1,.5-0.5q0.351-.06.351-0.21,0-.18-0.342-0.18h-1.347l-1.7-.01c-0.189,0-.284.06-0.284,0.19a0.216,0.216,0,0,0,.225.19,1.3,1.3,0,0,1,.478.14,1.74,1.74,0,0,1,.391.48,14.174,14.174,0,0,1,.88,1.78l1.213,2.7,1.163,2.52a0.588,0.588,0,0,0,.293.41,0.387,0.387,0,0,0,.284-0.33,11.84,11.84,0,0,1,.536-1.21c0.312-.66.812-1.87,1.5-3.64a16.068,16.068,0,0,1,.976-2.17,1.44,1.44,0,0,1,1.162-.67c0.15-.02.225-0.07,0.225-0.17,0-.13-0.1-0.2-0.313-0.2l-0.879.01-1.465-.02a0.2,0.2,0,0,0-.244.2c0,0.1.108,0.16,0.322,0.18a0.474,0.474,0,0,1,.547.48c0,0.69-.7,2.59-2.1,5.68q-2.368-4.89-2.368-5.65h0Zm14.012,2.73a1.317,1.317,0,0,0,.748-0.1,0.553,0.553,0,0,0,.064-0.3,3.129,3.129,0,0,0-1.065-2.35,3.38,3.38,0,0,0-2.382-1,3.627,3.627,0,0,0-2.642,1.28,4.394,4.394,0,0,0-1.235,3.19,4.066,4.066,0,0,0,1.123,2.95,3.66,3.66,0,0,0,2.745,1.17,4.178,4.178,0,0,0,2-.47,2.873,2.873,0,0,0,1.27-1.15c-0.007-.17-0.062-0.25-0.167-0.25a0.931,0.931,0,0,0-.372.26,3.133,3.133,0,0,1-2.182.94,2.551,2.551,0,0,1-2.021-.96,3.486,3.486,0,0,1-.817-2.34c0-.2.013-0.46,0.039-0.79Zm-3.986-2.71a2.008,2.008,0,0,1,1.4-.7,1.737,1.737,0,0,1,1.326.61,2.042,2.042,0,0,1,.563,1.43,0.831,0.831,0,0,1-.313.74,1.79,1.79,0,0,1-.9.23l-0.519.03q-1.194,0-2.466-.06A3.84,3.84,0,0,1,322.708,1137.84Zm16.644-.29a0.826,0.826,0,0,0,.146-0.57,0.646,0.646,0,0,0-.566-0.12l-2.139.03-0.01-1.52c0-.33.01-0.63,0.029-0.88a1.551,1.551,0,0,0,.01-0.18c0-.18-0.06-0.28-0.18-0.28s-0.194.12-.22,0.35a2.8,2.8,0,0,1-1.1,2,6.457,6.457,0,0,1-1.342.86,0.272,0.272,0,0,0-.244.2c0,0.09.072,0.14,0.215,0.15l0.586,0.04a7.989,7.989,0,0,1,.928.07c-0.117,2.32-.176,3.97-0.176,4.92a3.591,3.591,0,0,0,.5,2.08,1.73,1.73,0,0,0,1.5.69,2.8,2.8,0,0,0,1.7-.51,1.44,1.44,0,0,0,.695-0.74,0.112,0.112,0,0,0-.127-0.13,0.866,0.866,0,0,0-.274.13,2.2,2.2,0,0,1-1.148.38,1.3,1.3,0,0,1-1.1-.49,3.748,3.748,0,0,1-.383-2.09c0-1.39.046-2.8,0.137-4.24q2.051-.15,2.559-0.15h0Zm2.47,6.55a3.97,3.97,0,0,0,2.92,1.23,4.024,4.024,0,0,0,3.008-1.34,4.345,4.345,0,0,0,1.289-3.11,3.873,3.873,0,0,0-1.226-2.93,4.088,4.088,0,0,0-2.924-1.17,4.008,4.008,0,0,0-3.047,1.31,4.257,4.257,0,0,0-1.24,3.02A4.09,4.09,0,0,0,341.822,1144.1Zm1.084-5.81a2.14,2.14,0,0,1,1.856-1.1,2.289,2.289,0,0,1,1.987,1.2,5.03,5.03,0,0,1,.767,2.75,4.465,4.465,0,0,1-.8,2.77,2.182,2.182,0,0,1-3.76-.07,4.75,4.75,0,0,1-.776-2.79A4.909,4.909,0,0,1,342.906,1138.29Zm15.01-5.5c0.013-.22.02-0.37,0.02-0.44a0.237,0.237,0,0,0-.152-0.26c-0.1-.03-0.233-0.06-0.395-0.1l-1.729.02c-0.169-.01-0.254.04-0.254,0.14a0.242,0.242,0,0,0,.225.19,1.549,1.549,0,0,1,.64.36,0.922,0.922,0,0,1,.19.57c0.013,0.26.019,1.15,0.019,2.69l-0.126,8.53-0.01.4c0,0.18.055,0.27,0.166,0.27a0.449,0.449,0,0,0,.254-0.38,0.473,0.473,0,0,1,.381-0.42,1.073,1.073,0,0,1,.459.24,4.138,4.138,0,0,0,2.548.76,3.472,3.472,0,0,0,2.862-1.36,4.937,4.937,0,0,0,1.084-3.14,4.109,4.109,0,0,0-1.089-2.84,3.462,3.462,0,0,0-5.161-.11c0-2.59.022-4.3,0.068-5.12h0Zm0.391,5.36a1.877,1.877,0,0,1,1.631-.84,2.1,2.1,0,0,1,1.86,1.04,5.174,5.174,0,0,1,.679,2.86,4.553,4.553,0,0,1-.738,2.74,2.147,2.147,0,0,1-1.772,1,2.222,2.222,0,0,1-1.353-.4,1.939,1.939,0,0,1-.722-0.89,4.746,4.746,0,0,1-.171-1.49Q357.721,1138.99,358.307,1138.15Zm13.6,2.4a1.317,1.317,0,0,0,.748-0.1,0.562,0.562,0,0,0,.064-0.3,3.129,3.129,0,0,0-1.065-2.35,3.382,3.382,0,0,0-2.383-1,3.625,3.625,0,0,0-2.641,1.28,4.395,4.395,0,0,0-1.236,3.19,4.067,4.067,0,0,0,1.124,2.95,3.66,3.66,0,0,0,2.745,1.17,4.181,4.181,0,0,0,2-.47,2.873,2.873,0,0,0,1.27-1.15c-0.007-.17-0.062-0.25-0.167-0.25a0.931,0.931,0,0,0-.372.26,3.133,3.133,0,0,1-2.182.94,2.551,2.551,0,0,1-2.021-.96,3.486,3.486,0,0,1-.817-2.34c0-.2.012-0.46,0.039-0.79Zm-3.986-2.71a2.008,2.008,0,0,1,1.4-.7,1.737,1.737,0,0,1,1.326.61,2.042,2.042,0,0,1,.563,1.43,0.831,0.831,0,0,1-.313.74,1.79,1.79,0,0,1-.9.23l-0.519.03q-1.194,0-2.466-.06A3.833,3.833,0,0,1,367.923,1137.84Zm13.616,0.06q0-.36.7-0.48c0.254-.04.381-0.12,0.381-0.25,0-.1-0.094-0.15-0.283-0.15l-0.918-.02-2.217.04c-0.293,0-.439.07-0.439,0.22,0,0.09.11,0.16,0.332,0.18a0.855,0.855,0,0,1,.464.18,3.766,3.766,0,0,1,.629,1.13l1.115,2.58c0.45,1.06.943,2.27,1.477,3.64a0.582,0.582,0,0,0,.294.42,0.216,0.216,0,0,0,.122-0.06,7.764,7.764,0,0,0,.521-1.17l1.014-2.49q0.555-1.38.838-2.22l0.065-.05q0.448,1.245,1.425,3.48c0.474,1.11.754,1.78,0.838,1.99a0.686,0.686,0,0,0,.3.49,0.253,0.253,0,0,0,.206-0.21l0.936-2.5c0.578-1.53.951-2.59,1.12-3.19a5.615,5.615,0,0,1,.556-1.45,1.69,1.69,0,0,1,.733-0.56,0.563,0.563,0,0,0,.391-0.3,0.179,0.179,0,0,0-.186-0.16,6.991,6.991,0,0,0-.84-0.03q-1,0-1.308.03c-0.209.01-.313,0.07-0.313,0.16,0,0.12.12,0.2,0.361,0.22a0.564,0.564,0,0,1,.625.56,11.916,11.916,0,0,1-.535,1.89c-0.357,1.09-.757,2.19-1.2,3.31l-1.184-2.72c-0.359-.84-0.6-1.45-0.72-1.8a3.453,3.453,0,0,1-.181-0.64,0.692,0.692,0,0,1,.586-0.57,0.382,0.382,0,0,0,.322-0.23,0.152,0.152,0,0,0-.156-0.16q-0.156-.03-1.406-0.03l-1.729.04a0.21,0.21,0,0,0-.254.22c0,0.11.078,0.17,0.235,0.17a1.07,1.07,0,0,1,.512.14,1.185,1.185,0,0,1,.352.44,1.436,1.436,0,0,1,.181.67,21.949,21.949,0,0,1-1.675,4.59,36.834,36.834,0,0,1-2.1-5.35h0Zm12.788-5.62a0.881,0.881,0,0,0-.249.65,0.8,0.8,0,0,0,.293.65,1.02,1.02,0,0,0,.664.24,0.834,0.834,0,0,0,.659-0.27,0.976,0.976,0,0,0,.24-0.66,0.8,0.8,0,0,0-.293-0.59,0.924,0.924,0,0,0-.664-0.28A0.872,0.872,0,0,0,394.327,1132.28Zm0.23,4.61a7.576,7.576,0,0,0-1.162.12,0.164,0.164,0,0,0-.079.14c0,0.1.079,0.16,0.235,0.16a1.218,1.218,0,0,1,.947.31,4.144,4.144,0,0,1,.244,1.92l-0.068,4.05a1.848,1.848,0,0,1-.15.97,1.227,1.227,0,0,1-.694.24q-0.543.06-.543,0.24a0.187,0.187,0,0,0,.234.18,1.3,1.3,0,0,0,.2-0.02,11.349,11.349,0,0,1,1.728-.08,12.962,12.962,0,0,1,1.69.12c0.065,0,.123.01,0.176,0.01a0.168,0.168,0,0,0,.205-0.16c0-.13-0.18-0.21-0.537-0.23a1.1,1.1,0,0,1-.689-0.21,1.173,1.173,0,0,1-.229-0.89l0.009-1.17v-1.54l-0.019-2.05,0.01-2.2Q395.641,1136.8,394.557,1136.89Zm9.589,0.66a0.82,0.82,0,0,0,.147-0.57,0.646,0.646,0,0,0-.566-0.12l-2.139.03-0.01-1.52c0-.33.01-0.63,0.029-0.88a1.551,1.551,0,0,0,.01-0.18c0-.18-0.06-0.28-0.18-0.28s-0.194.12-.22,0.35a2.8,2.8,0,0,1-1.1,2,6.455,6.455,0,0,1-1.343.86,0.272,0.272,0,0,0-.243.2c0,0.09.072,0.14,0.215,0.15l0.586,0.04a7.989,7.989,0,0,1,.928.07c-0.117,2.32-.176,3.97-0.176,4.92a3.583,3.583,0,0,0,.5,2.08,1.73,1.73,0,0,0,1.5.69,2.8,2.8,0,0,0,1.7-.51,1.44,1.44,0,0,0,.695-0.74,0.112,0.112,0,0,0-.127-0.13,0.866,0.866,0,0,0-.274.13,2.2,2.2,0,0,1-1.148.38,1.3,1.3,0,0,1-1.1-.49,3.748,3.748,0,0,1-.383-2.09c0-1.39.046-2.8,0.137-4.24q2.05-.15,2.558-0.15h0Zm3.79-.84,0.029-4.85c-0.736.04-1.423,0.07-2.061,0.07-0.377,0-.587,0-0.63.01a0.081,0.081,0,0,0-.063.09,0.272,0.272,0,0,0,.273.2,1.153,1.153,0,0,1,.762.62,3.72,3.72,0,0,1,.347,1.71c0.023,0.8.034,2.46,0.034,5.01,0,1.42-.039,2.59-0.117,3.5a4.478,4.478,0,0,1-.283,1.58,0.939,0.939,0,0,1-.635.26c-0.156.02-.235,0.08-0.235,0.17s0.1,0.16.293,0.16q0.47-.03,1.1-0.03l1.973,0.04c0.156,0,.234-0.06.234-0.16a0.23,0.23,0,0,0-.244-0.18,0.844,0.844,0,0,1-.723-0.48,6.145,6.145,0,0,1-.127-1.59c0-1.19.039-2.2,0.117-3.02a2.943,2.943,0,0,1,.757-1.88,2.02,2.02,0,0,1,1.48-.64,1.61,1.61,0,0,1,1.382.75,6.943,6.943,0,0,1,.522,3.38,17.13,17.13,0,0,1-.127,2.88,0.826,0.826,0,0,1-.82.54,0.2,0.2,0,0,0-.225.17,0.176,0.176,0,0,0,.166.17h2.891q0.429,0,.429-0.18c0-.08-0.087-0.12-0.263-0.12a0.809,0.809,0,0,1-.493-0.2,0.667,0.667,0,0,1-.279-0.46q-0.029-.27-0.029-1.5l0.059-2.59a3.823,3.823,0,0,0-.689-2.61,2.575,2.575,0,0,0-1.977-.73,3.5,3.5,0,0,0-2.8,1.46c-0.02-.41-0.029-0.93-0.029-1.55h0Zm15.81,1.35a0.815,0.815,0,0,1,.772-0.74,0.469,0.469,0,0,0,.429-0.27c0-.12-0.081-0.18-0.244-0.18a2.344,2.344,0,0,0-.283.03,16.576,16.576,0,0,1-1.9.06,10.052,10.052,0,0,1-1.3-.07,0.936,0.936,0,0,0-.225-0.02,0.188,0.188,0,0,0-.234.19c0,0.11.107,0.18,0.322,0.2a1.134,1.134,0,0,1,.649.39,12.337,12.337,0,0,1,1.119,2.26c0.547,1.27,1.043,2.46,1.489,3.56a7.524,7.524,0,0,1,.669,2.3,5.077,5.077,0,0,1-.864,2.31q-0.865,1.47-1.568,1.47a0.475,0.475,0,0,1-.478-0.54,0.781,0.781,0,0,0-.869-0.8,0.894,0.894,0,0,0-.611.29,0.869,0.869,0,0,0-.3.65,1.265,1.265,0,0,0,.445.9,1.652,1.652,0,0,0,1.206.44,2.491,2.491,0,0,0,1.509-.58,5.616,5.616,0,0,0,1.474-2.1q0.708-1.515,1.87-4.94,1.191-3.51,1.646-4.47a1.824,1.824,0,0,1,1.235-1.13,0.262,0.262,0,0,0,.264-0.21c0-.12-0.082-0.17-0.244-0.17a1.677,1.677,0,0,0-.274.02q-0.44.03-1.738,0.03c-0.293,0-.5,0-0.615-0.01-0.3-.01-0.476-0.02-0.528-0.02-0.149,0-.224.05-0.224,0.16s0.094,0.18.283,0.2a0.9,0.9,0,0,1,1.016.89,6.294,6.294,0,0,1-.3,1.67q-0.3,1.035-1.367,3.93a46.519,46.519,0,0,1-2.227-5.7h0Zm8.291,6.04a3.97,3.97,0,0,0,2.92,1.23,4.025,4.025,0,0,0,3.008-1.34,4.345,4.345,0,0,0,1.289-3.11,3.873,3.873,0,0,0-1.226-2.93,4.088,4.088,0,0,0-2.924-1.17,4.007,4.007,0,0,0-3.047,1.31,4.258,4.258,0,0,0-1.241,3.02A4.091,4.091,0,0,0,432.037,1144.1Zm1.084-5.81a2.14,2.14,0,0,1,1.856-1.1,2.289,2.289,0,0,1,1.987,1.2,5.029,5.029,0,0,1,.766,2.75,4.465,4.465,0,0,1-.8,2.77,2.182,2.182,0,0,1-3.76-.07,4.75,4.75,0,0,1-.777-2.79A4.91,4.91,0,0,1,433.121,1138.29Zm8.047-1.31c-0.313,0-.469.06-0.469,0.17s0.13,0.18.391,0.19a0.489,0.489,0,0,1,.43.18,2.658,2.658,0,0,1,.068.79c0,0.78.019,1.84,0.058,3.2a12.977,12.977,0,0,0,.22,2.56,1.7,1.7,0,0,0,.664.87,2.087,2.087,0,0,0,1.245.36,3.285,3.285,0,0,0,1.67-.47,5.722,5.722,0,0,0,1.543-1.44c0.02,0.33.03,0.57,0.03,0.74q0,0.3-.03.6c-0.006.06-.009,0.12-0.009,0.17q0,0.27.4,0.27h1.543q0.5,0,.5-0.18a0.228,0.228,0,0,0-.254-0.19,0.763,0.763,0,0,1-.6-0.34,3.191,3.191,0,0,1-.19-1.42l0.078-3.67c0-.88-0.029-1.68-0.088-2.39h-1.953a1.508,1.508,0,0,0-.439.04,0.139,0.139,0,0,0-.069.14,0.19,0.19,0,0,0,.225.17,0.882,0.882,0,0,1,.762.3,4.068,4.068,0,0,1,.156,1.51,20.982,20.982,0,0,1-.166,3.43,2.764,2.764,0,0,1-.874,1.41,2.126,2.126,0,0,1-1.411.65,1.329,1.329,0,0,1-.952-0.41,1.7,1.7,0,0,1-.494-1.04q-0.078-.63-0.1-2.52c-0.026-2.03-.056-3.25-0.088-3.68h-1.8Zm13.809-2.33a2.363,2.363,0,0,1-.45-1.05c0-.42.411-0.67,1.231-0.74,0.162-.01.244-0.07,0.244-0.17a0.144,0.144,0,0,0-.088-0.16,2.5,2.5,0,0,0-.527-0.03h-4.268a1.929,1.929,0,0,0-.552.04,0.133,0.133,0,0,0-.092.14c0,0.11.117,0.17,0.351,0.19a1.98,1.98,0,0,1,.967.4,10.15,10.15,0,0,1,1.655,2.03c0.772,1.11,1.424,2.12,1.958,3.04a9.825,9.825,0,0,1,.84,1.59,12.291,12.291,0,0,1,.176,2.31,4.768,4.768,0,0,1-.314,1.96,1.31,1.31,0,0,1-1.257.7c-0.183.01-.275,0.07-0.275,0.17,0,0.13.124,0.19,0.372,0.19q0.137,0,.626-0.03c0.4-.03.923-0.04,1.556-0.04l2.631,0.06c0.228,0,.343-0.07.343-0.2,0-.11-0.1-0.18-0.313-0.2a1.639,1.639,0,0,1-1.421-.59,11.73,11.73,0,0,1-.22-3.11,10.628,10.628,0,0,1,.157-2.43,15.9,15.9,0,0,1,1.445-2.11l1.7-2.29a4.507,4.507,0,0,1,1.294-1.18,2.42,2.42,0,0,1,1.109-.27c0.149,0,.224-0.05.224-0.16q0-.21-0.508-0.21h-3.681c-0.371,0-.557.06-0.557,0.19,0,0.11.111,0.17,0.332,0.17a1.6,1.6,0,0,1,.825.24,0.72,0.72,0,0,1,.406.64,1.456,1.456,0,0,1-.2.61c-0.133.26-.573,0.91-1.318,1.97s-1.3,1.78-1.665,2.19Q455.427,1135.36,454.977,1134.65Zm11.23,9.45a3.97,3.97,0,0,0,2.92,1.23,4.025,4.025,0,0,0,3.008-1.34,4.345,4.345,0,0,0,1.289-3.11,3.873,3.873,0,0,0-1.226-2.93,4.089,4.089,0,0,0-2.925-1.17,4.006,4.006,0,0,0-3.046,1.31,4.258,4.258,0,0,0-1.241,3.02A4.091,4.091,0,0,0,466.207,1144.1Zm1.084-5.81a2.14,2.14,0,0,1,1.855-1.1,2.289,2.289,0,0,1,1.988,1.2,5.029,5.029,0,0,1,.766,2.75,4.459,4.459,0,0,1-.8,2.77,2.181,2.181,0,0,1-3.759-.07,4.75,4.75,0,0,1-.777-2.79A4.91,4.91,0,0,1,467.291,1138.29Zm8.047-1.31c-0.313,0-.469.06-0.469,0.17s0.13,0.18.391,0.19a0.485,0.485,0,0,1,.429.18,2.61,2.61,0,0,1,.069.79c0,0.78.019,1.84,0.058,3.2a12.9,12.9,0,0,0,.22,2.56,1.7,1.7,0,0,0,.664.87,2.083,2.083,0,0,0,1.245.36,3.285,3.285,0,0,0,1.67-.47,5.722,5.722,0,0,0,1.543-1.44c0.02,0.33.03,0.57,0.03,0.74q0,0.3-.03.6c-0.006.06-.01,0.12-0.01,0.17q0,0.27.4,0.27h1.543q0.5,0,.5-0.18a0.228,0.228,0,0,0-.254-0.19,0.761,0.761,0,0,1-.6-0.34,3.191,3.191,0,0,1-.19-1.42l0.078-3.67c0-.88-0.029-1.68-0.088-2.39h-1.953a1.508,1.508,0,0,0-.439.04,0.139,0.139,0,0,0-.069.14,0.19,0.19,0,0,0,.225.17,0.884,0.884,0,0,1,.762.3,4.068,4.068,0,0,1,.156,1.51,20.982,20.982,0,0,1-.166,3.43,2.764,2.764,0,0,1-.874,1.41,2.126,2.126,0,0,1-1.411.65,1.333,1.333,0,0,1-.953-0.41,1.7,1.7,0,0,1-.493-1.04q-0.078-.63-0.1-2.52c-0.026-2.03-.056-3.25-0.088-3.68h-1.8Zm12.256-.07-1.8.09a4.935,4.935,0,0,0-.894.1,0.14,0.14,0,0,0-.073.13c0,0.11.117,0.17,0.352,0.18a0.9,0.9,0,0,1,.981.69,29.974,29.974,0,0,1,.132,3.84,10.922,10.922,0,0,1-.147,2.52,0.781,0.781,0,0,1-.761.38q-0.44.03-.44,0.18c0,0.11.111,0.17,0.332,0.17H488.4c0.305,0,.459-0.07.459-0.21,0-.08-0.059-0.12-0.176-0.14a1.026,1.026,0,0,1-.8-0.35,7.663,7.663,0,0,1-.156-2.18,13.036,13.036,0,0,1,.175-2.72,2.867,2.867,0,0,1,.694-1.2,1.466,1.466,0,0,1,1.006-.55,0.944,0.944,0,0,1,.83.66,0.739,0.739,0,0,0,.625.51,0.759,0.759,0,0,0,.791-0.92,1.211,1.211,0,0,0-.391-0.88,1.3,1.3,0,0,0-.928-0.38,2.365,2.365,0,0,0-1.469.54,5.541,5.541,0,0,0-1.314,1.65c-0.052-1.06-.1-1.76-0.146-2.11h0Zm16.825,3.64a1.32,1.32,0,0,0,.748-0.1,0.563,0.563,0,0,0,.063-0.3,3.128,3.128,0,0,0-1.064-2.35,3.384,3.384,0,0,0-2.383-1,3.625,3.625,0,0,0-2.641,1.28,4.395,4.395,0,0,0-1.236,3.19,4.067,4.067,0,0,0,1.124,2.95,3.66,3.66,0,0,0,2.745,1.17,4.174,4.174,0,0,0,2-.47,2.868,2.868,0,0,0,1.27-1.15c-0.006-.17-0.062-0.25-0.166-0.25a0.931,0.931,0,0,0-.372.26,3.135,3.135,0,0,1-2.182.94,2.55,2.55,0,0,1-2.021-.96,3.487,3.487,0,0,1-.818-2.34c0-.2.013-0.46,0.039-0.79Zm-3.986-2.71a2.006,2.006,0,0,1,1.405-.7,1.74,1.74,0,0,1,1.326.61,2.042,2.042,0,0,1,.563,1.43,0.829,0.829,0,0,1-.314.74,1.786,1.786,0,0,1-.9.23l-0.519.03q-1.194,0-2.467-.06A3.84,3.84,0,0,1,500.433,1137.84Zm8.948,0.22a0.815,0.815,0,0,1,.771-0.74,0.47,0.47,0,0,0,.43-0.27c0-.12-0.081-0.18-0.244-0.18a2.324,2.324,0,0,0-.283.03,16.586,16.586,0,0,1-1.905.06,10.046,10.046,0,0,1-1.3-.07,0.936,0.936,0,0,0-.225-0.02,0.188,0.188,0,0,0-.234.19c0,0.11.107,0.18,0.322,0.2a1.134,1.134,0,0,1,.649.39,12.293,12.293,0,0,1,1.118,2.26c0.547,1.27,1.044,2.46,1.49,3.56a7.524,7.524,0,0,1,.669,2.3,5.069,5.069,0,0,1-.865,2.31q-0.864,1.47-1.567,1.47a0.476,0.476,0,0,1-.479-0.54,0.78,0.78,0,0,0-.869-0.8,0.892,0.892,0,0,0-.61.29,0.866,0.866,0,0,0-.3.65,1.267,1.267,0,0,0,.444.9,1.656,1.656,0,0,0,1.207.44,2.486,2.486,0,0,0,1.508-.58,5.616,5.616,0,0,0,1.475-2.1q0.708-1.515,1.87-4.94,1.191-3.51,1.646-4.47a1.823,1.823,0,0,1,1.235-1.13,0.262,0.262,0,0,0,.264-0.21c0-.12-0.082-0.17-0.245-0.17a1.673,1.673,0,0,0-.273.02q-0.439.03-1.738,0.03c-0.293,0-.5,0-0.616-0.01-0.3-.01-0.475-0.02-0.527-0.02-0.15,0-.224.05-0.224,0.16s0.094,0.18.283,0.2a0.9,0.9,0,0,1,1.015.89,6.326,6.326,0,0,1-.3,1.67q-0.3,1.035-1.368,3.93a46.6,46.6,0,0,1-2.226-5.7h0Zm13.582,2.49a1.322,1.322,0,0,0,.749-0.1,0.563,0.563,0,0,0,.063-0.3,3.132,3.132,0,0,0-1.064-2.35,3.384,3.384,0,0,0-2.383-1,3.625,3.625,0,0,0-2.641,1.28,4.395,4.395,0,0,0-1.236,3.19,4.067,4.067,0,0,0,1.124,2.95,3.657,3.657,0,0,0,2.745,1.17,4.174,4.174,0,0,0,2-.47,2.868,2.868,0,0,0,1.27-1.15c-0.006-.17-0.062-0.25-0.166-0.25a0.931,0.931,0,0,0-.372.26,3.135,3.135,0,0,1-2.183.94,2.553,2.553,0,0,1-2.021-.96,3.491,3.491,0,0,1-.817-2.34c0-.2.013-0.46,0.039-0.79Zm-3.985-2.71a2,2,0,0,1,1.4-.7,1.74,1.74,0,0,1,1.327.61,2.041,2.041,0,0,1,.562,1.43,0.828,0.828,0,0,1-.313.74,1.789,1.789,0,0,1-.9.23l-0.519.03q-1.194,0-2.467-.06A3.833,3.833,0,0,1,518.978,1137.84Zm12.073,3.85a2.069,2.069,0,0,0-.557-0.7,7.673,7.673,0,0,0-1.387-.73,18.681,18.681,0,0,1-1.86-.91,1.845,1.845,0,0,1-.347-0.41,1.049,1.049,0,0,1-.185-0.61,1.078,1.078,0,0,1,.449-0.89,1.836,1.836,0,0,1,1.152-.34,2.2,2.2,0,0,1,.913.21,1.945,1.945,0,0,1,.855.94,7.255,7.255,0,0,1,.469,1,0.305,0.305,0,0,0,.234.28c0.111,0,.166-0.1.166-0.31,0-.34-0.019-0.77-0.058-1.3a4.059,4.059,0,0,0-.107-0.86,0.153,0.153,0,0,0-.133-0.08,0.311,0.311,0,0,0-.18.15,0.325,0.325,0,0,1-.216.17,0.672,0.672,0,0,1-.274-0.08,3.9,3.9,0,0,0-1.761-.5,2.7,2.7,0,0,0-1.849.68,2.158,2.158,0,0,0-.764,1.69,2,2,0,0,0,.244.97,1.906,1.906,0,0,0,.672.72c0.286,0.17.855,0.45,1.706,0.83,1.24,0.56,1.861,1.19,1.861,1.91a1.339,1.339,0,0,1-.506,1.1,1.793,1.793,0,0,1-1.157.4,2.082,2.082,0,0,1-1.609-.78,5.339,5.339,0,0,1-1.064-1.89,0.206,0.206,0,0,0-.171-0.18c-0.127,0-.191.12-0.191,0.36,0.013,0.16.023,0.53,0.03,1.09,0.006,0.66.02,1.08,0.04,1.27s0.069,0.28.149,0.28a0.43,0.43,0,0,0,.3-0.28,0.362,0.362,0,0,1,.293-0.2,2.984,2.984,0,0,1,.614.23,3.886,3.886,0,0,0,1.628.44,2.765,2.765,0,0,0,1.988-.81,2.613,2.613,0,0,0,.838-1.95A1.986,1.986,0,0,0,531.051,1141.69Z" transform="translate(-216.906 -1106.81)" fill="#ffffff"></path>
</svg>