<svg xmlns="http://www.w3.org/2000/svg" width="640.532" height="8.97" viewBox="0 0 640.532 8.97" preserveAspectRatio="none" style="width: 100%; height: 100%;">
  <metadata><!--?xpacket begin="&#xFEFF;" id="W5M0MpCehiHzreSzNTczkc9d"?-->
<x:xmpmeta xmlns:x="adobe:ns:meta/" x:xmptk="Adobe XMP Core 5.6-c142 79.160924, 2017/07/13-01:06:39        ">
   <rdf:rdf xmlns:rdf="http://www.w3.org/1999/02/22-rdf-syntax-ns#">
      <rdf:description rdf:about=""></rdf:description>
   </rdf:rdf>
</x:xmpmeta>
                                                                                                    
                                                                                                    
                                                                                                    
                                                                                                    
                                                                                                    
                                                                                                    
                                                                                                    
                                                                                                    
                                                                                                    
                                                                                                    
                                                                                                    
                                                                                                    
                                                                                                    
                                                                                                    
                                                                                                    
                                                                                                    
                                                                                                    
                                                                                                    
                                                                                                    
                                                                                                    
                           
<!--?xpacket end="w"?--></metadata>
<defs>
    
  </defs>
  <path id="You_are_invited_to_our_wedding" data-name="You are invited to our wedding" class="cls-1" d="M54.549,1148.31l-2.827-4.51h0.429l2.8,4.47v3.66h-0.4v-3.62Zm-2.157-3.08c0.372,0.54.734,1.1,1.085,1.67s0.64,1.06.867,1.47q0.035,0.9.035,1.32,0,0.555-.056,1.2a6.863,6.863,0,0,1-.15,1.01l-1.428.2v0.06H57.2v-0.06l-1.458-.2a8.453,8.453,0,0,1-.182-1.95c0-.59.016-1.12,0.047-1.6,0.392-.6.686-1.05,0.882-1.34s0.464-.68.805-1.16,0.619-.87.835-1.16,0.439-.57.67-0.84l1.011-.2v-0.07H56.388v0.06l1.722,0.21c-0.274.51-.692,1.17-1.252,1.99a18.7,18.7,0,0,1-1.458,1.9,21.236,21.236,0,0,1-1.281-1.87,18.985,18.985,0,0,1-1.111-2.02l1.757-.21v-0.06H50.193v0.06l1.187,0.21Q51.833,1144.405,52.392,1145.23Zm24.261-1.41a4.529,4.529,0,0,0-1.514.98,4.4,4.4,0,0,0-.964,1.43,4.24,4.24,0,0,0-.332,1.65,4.289,4.289,0,0,0,.523,1.97,4.4,4.4,0,0,0,1.622,1.69,5.513,5.513,0,0,0,4.664.3,4.438,4.438,0,0,0,2.4-2.42,4.149,4.149,0,0,0,.308-1.57,4.255,4.255,0,0,0-.273-1.45,4.368,4.368,0,0,0-.858-1.43,4.212,4.212,0,0,0-1.5-1.09,5.17,5.17,0,0,0-2.169-.42A5,5,0,0,0,76.653,1143.82Zm3.165,0.27a2.82,2.82,0,0,1,1.055.68,3.546,3.546,0,0,1,.829,1.27,5.456,5.456,0,0,1,.282,1.94,4.669,4.669,0,0,1-.267,1.62,3.494,3.494,0,0,1-.743,1.22,3.231,3.231,0,0,1-1.082.75,3.212,3.212,0,0,1-2.889-.18,3.321,3.321,0,0,1-1.275-1.34,5.163,5.163,0,0,1-.041-4.33,3.368,3.368,0,0,1,1.228-1.38,3.211,3.211,0,0,1,1.684-.47A3.394,3.394,0,0,1,79.818,1144.09Zm0.464-.17a3.679,3.679,0,0,1,2.078,2.11,4.926,4.926,0,0,1,.317,1.84,4.665,4.665,0,0,1-.306,1.72,3.963,3.963,0,0,1-.832,1.31,3.625,3.625,0,0,1-1.2.82,4.068,4.068,0,0,1-1.428.32v-0.06a3.746,3.746,0,0,0,1.534-.46,3.245,3.245,0,0,0,1.037-.95,4.007,4.007,0,0,0,.576-1.26,6.081,6.081,0,0,0-.126-3.37,3.375,3.375,0,0,0-.808-1.28,3.318,3.318,0,0,0-1.079-.71,3.985,3.985,0,0,0-1.146-.26v-0.06A3.881,3.881,0,0,1,80.282,1143.92Zm-3.515.2a3.991,3.991,0,0,0-1.208.93,4.16,4.16,0,0,0-.764,1.31,4.485,4.485,0,0,0-.264,1.53,4.115,4.115,0,0,0,3.8,4.09v0.06a4.186,4.186,0,0,1-2.157-.64,4.38,4.38,0,0,1-1.537-1.56,3.967,3.967,0,0,1-.555-1.99,3.871,3.871,0,0,1,.332-1.58,4.257,4.257,0,0,1,.926-1.35,4.42,4.42,0,0,1,1.375-.94,3.941,3.941,0,0,1,1.6-.35v0.06A4.214,4.214,0,0,0,76.768,1144.12Zm27.9,7.09a2.914,2.914,0,0,0,.541-1.86v-5.55h0.411v5.57a3.669,3.669,0,0,1-.164,1.15,2.071,2.071,0,0,1-.5.83,2.222,2.222,0,0,1-.837.51,4.087,4.087,0,0,1-1.2.23v-0.08A2.435,2.435,0,0,0,104.664,1151.21Zm-4.934.18a2.1,2.1,0,0,1-.761-1.71v-5.88H99.38v5.67a2.529,2.529,0,0,0,.35,1.37,2.2,2.2,0,0,0,.97.84,3.96,3.96,0,0,0,1.449.33v0.08A4.073,4.073,0,0,1,99.73,1151.39Zm-0.464-.21a2.61,2.61,0,0,0,1.284.82,6.855,6.855,0,0,0,1.922.24,9.183,9.183,0,0,0,1.134-.05,5.136,5.136,0,0,0,.847-0.17,2.557,2.557,0,0,0,.64-0.28,2.53,2.53,0,0,0,.482-0.38,2.023,2.023,0,0,0,.494-0.8,3.465,3.465,0,0,0,.159-1.12v-2.85c0-.4.014-0.9,0.044-1.49a8.959,8.959,0,0,1,.126-1.27l1.2-.19v-0.06h-4.261v0.06l1.546,0.19c0.047,0.32.086,0.78,0.117,1.39s0.047,1.13.047,1.58v2.51a2.46,2.46,0,0,1-.673,1.93,2.685,2.685,0,0,1-1.854.6,3.441,3.441,0,0,1-1.267-.22,1.861,1.861,0,0,1-.922-0.74,2.455,2.455,0,0,1-.35-1.39v-2.4c0-.27.009-0.61,0.026-1.05s0.039-.84.062-1.22,0.055-.71.094-0.99l1.552-.19v-0.06H97.429v0.06l1.228,0.19q0.141,1.5.141,2.58v3.27A2.329,2.329,0,0,0,99.266,1151.18Zm44.458-7.02,3.25,7.77h-0.393l-3.051-7.28Zm0.688,3.01c0.356,0.82.609,1.44,0.758,1.89a15.254,15.254,0,0,1-1.687.08c-0.278,0-.571-0.01-0.879-0.02s-0.577-.03-0.808-0.06l0.306-.78q0.23-.585.441-1.11c0.141-.35.3-0.72,0.473-1.12s0.314-.7.42-0.91C143.73,1145.68,144.055,1146.36,144.412,1147.17Zm-0.817-3.68-2.721,6.91a12.742,12.742,0,0,1-.723,1.5l-1.082.2v0.06h3.286v-0.06l-1.54-.2a4.215,4.215,0,0,1,.173-0.69c0.088-.27.18-0.54,0.276-0.79s0.223-.58.379-0.97h3.686a7.036,7.036,0,0,1,.526,1.18,7.3,7.3,0,0,1,.326,1.27l-1.6.2v0.06h4.15v-0.06l-0.976-.2a22.147,22.147,0,0,1-1.152-2.35l-2.545-6.06H143.6Zm20.358,6.74c-0.035.72-.082,1.27-0.141,1.67l-1.381.2v0.06H166.8v-0.06l-1.463-.2a14.751,14.751,0,0,1-.147-1.81V1149a6.417,6.417,0,0,1,.035-0.7,2.909,2.909,0,0,1,.576-0.04,1.892,1.892,0,0,1,.614.08,1.541,1.541,0,0,1,.462.34,4.614,4.614,0,0,1,.461.57c0.194,0.27.433,0.62,0.717,1.03s0.492,0.71.623,0.89a3.732,3.732,0,0,0,.4.47,1.8,1.8,0,0,0,1.363.52h1.023v-0.06a1.4,1.4,0,0,1-.975-0.49,5.314,5.314,0,0,1-.488-0.59c-0.177-.24-0.41-0.58-0.7-1.01s-0.523-.77-0.7-1.02a4.6,4.6,0,0,0-.47-0.57,1.96,1.96,0,0,0-.665-0.43v-0.02a1.949,1.949,0,0,0,.832-0.3,2.073,2.073,0,0,0,.661-0.7,1.929,1.929,0,0,0,.253-0.99,2.469,2.469,0,0,0-1.161-1.96,3.13,3.13,0,0,0-1.754-.44h-3.862v0.06l1.411,0.21q0.071,0.51.117,1.41c0.032,0.6.047,1.13,0.047,1.6v1.81Q164.006,1149.165,163.953,1150.23Zm1.267-5.29c0.029-.43.062-0.75,0.1-0.98a2.539,2.539,0,0,1,.535-0.04,1.956,1.956,0,0,1,.732.15,2.357,2.357,0,0,1,.676.44,2.195,2.195,0,0,1,.493.7,2.061,2.061,0,0,1,.191.89,2.1,2.1,0,0,1-.2.91,1.531,1.531,0,0,1-.658.67,2.5,2.5,0,0,1-1.214.26,5.113,5.113,0,0,1-.664-0.04c-0.023-.29-0.035-0.61-0.035-0.95v-0.96Q165.176,1145.57,165.22,1144.94Zm1.449,3.29,0.023-.04a1.417,1.417,0,0,1,.706.33,3.589,3.589,0,0,1,.617.72l1.023,1.47a2.948,2.948,0,0,0,1.193,1.19v0.06a1.383,1.383,0,0,1-.847-0.29,4.147,4.147,0,0,1-.817-0.93l-1.275-1.84a2.353,2.353,0,0,0-.623-0.67h0Zm-2.092-4.42v8.12h-0.424v-8.12h0.424Zm1.475-.1a2.812,2.812,0,0,1,.9.15,2.7,2.7,0,0,1,.808.45,2.071,2.071,0,0,1,.573.73,2.179,2.179,0,0,1,.212.97,1.846,1.846,0,0,1-.391,1.19,1.743,1.743,0,0,1-.99.65l-0.036-.02a1.765,1.765,0,0,0,1.023-1.69,2.563,2.563,0,0,0-.247-1.07,2.224,2.224,0,0,0-.79-0.91,2.4,2.4,0,0,0-1.349-.39v-0.06h0.288Zm21.211,0.1v8.12h-0.406v-8.12h0.406Zm-0.735.04q0.065,0.555.1,1.11c0.023,0.37.041,0.73,0.053,1.07s0.017,0.62.017,0.8v1.48q0,0.315-.011.72c-0.008.28-.022,0.62-0.041,1.03s-0.043.78-.068,1.1a7.377,7.377,0,0,1-.085.74l-1.405.2v0.06h6.33l0.129-1.83h-0.082l-0.47,1.41c-0.306.03-.682,0.05-1.129,0.05a6.465,6.465,0,0,1-1.88-.22c-0.032-.26-0.053-0.57-0.065-0.93s-0.022-.82-0.029-1.37a8.375,8.375,0,0,1,.047-1.33,12.149,12.149,0,0,1,1.41-.07c0.412,0,.788.02,1.129,0.05l0.276,1.06h0.1v-2.5h-0.1l-0.265,1a12.973,12.973,0,0,1-1.369.08q-0.254,0-1.181-.06c-0.032-.31-0.047-0.73-0.047-1.23a17.808,17.808,0,0,1,.117-2.17,8.216,8.216,0,0,1,1.828-.16c0.415,0,.79.01,1.123,0.04l0.423,1.42h0.094l-0.147-1.82h-6.26v0.06Zm39.03-.04v8.12h-0.411v-8.12h0.411Zm2.24,8.29-1.458-.2c-0.027-.19-0.056-0.47-0.085-0.85s-0.053-.83-0.071-1.37-0.026-.93-0.026-1.17v-1.29q0-.585.023-1.23c0.016-.44.034-0.81,0.053-1.12s0.051-.64.094-1.02l1.47-.21v-0.06h-4.444v0.06l1.458,0.21a24.15,24.15,0,0,1,.176,3.26v0.98c0,0.66-.016,1.34-0.05,2.03s-0.083,1.28-.15,1.77l-1.434.21v0.06H227.8v-0.06Zm14.692-8.24,0.782,0.57c0.031,0.33.053,0.66,0.065,1s0.017,0.67.017,1.01v2.87c0,0.4-.009.87-0.029,1.39a10.1,10.1,0,0,1-.1,1.2l-1.446.2v0.06h3.574v-0.06l-1.493-.21a15.915,15.915,0,0,1-.118-1.78v-3.71a14.539,14.539,0,0,1,.083-1.49c0.376,0.34.83,0.79,1.363,1.36l3.6,3.99q0.882,0.99,1.781,2.13h0.059v-6.42a16.06,16.06,0,0,1,.112-2.1l1.428-.23v-0.06h-3.5v0.06l1.428,0.22a15.388,15.388,0,0,1,.135,2.25v2.53c0,0.21,0,.43-0.012.67s-0.023.48-.047,0.75c-0.309-.29-0.561-0.55-0.755-0.75s-0.465-.5-0.814-0.88l-2.633-2.92c-0.243-.27-0.52-0.59-0.832-0.97s-0.565-.69-0.761-0.96h-2.968v0.06Zm1.17-.06,6.607,7.32v0.55l-7.1-7.87h0.494Zm23.9,0.01,3.15,7.37-0.205.48-3.368-7.85h0.423Zm2.333-.23h-4.1v0.06l1.034,0.21a22.518,22.518,0,0,1,1.176,2.37l1.869,4.35c0.254,0.57.5,1.19,0.723,1.83h0.082a16.886,16.886,0,0,1,.641-1.7l2-4.73a15.539,15.539,0,0,1,1.011-2.11l1.07-.23v-0.05h-3.492v0.06l1.781,0.22a21.536,21.536,0,0,1-.746,2.05l-0.917,2.17c-0.145.36-.314,0.74-0.508,1.15s-0.362.74-.5,0.99c-0.357-.68-0.625-1.24-0.8-1.67l-0.817-1.9a23.775,23.775,0,0,1-1.035-2.79l1.54-.22v-0.06Zm21.429,0.23v8.12h-0.412v-8.12h0.412Zm2.239,8.29-1.458-.2c-0.027-.19-0.055-0.47-0.085-0.85s-0.053-.83-0.07-1.37-0.027-.93-0.027-1.17v-1.29q0-.585.024-1.23c0.015-.44.033-0.81,0.053-1.12s0.05-.64.094-1.02l1.469-.21v-0.06h-4.443v0.06l1.457,0.21a24.125,24.125,0,0,1,.177,3.26v0.98c0,0.66-.017,1.34-0.05,2.03s-0.084,1.28-.15,1.77l-1.434.21v0.06h4.443v-0.06Zm17.831-8.3v8.13H311v-8.13H311.4Zm-3.485-.26c-0.223-.03-0.394-0.05-0.511-0.06l-0.13,1.92h0.082l0.424-1.39a7.583,7.583,0,0,1,1.263-.11c0.271,0.01.557,0.04,0.859,0.07a6.479,6.479,0,0,1,.793.15c0.047,0.38.08,0.79,0.1,1.21s0.029,0.86.029,1.3v2.12a23.146,23.146,0,0,1-.182,3.14l-1.428.21v0.06h4.437v-0.06l-1.451-.21q-0.076-.57-0.13-1.53c-0.035-.63-0.053-1.2-0.053-1.72v-1.94c0-.11,0-0.3.012-0.59s0.02-.6.035-0.94,0.04-.69.071-1.05a6.608,6.608,0,0,1,.888-0.17,6.329,6.329,0,0,1,.911-0.06,5.785,5.785,0,0,1,1.116.1l0.435,1.38h0.071l-0.135-1.9q-0.612.06-1,.09c-0.258.01-.542,0.02-0.852,0.02h-5.1A4.16,4.16,0,0,1,307.91,1143.54Zm23.568,0.27v8.12h-0.406v-8.12h0.406Zm-0.735.04q0.065,0.555.1,1.11c0.023,0.37.041,0.73,0.053,1.07s0.017,0.62.017,0.8v1.48c0,0.21,0,.45-0.011.72s-0.022.62-.041,1.03-0.043.78-.068,1.1a7.377,7.377,0,0,1-.085.74l-1.405.2v0.06h6.33l0.129-1.83H335.68l-0.47,1.41c-0.306.03-.682,0.05-1.129,0.05a6.465,6.465,0,0,1-1.88-.22c-0.032-.26-0.053-0.57-0.065-0.93s-0.022-.82-0.029-1.37a8.375,8.375,0,0,1,.047-1.33,12.149,12.149,0,0,1,1.41-.07c0.412,0,.788.02,1.129,0.05l0.276,1.06h0.1v-2.5h-0.1l-0.264,1a13.007,13.007,0,0,1-1.37.08q-0.253,0-1.181-.06c-0.032-.31-0.047-0.73-0.047-1.23a17.808,17.808,0,0,1,.117-2.17,8.216,8.216,0,0,1,1.828-.16c0.415,0,.79.01,1.123,0.04l0.423,1.42h0.094l-0.147-1.82h-6.26v0.06Zm19.013-.21,1.457,0.22a27.037,27.037,0,0,1,.153,3.04v1.54c0,0.44-.02,1.04-0.059,1.81a13.008,13.008,0,0,1-.158,1.65l-1.429.2v0.06h5.414a4.588,4.588,0,0,0,1.725-.31,3.969,3.969,0,0,0,2.251-2.28,4.694,4.694,0,0,0,.308-1.72,4.925,4.925,0,0,0-.238-1.5,3.865,3.865,0,0,0-.787-1.36,3.929,3.929,0,0,0-1.5-1.02,6.056,6.056,0,0,0-2.3-.39h-4.837v0.06Zm2.815,2.05c0.016-.37.034-0.69,0.056-0.97s0.044-.49.067-0.63a4.448,4.448,0,0,1,1.2-.15,5.413,5.413,0,0,1,1.569.23,3.908,3.908,0,0,1,1.325.7,3.273,3.273,0,0,1,.908,1.23,4.369,4.369,0,0,1,.329,1.77,4.471,4.471,0,0,1-.311,1.72,3.523,3.523,0,0,1-.826,1.24,3.5,3.5,0,0,1-2.454.98,5.1,5.1,0,0,1-.952-0.08,3.46,3.46,0,0,1-.852-0.25,14.728,14.728,0,0,1-.082-1.54v-3.42C352.548,1146.34,352.555,1146.06,352.571,1145.69Zm-0.623-1.88v8.12h-0.411v-8.12h0.411Zm2.069-.09a4.671,4.671,0,0,1,3.5,1.15,4.063,4.063,0,0,1,.861,1.28,4.22,4.22,0,0,1,.344,1.75,4.441,4.441,0,0,1-.482,2.05,3.634,3.634,0,0,1-1.42,1.5,4.182,4.182,0,0,1-2.218.56h-0.447v-0.05h0.447a3.621,3.621,0,0,0,1.628-.44,3.577,3.577,0,0,0,1.446-1.35,4.2,4.2,0,0,0,.587-2.29,4.642,4.642,0,0,0-.144-1.17,4.254,4.254,0,0,0-.393-1,3.582,3.582,0,0,0-.6-0.8,3.317,3.317,0,0,0-.8-0.58,4.274,4.274,0,0,0-1.141-.4,7.119,7.119,0,0,0-1.531-.15v-0.06h0.353Zm41.611,0.08v8.13h-0.394v-8.13h0.394Zm-3.486-.26c-0.223-.03-0.394-0.05-0.511-0.06l-0.129,1.92h0.082l0.423-1.39a7.6,7.6,0,0,1,1.264-.11c0.27,0.01.556,0.04,0.858,0.07a6.443,6.443,0,0,1,.793.15c0.047,0.38.081,0.79,0.1,1.21s0.03,0.86.03,1.3v2.12a22.967,22.967,0,0,1-.183,3.14l-1.428.21v0.06h4.438v-0.06l-1.452-.21q-0.077-.57-0.129-1.53c-0.036-.63-0.053-1.2-0.053-1.72v-1.94c0-.11,0-0.3.012-0.59s0.019-.6.035-0.94,0.039-.69.07-1.05a6.668,6.668,0,0,1,.888-0.17,6.339,6.339,0,0,1,.911-0.06,5.8,5.8,0,0,1,1.117.1l0.435,1.38h0.07l-0.135-1.9q-0.612.06-1,.09c-0.259.01-.543,0.02-0.852,0.02h-5.1A4.184,4.184,0,0,1,392.142,1143.54Zm24.6,0.28a4.527,4.527,0,0,0-1.514.98,4.419,4.419,0,0,0-.964,1.43,4.1,4.1,0,0,0,.191,3.62,4.41,4.41,0,0,0,1.622,1.69,5.513,5.513,0,0,0,4.664.3,4.437,4.437,0,0,0,2.4-2.42,4.144,4.144,0,0,0,.309-1.57,4.259,4.259,0,0,0-.273-1.45,4.383,4.383,0,0,0-.859-1.43,4.2,4.2,0,0,0-1.5-1.09,5.175,5.175,0,0,0-2.169-.42A5,5,0,0,0,416.739,1143.82Zm3.165,0.27a2.822,2.822,0,0,1,1.055.68,3.564,3.564,0,0,1,.829,1.27,5.459,5.459,0,0,1,.282,1.94,4.673,4.673,0,0,1-.268,1.62,3.491,3.491,0,0,1-.743,1.22,3.234,3.234,0,0,1-1.082.75,3.213,3.213,0,0,1-2.889-.18,3.32,3.32,0,0,1-1.275-1.34,5.159,5.159,0,0,1-.041-4.33,3.364,3.364,0,0,1,1.228-1.38,3.212,3.212,0,0,1,1.684-.47A3.4,3.4,0,0,1,419.9,1144.09Zm0.464-.17a3.678,3.678,0,0,1,2.078,2.11,4.938,4.938,0,0,1,.317,1.84,4.679,4.679,0,0,1-.3,1.72,3.962,3.962,0,0,1-.832,1.31,3.633,3.633,0,0,1-1.2.82,4.07,4.07,0,0,1-1.428.32v-0.06a3.747,3.747,0,0,0,1.534-.46,3.239,3.239,0,0,0,1.037-.95,3.982,3.982,0,0,0,.576-1.26,5.471,5.471,0,0,0,.179-1.42,5.553,5.553,0,0,0-.305-1.95,3.379,3.379,0,0,0-.808-1.28,3.32,3.32,0,0,0-1.079-.71,3.984,3.984,0,0,0-1.146-.26v-0.06A3.882,3.882,0,0,1,420.368,1143.92Zm-3.515.2a3.994,3.994,0,0,0-1.208.93,4.175,4.175,0,0,0-.764,1.31,4.492,4.492,0,0,0-.264,1.53,4.115,4.115,0,0,0,3.8,4.09v0.06a4.184,4.184,0,0,1-2.157-.64,4.373,4.373,0,0,1-1.537-1.56,3.961,3.961,0,0,1-.556-1.99,3.878,3.878,0,0,1,.332-1.58,4.266,4.266,0,0,1,.926-1.35,4.425,4.425,0,0,1,1.375-.94,3.942,3.942,0,0,1,1.605-.35v0.06A4.216,4.216,0,0,0,416.853,1144.12Zm41.6-.3a4.522,4.522,0,0,0-1.513.98,4.4,4.4,0,0,0-.964,1.43,4.229,4.229,0,0,0-.332,1.65,4.286,4.286,0,0,0,.523,1.97,4.4,4.4,0,0,0,1.622,1.69,5.513,5.513,0,0,0,4.664.3,4.437,4.437,0,0,0,2.4-2.42,4.143,4.143,0,0,0,.308-1.57,4.259,4.259,0,0,0-.273-1.45,4.363,4.363,0,0,0-.858-1.43,4.207,4.207,0,0,0-1.5-1.09,5.168,5.168,0,0,0-2.169-.42A5.007,5.007,0,0,0,458.449,1143.82Zm3.165,0.27a2.814,2.814,0,0,1,1.055.68,3.538,3.538,0,0,1,.829,1.27,5.459,5.459,0,0,1,.282,1.94,4.674,4.674,0,0,1-.267,1.62,3.493,3.493,0,0,1-.744,1.22,3.231,3.231,0,0,1-1.081.75,3.213,3.213,0,0,1-2.889-.18,3.32,3.32,0,0,1-1.275-1.34,5.164,5.164,0,0,1-.042-4.33,3.373,3.373,0,0,1,1.229-1.38,3.209,3.209,0,0,1,1.684-.47A3.388,3.388,0,0,1,461.614,1144.09Zm0.465-.17a3.68,3.68,0,0,1,2.077,2.11,4.918,4.918,0,0,1,.318,1.84,4.659,4.659,0,0,1-.306,1.72,3.962,3.962,0,0,1-.832,1.31,3.619,3.619,0,0,1-1.2.82,4.071,4.071,0,0,1-1.429.32v-0.06a3.742,3.742,0,0,0,1.534-.46,3.253,3.253,0,0,0,1.038-.95,4.027,4.027,0,0,0,.576-1.26,6.079,6.079,0,0,0-.127-3.37,3.367,3.367,0,0,0-.808-1.28,3.316,3.316,0,0,0-1.078-.71,3.984,3.984,0,0,0-1.146-.26v-0.06A3.886,3.886,0,0,1,462.079,1143.92Zm-3.515.2a3.994,3.994,0,0,0-1.208.93,4.156,4.156,0,0,0-.764,1.31,4.493,4.493,0,0,0-.265,1.53,4.115,4.115,0,0,0,3.8,4.09v0.06a4.19,4.19,0,0,1-2.157-.64,4.381,4.381,0,0,1-1.537-1.56,3.969,3.969,0,0,1-.555-1.99,3.861,3.861,0,0,1,.332-1.58,4.25,4.25,0,0,1,.926-1.35,4.413,4.413,0,0,1,1.375-.94,3.941,3.941,0,0,1,1.6-.35v0.06A4.211,4.211,0,0,0,458.564,1144.12Zm27.9,7.09a2.92,2.92,0,0,0,.54-1.86v-5.55h0.412v5.57a3.668,3.668,0,0,1-.165,1.15,2.081,2.081,0,0,1-.5.83,2.234,2.234,0,0,1-.838.51,4.087,4.087,0,0,1-1.2.23v-0.08A2.439,2.439,0,0,0,486.461,1151.21Zm-4.935.18a2.1,2.1,0,0,1-.761-1.71v-5.88h0.412v5.67a2.531,2.531,0,0,0,.349,1.37,2.209,2.209,0,0,0,.97.84,3.96,3.96,0,0,0,1.449.33v0.08A4.076,4.076,0,0,1,481.526,1151.39Zm-0.464-.21a2.616,2.616,0,0,0,1.284.82,6.86,6.86,0,0,0,1.922.24,9.21,9.21,0,0,0,1.135-.05,5.145,5.145,0,0,0,.846-0.17,2.565,2.565,0,0,0,.641-0.28,2.594,2.594,0,0,0,.482-0.38,2.021,2.021,0,0,0,.493-0.8,3.465,3.465,0,0,0,.159-1.12v-2.85c0-.4.015-0.9,0.044-1.49a9.274,9.274,0,0,1,.126-1.27l1.2-.19v-0.06h-4.262v0.06l1.546,0.19c0.047,0.32.086,0.78,0.118,1.39s0.047,1.13.047,1.58v2.51a2.464,2.464,0,0,1-.673,1.93,2.689,2.689,0,0,1-1.855.6,3.435,3.435,0,0,1-1.266-.22,1.863,1.863,0,0,1-.923-0.74,2.463,2.463,0,0,1-.35-1.39v-2.4c0-.27.009-0.61,0.027-1.05s0.038-.84.061-1.22,0.055-.71.094-0.99l1.552-.19v-0.06h-4.285v0.06l1.229,0.19q0.141,1.5.141,2.58v3.27A2.326,2.326,0,0,0,481.062,1151.18Zm23.606-.95c-0.035.72-.082,1.27-0.141,1.67l-1.381.2v0.06h4.367v-0.06l-1.464-.2a14.751,14.751,0,0,1-.147-1.81V1149a6.16,6.16,0,0,1,.036-0.7,2.909,2.909,0,0,1,.576-0.04,1.892,1.892,0,0,1,.614.08,1.527,1.527,0,0,1,.461.34,4.509,4.509,0,0,1,.462.57c0.194,0.27.433,0.62,0.717,1.03s0.491,0.71.623,0.89a3.73,3.73,0,0,0,.4.47,1.8,1.8,0,0,0,1.364.52h1.023v-0.06a1.4,1.4,0,0,1-.976-0.49,5.428,5.428,0,0,1-.488-0.59c-0.176-.24-0.409-0.58-0.7-1.01s-0.523-.77-0.7-1.02a4.512,4.512,0,0,0-.47-0.57,1.955,1.955,0,0,0-.664-0.43v-0.02a1.958,1.958,0,0,0,.832-0.3,2.082,2.082,0,0,0,.661-0.7,1.939,1.939,0,0,0,.253-0.99,2.469,2.469,0,0,0-1.161-1.96,3.131,3.131,0,0,0-1.755-.44h-3.861v0.06l1.41,0.21q0.071,0.51.118,1.41c0.031,0.6.047,1.13,0.047,1.6v1.81Q504.721,1149.165,504.668,1150.23Zm1.267-5.29c0.029-.43.061-0.75,0.1-0.98a2.528,2.528,0,0,1,.534-0.04,1.956,1.956,0,0,1,.732.15,2.357,2.357,0,0,1,.676.44,2.182,2.182,0,0,1,.494.7,2.076,2.076,0,0,1,.191.89,2.11,2.11,0,0,1-.2.91,1.537,1.537,0,0,1-.658.67,2.5,2.5,0,0,1-1.214.26,5.113,5.113,0,0,1-.664-0.04c-0.024-.29-0.035-0.61-0.035-0.95v-0.96C505.891,1145.71,505.905,1145.36,505.935,1144.94Zm1.448,3.29,0.024-.04a1.418,1.418,0,0,1,.705.33,3.557,3.557,0,0,1,.617.72l1.023,1.47a2.96,2.96,0,0,0,1.193,1.19v0.06a1.382,1.382,0,0,1-.846-0.29,4.147,4.147,0,0,1-.817-0.93l-1.275-1.84a2.342,2.342,0,0,0-.624-0.67h0Zm-2.092-4.42v8.12h-0.423v-8.12h0.423Zm1.475-.1a2.813,2.813,0,0,1,.9.15,2.713,2.713,0,0,1,.808.45,2.071,2.071,0,0,1,.573.73,2.179,2.179,0,0,1,.211.97,1.851,1.851,0,0,1-.39,1.19,1.742,1.742,0,0,1-.991.65l-0.035-.02a1.765,1.765,0,0,0,1.023-1.69,2.578,2.578,0,0,0-.247-1.07,2.227,2.227,0,0,0-.791-0.91,2.4,2.4,0,0,0-1.349-.39v-0.06h0.288Zm38.643,0.1,2.022,7.1-0.194.57h-0.024l-2.192-7.67h0.388Zm7.752,7.18-0.17.53-2.851-6.29,0.177-.48Zm-5.19-7.41h-4.284v0.06l1.022,0.21a21.025,21.025,0,0,1,.864,2.48l1.111,3.9q0.435,1.56.541,2.16h0.094c0.1-.29.187-0.54,0.267-0.76s0.157-.43.23-0.63,0.155-.41.249-0.64l1.376-3.38q0.034-.12.267-0.66a5.272,5.272,0,0,1,.356-0.73c0.1,0.18.315,0.61,0.652,1.3l1.646,3.67c0.074,0.15.147,0.31,0.217,0.47s0.128,0.31.171,0.42,0.1,0.27.176,0.47,0.132,0.36.171,0.47h0.1c0.047-.25.14-0.63,0.279-1.15s0.295-1.07.467-1.67l1.046-3.6c0.118-.42.237-0.8,0.359-1.15s0.247-.67.376-0.97l1.046-.21v-0.06h-3.456v0.06l1.711,0.19c-0.032.32-.083,0.65-0.153,1.01s-0.153.7-.247,1.01l-0.67,2.36c-0.263.86-.457,1.44-0.582,1.75-0.333-.63-0.609-1.2-0.829-1.7l-1.422-3.11c-0.118-.27-0.247-0.59-0.388-0.95s-0.235-.6-0.282-0.71H550.34q-0.135.51-.67,1.89l-1.011,2.51c-0.211.53-.5,1.17-0.858,1.93-0.188-.48-0.345-0.95-0.47-1.39l-0.564-1.94a14.12,14.12,0,0,1-.327-1.42,7.345,7.345,0,0,1-.144-1.21l1.675-.22v-0.06Zm24.591,0.23v8.12h-0.406v-8.12h0.406Zm-0.735.04q0.064,0.555.1,1.11c0.024,0.37.041,0.73,0.053,1.07s0.018,0.62.018,0.8v1.48q0,0.315-.012.72c-0.008.28-.022,0.62-0.041,1.03s-0.042.78-.068,1.1a7.088,7.088,0,0,1-.085.74l-1.405.2v0.06h6.33l0.13-1.83h-0.083l-0.47,1.41c-0.3.03-.682,0.05-1.128,0.05a6.467,6.467,0,0,1-1.881-.22q-0.046-.39-0.065-0.93c-0.011-.36-0.021-0.82-0.029-1.37a8.375,8.375,0,0,1,.047-1.33,12.155,12.155,0,0,1,1.411-.07c0.411,0,.787.02,1.128,0.05l0.276,1.06h0.1v-2.5h-0.1l-0.264,1a12.992,12.992,0,0,1-1.37.08q-0.252,0-1.181-.06c-0.032-.31-0.047-0.73-0.047-1.23a17.808,17.808,0,0,1,.117-2.17,8.222,8.222,0,0,1,1.828-.16c0.416,0,.79.01,1.123,0.04l0.423,1.42h0.094l-0.147-1.82H570.37v0.06Zm19.013-.21,1.458,0.22a27.293,27.293,0,0,1,.152,3.04v1.54c0,0.44-.019,1.04-0.058,1.81a12.961,12.961,0,0,1-.159,1.65l-1.428.2v0.06h5.413a4.588,4.588,0,0,0,1.725-.31,3.962,3.962,0,0,0,2.251-2.28,4.694,4.694,0,0,0,.309-1.72,4.956,4.956,0,0,0-.238-1.5,3.809,3.809,0,0,0-2.287-2.38,6.056,6.056,0,0,0-2.3-.39H590.84v0.06Zm2.815,2.05c0.016-.37.035-0.69,0.056-0.97s0.044-.49.068-0.63a4.435,4.435,0,0,1,1.2-.15,5.413,5.413,0,0,1,1.569.23,3.9,3.9,0,0,1,1.326.7,3.294,3.294,0,0,1,.908,1.23,4.385,4.385,0,0,1,.329,1.77,4.47,4.47,0,0,1-.312,1.72,3.51,3.51,0,0,1-.826,1.24,3.5,3.5,0,0,1-2.453.98,5.11,5.11,0,0,1-.953-0.08,3.46,3.46,0,0,1-.852-0.25,14.728,14.728,0,0,1-.082-1.54v-3.42C593.632,1146.34,593.64,1146.06,593.655,1145.69Zm-0.623-1.88v8.12h-0.411v-8.12h0.411Zm2.069-.09a4.67,4.67,0,0,1,3.5,1.15,4.063,4.063,0,0,1,.861,1.28,4.2,4.2,0,0,1,.344,1.75,4.441,4.441,0,0,1-.482,2.05,3.632,3.632,0,0,1-1.419,1.5,4.185,4.185,0,0,1-2.219.56h-0.447v-0.05h0.447a3.621,3.621,0,0,0,1.628-.44,3.577,3.577,0,0,0,1.446-1.35,4.2,4.2,0,0,0,.588-2.29,4.642,4.642,0,0,0-.144-1.17,4.255,4.255,0,0,0-.394-1,3.582,3.582,0,0,0-.6-0.8,3.3,3.3,0,0,0-.8-0.58,4.279,4.279,0,0,0-1.14-.4,7.126,7.126,0,0,0-1.531-.15v-0.06H595.1Zm19.636-.08,1.458,0.22a27.293,27.293,0,0,1,.152,3.04v1.54c0,0.44-.019,1.04-0.058,1.81a12.961,12.961,0,0,1-.159,1.65l-1.428.2v0.06h5.413a4.588,4.588,0,0,0,1.725-.31,3.962,3.962,0,0,0,2.251-2.28,4.694,4.694,0,0,0,.309-1.72,4.956,4.956,0,0,0-.238-1.5,3.809,3.809,0,0,0-2.287-2.38,6.056,6.056,0,0,0-2.3-.39h-4.837v0.06Zm2.815,2.05c0.016-.37.035-0.69,0.056-0.97s0.044-.49.068-0.63a4.435,4.435,0,0,1,1.2-.15,5.413,5.413,0,0,1,1.569.23,3.9,3.9,0,0,1,1.326.7,3.294,3.294,0,0,1,.908,1.23,4.385,4.385,0,0,1,.329,1.77,4.47,4.47,0,0,1-.312,1.72,3.51,3.51,0,0,1-.826,1.24,3.5,3.5,0,0,1-2.453.98,5.11,5.11,0,0,1-.953-0.08,3.46,3.46,0,0,1-.852-0.25,14.728,14.728,0,0,1-.082-1.54v-3.42C617.529,1146.34,617.537,1146.06,617.552,1145.69Zm-0.623-1.88v8.12h-0.411v-8.12h0.411Zm2.069-.09a4.67,4.67,0,0,1,3.5,1.15,4.063,4.063,0,0,1,.861,1.28,4.2,4.2,0,0,1,.344,1.75,4.441,4.441,0,0,1-.482,2.05,3.632,3.632,0,0,1-1.419,1.5,4.185,4.185,0,0,1-2.219.56h-0.447v-0.05h0.447a3.621,3.621,0,0,0,1.628-.44,3.577,3.577,0,0,0,1.446-1.35,4.2,4.2,0,0,0,.588-2.29,4.642,4.642,0,0,0-.144-1.17,4.255,4.255,0,0,0-.394-1,3.582,3.582,0,0,0-.6-0.8,3.3,3.3,0,0,0-.8-0.58,4.279,4.279,0,0,0-1.14-.4,7.126,7.126,0,0,0-1.531-.15v-0.06H619Zm21.84,0.09v8.12h-0.411v-8.12h0.411Zm2.239,8.29-1.457-.2c-0.028-.19-0.056-0.47-0.086-0.85s-0.052-.83-0.07-1.37-0.026-.93-0.026-1.17v-1.29q0-.585.023-1.23c0.016-.44.033-0.81,0.053-1.12s0.051-.64.094-1.02l1.469-.21v-0.06h-4.443v0.06l1.458,0.21a24.316,24.316,0,0,1,.176,3.26v0.98c0,0.66-.017,1.34-0.05,2.03s-0.083,1.28-.15,1.77l-1.434.21v0.06h4.443v-0.06Zm14.693-8.24,0.782,0.57c0.031,0.33.053,0.66,0.064,1s0.018,0.67.018,1.01v2.87c0,0.4-.01.87-0.029,1.39a10.1,10.1,0,0,1-.1,1.2l-1.446.2v0.06h3.573v-0.06l-1.493-.21a16.13,16.13,0,0,1-.117-1.78v-3.71a14.524,14.524,0,0,1,.082-1.49c0.376,0.34.831,0.79,1.364,1.36l3.6,3.99q0.882,0.99,1.781,2.13h0.059v-6.42a16.262,16.262,0,0,1,.111-2.1l1.429-.23v-0.06h-3.5v0.06l1.429,0.22a15.388,15.388,0,0,1,.135,2.25v2.53c0,0.21,0,.43-0.012.67s-0.023.48-.047,0.75c-0.31-.29-0.561-0.55-0.755-0.75s-0.466-.5-0.814-0.88l-2.633-2.92c-0.243-.27-0.521-0.59-0.832-0.97s-0.565-.69-0.761-0.96h-2.968v0.06Zm1.17-.06,6.606,7.32v0.55l-7.1-7.87h0.494ZM689,1149.1v2.15l-0.394.14v-2.29H689Zm1.722-.24H686.8v0.07l1.517,0.21a5.017,5.017,0,0,1,.123,1.26,4.829,4.829,0,0,1-.123,1.1c-0.2.03-.385,0.06-0.544,0.08a3.9,3.9,0,0,1-.462.06,3.243,3.243,0,0,1-.434.03,3.921,3.921,0,0,1-2.8-1.17,3.9,3.9,0,0,1-.841-1.26,3.958,3.958,0,0,1-.3-1.52,4.653,4.653,0,0,1,.211-1.39,3.622,3.622,0,0,1,.673-1.24,3.236,3.236,0,0,1,1.22-.89,4.45,4.45,0,0,1,1.787-.33,8.51,8.51,0,0,1,.908.05c0.28,0.03.531,0.06,0.755,0.1s0.409,0.09.558,0.12l0.376,1.31h0.083l-0.083-1.96a8.466,8.466,0,0,1-.964.04c-0.427,0-.879-0.02-1.357-0.05-0.165,0-.3-0.01-0.394-0.01s-0.179-.01-0.244-0.02H686.2a5.012,5.012,0,0,0-1.949.36,4.239,4.239,0,0,0-1.455,1.01,4.489,4.489,0,0,0-.9,1.46,4.877,4.877,0,0,0-.3,1.71,4.385,4.385,0,0,0,.276,1.52,3.976,3.976,0,0,0,2.3,2.33,5.174,5.174,0,0,0,2.039.37,7.351,7.351,0,0,0,1.29-.11,7.845,7.845,0,0,0,1.017-.26c0.284-.09.652-0.22,1.1-0.4q-0.006-.525.041-1.2a10.735,10.735,0,0,1,.124-1.09l0.94-.22v-0.07Zm-4.02-5.2a5.642,5.642,0,0,0-1.9.31,3.874,3.874,0,0,0-1.4.87,3.718,3.718,0,0,0-.849,1.31,4.673,4.673,0,0,0-.291,1.67,4.359,4.359,0,0,0,.255,1.46,3.8,3.8,0,0,0,2.325,2.32,6.149,6.149,0,0,0,2.222.36V1152a5.618,5.618,0,0,1-.706.06,4.98,4.98,0,0,1-2.41-.56,3.9,3.9,0,0,1-1.569-1.48,3.947,3.947,0,0,1-.546-2.03,4.679,4.679,0,0,1,.32-1.74,4.154,4.154,0,0,1,.9-1.42,4.2,4.2,0,0,1,1.387-.92,4.571,4.571,0,0,1,1.755-.33,6.239,6.239,0,0,1,.711.04v0.04H686.7Z" transform="translate(-50.188 -1143.44)" fill="#d35b62" stroke="#d35b62" stroke-width="0"></path>
</svg>