<svg xmlns="http://www.w3.org/2000/svg" width="292.062" height="74.313" viewBox="0 0 292.062 74.313" preserveAspectRatio="none" style="width: 100%; height: 100%;">
  <defs>
    
  </defs>
  <path id="Once_upon_a_time_there_was_a_boy_who_loved_a_girl_and_her_laugh" data-name="Once upon a time there was a boy who loved a girl and her laugh" class="cls-1" d="M285.643,54.34c0.425-2.415.576-3.36-.227-4.335a3.146,3.146,0,0,0-2.477-1.095,4.476,4.476,0,0,0-2.863,1.095c-1.146.975-1.328,1.92-1.753,4.335s-0.576,3.36.227,4.335a3.148,3.148,0,0,0,2.478,1.095,4.475,4.475,0,0,0,2.862-1.095C285.037,57.7,285.218,56.755,285.643,54.34Zm-0.81,0c-0.4,2.295-.609,3.12-1.509,3.885a3.362,3.362,0,0,1-2.17.825,2.367,2.367,0,0,1-1.879-.825c-0.631-.765-0.546-1.59-0.142-3.885s0.609-3.12,1.509-3.885a3.363,3.363,0,0,1,2.17-.825,2.37,2.37,0,0,1,1.88.825C285.322,51.22,285.237,52.045,284.833,54.34Zm8.12,5.34,0.813-4.62a2.372,2.372,0,0,0-.4-2.01,2.254,2.254,0,0,0-1.8-.69,3.212,3.212,0,0,0-2.3.945l0.151-.855h-0.765l-1.273,7.23h0.765l0.79-4.485a2.363,2.363,0,0,1,2.42-2.16c1.29,0,1.86.765,1.614,2.16l-0.789,4.485h0.765Zm8.145-1.02-0.441-.48a2.664,2.664,0,0,1-2.021.915,1.835,1.835,0,0,1-1.751-.96,3.1,3.1,0,0,1-.131-2.07,3.917,3.917,0,0,1,.86-2.07,2.709,2.709,0,0,1,2.089-.96,1.82,1.82,0,0,1,1.7.915l0.61-.48a2.344,2.344,0,0,0-2.19-1.11c-1.965,0-3.428,1.41-3.832,3.7s0.563,3.7,2.528,3.7A3.388,3.388,0,0,0,301.1,58.66Zm8.047-2.43,0.061-.345c0.388-2.2-.475-3.525-2.275-3.525s-3.137,1.38-3.547,3.7c-0.425,2.415.428,3.7,2.423,3.7a3.909,3.909,0,0,0,2.805-1.11l-0.49-.45a3,3,0,0,1-2.148.87c-1.53,0-2.176-1.02-1.854-2.85h5.025Zm-0.657-.615h-4.259a3.831,3.831,0,0,1,.5-1.365,2.479,2.479,0,0,1,2.089-1.215,1.619,1.619,0,0,1,1.661,1.215A3.177,3.177,0,0,1,308.488,55.615Zm11.825,4.065,1.272-7.23H320.82l-0.789,4.485a2.363,2.363,0,0,1-2.42,2.16c-1.29,0-1.86-.765-1.615-2.16l0.789-4.485H316.02l-0.813,4.62a2.372,2.372,0,0,0,.4,2.01,2.251,2.251,0,0,0,1.8.69,3.21,3.21,0,0,0,2.3-.945l-0.15.855h0.765Zm9.156-3.615a3.906,3.906,0,0,0-.389-3.075,2.139,2.139,0,0,0-1.659-.63,2.873,2.873,0,0,0-2.325,1.02l0.164-.93H324.5l-1.879,10.68h0.765l0.77-4.38a1.991,1.991,0,0,0,1.966,1.02A2.964,2.964,0,0,0,328,59.14,5.155,5.155,0,0,0,329.469,56.065Zm-0.765,0c-0.264,1.5-.8,3.03-2.573,3.03s-1.771-1.53-1.507-3.03,0.8-3.03,2.573-3.03S328.968,54.565,328.7,56.065Zm8.655,0a3.57,3.57,0,0,0-.388-2.91,2.323,2.323,0,0,0-1.87-.795,3.281,3.281,0,0,0-2.15.795,4.707,4.707,0,0,0-1.412,2.91,3.566,3.566,0,0,0,.388,2.91,2.323,2.323,0,0,0,1.87.8,3.281,3.281,0,0,0,2.15-.8A4.713,4.713,0,0,0,337.359,56.065Zm-0.765,0a3.948,3.948,0,0,1-1.07,2.415,2.49,2.49,0,0,1-1.608.615,1.75,1.75,0,0,1-1.392-.615,3.076,3.076,0,0,1-.22-2.415,3.943,3.943,0,0,1,1.07-2.415,2.488,2.488,0,0,1,1.608-.615,1.752,1.752,0,0,1,1.392.615A3.08,3.08,0,0,1,336.594,56.065Zm8.183,3.615,0.813-4.62a2.372,2.372,0,0,0-.4-2.01,2.252,2.252,0,0,0-1.8-.69,3.212,3.212,0,0,0-2.3.945l0.151-.855h-0.765l-1.272,7.23h0.764l0.79-4.485a2.363,2.363,0,0,1,2.42-2.16c1.29,0,1.86.765,1.615,2.16l-0.79,4.485h0.765Zm11.655,0,0.871-4.95c0.267-1.515-.483-2.37-2.388-2.37a3.272,3.272,0,0,0-2.745,1.11l0.471,0.48a2.471,2.471,0,0,1,2.156-.915c1.469,0,1.931.615,1.728,1.77l-0.143.81h-2.339a2.618,2.618,0,0,0-2.887,2.085,1.807,1.807,0,0,0,.277,1.41,2.3,2.3,0,0,0,2.013.66,3.158,3.158,0,0,0,2.348-.81l-0.127.72h0.765Zm-0.321-2.52a2.2,2.2,0,0,1-.648,1.38,2.735,2.735,0,0,1-1.9.555c-1.305,0-1.811-.45-1.642-1.41s0.856-1.455,2.1-1.455h2.25Zm9.576,2.52L365.806,59h-0.525a0.86,0.86,0,0,1-.9-1.2l0.842-4.785h1.635l0.1-.57h-1.635l0.407-2.31h-0.765l-0.407,2.31h-0.99l-0.1.57h0.99l-0.84,4.77a1.4,1.4,0,0,0,1.408,1.89h0.66Zm4.863-9.735L370.716,49h-0.945l-0.166.945h0.945Zm-1.8,9.735,1.272-7.23h-0.765l-1.272,7.23h0.765Zm13.259,0,0.813-4.62a2.372,2.372,0,0,0-.4-2.01,2.271,2.271,0,0,0-1.783-.69,3.39,3.39,0,0,0-2.693,1.32,2,2,0,0,0-2.092-1.32,3.277,3.277,0,0,0-2.311.945l0.15-.855h-0.765l-1.272,7.23h0.765l0.789-4.485a2.363,2.363,0,0,1,2.42-2.16c1.29,0,1.86.765,1.615,2.16l-0.789,4.485h0.765l0.813-4.62a2.346,2.346,0,0,1,2.4-2.025c1.29,0,1.86.765,1.615,2.16l-0.79,4.485h0.75Zm8.8-3.45,0.06-.345c0.388-2.2-.474-3.525-2.274-3.525s-3.138,1.38-3.547,3.7c-0.425,2.415.428,3.7,2.423,3.7a3.909,3.909,0,0,0,2.805-1.11l-0.491-.45a3,3,0,0,1-2.148.87c-1.53,0-2.175-1.02-1.853-2.85H390.8Zm-0.657-.615h-4.26a3.831,3.831,0,0,1,.5-1.365,2.479,2.479,0,0,1,2.089-1.215,1.618,1.618,0,0,1,1.661,1.215A3.174,3.174,0,0,1,390.147,55.615Zm8.929,4.065L399.2,59H398.67a0.86,0.86,0,0,1-.9-1.2l0.842-4.785h1.635l0.1-.57h-1.635l0.406-2.31h-0.765l-0.406,2.31h-0.99l-0.1.57h0.99l-0.839,4.77a1.4,1.4,0,0,0,1.407,1.89h0.66Zm7.86,0,0.813-4.62a2.057,2.057,0,0,0-2.2-2.7,3.21,3.21,0,0,0-2.3.945l0.758-4.3h-0.765l-1.88,10.68h0.765l0.79-4.485a2.363,2.363,0,0,1,2.42-2.16c1.29,0,1.86.765,1.614,2.16l-0.789,4.485h0.765Zm8.8-3.45,0.061-.345c0.388-2.2-.475-3.525-2.275-3.525s-3.137,1.38-3.547,3.7c-0.425,2.415.428,3.7,2.423,3.7a3.909,3.909,0,0,0,2.805-1.11l-0.49-.45a3,3,0,0,1-2.148.87c-1.53,0-2.176-1.02-1.854-2.85h5.025Zm-0.657-.615h-4.259a3.831,3.831,0,0,1,.5-1.365,2.478,2.478,0,0,1,2.088-1.215,1.619,1.619,0,0,1,1.662,1.215A3.177,3.177,0,0,1,415.076,55.615Zm8.312-2.565a1.9,1.9,0,0,0-1.619-.69,3,3,0,0,0-2.3,1.05l0.169-.96h-0.765L417.6,59.68h0.765l0.784-4.455a2.462,2.462,0,0,1,2.32-2.19,1.386,1.386,0,0,1,1.265.57Zm6.325,3.18,0.061-.345c0.388-2.2-.475-3.525-2.275-3.525-1.815,0-3.138,1.38-3.547,3.7-0.425,2.415.428,3.7,2.423,3.7a3.909,3.909,0,0,0,2.805-1.11l-0.49-.45a3.006,3.006,0,0,1-2.148.87c-1.53,0-2.176-1.02-1.854-2.85h5.025Zm-0.657-.615H424.8a3.83,3.83,0,0,1,.5-1.365,2.477,2.477,0,0,1,2.088-1.215,1.618,1.618,0,0,1,1.661,1.215A3.158,3.158,0,0,1,429.056,55.615Zm16.637-3.165h-0.84l-2.959,6.33-0.956-6.33h-0.75L437,58.78l-0.731-6.33h-0.84l1.038,7.23h0.78l3.1-6.03,0.979,6.03h0.78Zm5.4,7.23,0.872-4.95c0.266-1.515-.483-2.37-2.388-2.37a3.271,3.271,0,0,0-2.745,1.11l0.47,0.48a2.471,2.471,0,0,1,2.156-.915c1.47,0,1.932.615,1.728,1.77l-0.142.81h-2.34a2.618,2.618,0,0,0-2.887,2.085,1.811,1.811,0,0,0,.277,1.41,2.3,2.3,0,0,0,2.014.66,3.155,3.155,0,0,0,2.347-.81l-0.126.72H451.1Zm-0.321-2.52a2.2,2.2,0,0,1-.648,1.38,2.733,2.733,0,0,1-1.9.555c-1.305,0-1.811-.45-1.642-1.41s0.856-1.455,2.1-1.455h2.25Zm8.648,0.465c0.248-1.41-.6-1.785-1.782-1.89l-1.152-.1c-1-.09-1.388-0.465-1.256-1.215a1.842,1.842,0,0,1,2.09-1.4,2.89,2.89,0,0,1,1.917.615l0.6-.51a3.66,3.66,0,0,0-2.4-.765,2.73,2.73,0,0,0-2.957,2.055c-0.2,1.125.409,1.77,1.842,1.89l1.182,0.1c0.929,0.09,1.3.465,1.166,1.215-0.172.975-1.024,1.47-2.434,1.47a2.589,2.589,0,0,1-2.214-.885l-0.617.525a3.366,3.366,0,0,0,2.743,1.035C457.919,59.77,459.19,58.945,459.422,57.625ZM470.19,59.68l0.871-4.95c0.267-1.515-.483-2.37-2.388-2.37a3.271,3.271,0,0,0-2.745,1.11l0.471,0.48a2.471,2.471,0,0,1,2.156-.915c1.469,0,1.931.615,1.728,1.77l-0.143.81H467.8a2.617,2.617,0,0,0-2.886,2.085,1.811,1.811,0,0,0,.276,1.41,2.3,2.3,0,0,0,2.014.66,3.159,3.159,0,0,0,2.348-.81l-0.127.72h0.765Zm-0.322-2.52a2.2,2.2,0,0,1-.647,1.38,2.735,2.735,0,0,1-1.9.555c-1.305,0-1.811-.45-1.642-1.41s0.856-1.455,2.1-1.455h2.25Zm13.243-1.095a3.906,3.906,0,0,0-.389-3.075,2.139,2.139,0,0,0-1.659-.63,2.873,2.873,0,0,0-2.325,1.02L479.509,49h-0.765l-1.879,10.68h0.765l0.163-.93a1.991,1.991,0,0,0,1.966,1.02,2.964,2.964,0,0,0,1.881-.63A5.155,5.155,0,0,0,483.111,56.065Zm-0.765,0c-0.264,1.5-.8,3.03-2.573,3.03s-1.771-1.53-1.507-3.03,0.8-3.03,2.573-3.03S482.61,54.565,482.346,56.065Zm8.655,0a3.57,3.57,0,0,0-.388-2.91,2.323,2.323,0,0,0-1.87-.795,3.281,3.281,0,0,0-2.15.795,4.707,4.707,0,0,0-1.412,2.91,3.566,3.566,0,0,0,.388,2.91,2.323,2.323,0,0,0,1.87.8,3.281,3.281,0,0,0,2.15-.8A4.713,4.713,0,0,0,491,56.065Zm-0.765,0a3.948,3.948,0,0,1-1.07,2.415,2.49,2.49,0,0,1-1.608.615,1.75,1.75,0,0,1-1.392-.615,3.076,3.076,0,0,1-.22-2.415,3.943,3.943,0,0,1,1.07-2.415,2.488,2.488,0,0,1,1.608-.615,1.752,1.752,0,0,1,1.392.615A3.08,3.08,0,0,1,490.236,56.065Zm8.676-3.615h-0.84l-3.289,6.33-1.061-6.33h-0.84l1.367,7.23-0.867,1.6a1.436,1.436,0,0,1-1.494.99H491.6l-0.119.675h0.36a2.286,2.286,0,0,0,1.447-.465,2.38,2.38,0,0,0,.643-0.84ZM347.2,72.45h-0.84L343.4,78.78l-0.956-6.33h-0.75l-3.184,6.33-0.731-6.33h-0.84l1.037,7.23h0.78l3.1-6.03,0.978,6.03h0.78Zm5.957,7.23,0.813-4.62a2.057,2.057,0,0,0-2.195-2.7,3.212,3.212,0,0,0-2.3.945l0.758-4.3h-0.765l-1.88,10.68h0.765l0.79-4.485a2.363,2.363,0,0,1,2.42-2.16c1.29,0,1.86.765,1.614,2.16l-0.789,4.485h0.765Zm8.856-3.615a3.566,3.566,0,0,0-.388-2.91,2.323,2.323,0,0,0-1.87-.795,3.276,3.276,0,0,0-2.149.795,4.714,4.714,0,0,0-1.413,2.91,3.57,3.57,0,0,0,.388,2.91,2.324,2.324,0,0,0,1.87.8,3.281,3.281,0,0,0,2.15-.8A4.707,4.707,0,0,0,362.01,76.065Zm-0.765,0a3.943,3.943,0,0,1-1.07,2.415,2.488,2.488,0,0,1-1.608.615,1.752,1.752,0,0,1-1.392-.615,3.084,3.084,0,0,1-.22-2.415,3.948,3.948,0,0,1,1.07-2.415,2.493,2.493,0,0,1,1.609-.615,1.748,1.748,0,0,1,1.391.615A3.076,3.076,0,0,1,361.245,76.065Zm8.814,3.615L370.178,79h-0.525c-0.855,0-1.039-.405-0.9-1.215L370.3,69h-0.765l-1.549,8.8c-0.2,1.125.24,1.875,1.41,1.875h0.66Zm7.971-3.615a3.57,3.57,0,0,0-.388-2.91,2.323,2.323,0,0,0-1.87-.795,3.281,3.281,0,0,0-2.15.795,4.707,4.707,0,0,0-1.412,2.91,3.566,3.566,0,0,0,.388,2.91,2.323,2.323,0,0,0,1.87.8,3.281,3.281,0,0,0,2.15-.8A4.713,4.713,0,0,0,378.03,76.065Zm-0.765,0a3.948,3.948,0,0,1-1.07,2.415,2.49,2.49,0,0,1-1.608.615,1.75,1.75,0,0,1-1.392-.615,3.076,3.076,0,0,1-.22-2.415,3.943,3.943,0,0,1,1.07-2.415,2.488,2.488,0,0,1,1.608-.615,1.752,1.752,0,0,1,1.392.615A3.08,3.08,0,0,1,377.265,76.065Zm8.676-3.615H385.1l-3.289,6.33-1.061-6.33h-0.84l1.367,7.23h0.75Zm6.369,3.78,0.061-.345c0.388-2.2-.475-3.525-2.275-3.525s-3.137,1.38-3.546,3.7c-0.425,2.415.427,3.7,2.422,3.7a3.913,3.913,0,0,0,2.806-1.11l-0.491-.45a3,3,0,0,1-2.148.87c-1.53,0-2.176-1.02-1.854-2.85h5.025Zm-0.656-.615h-4.26a3.831,3.831,0,0,1,.5-1.365,2.479,2.479,0,0,1,2.089-1.215,1.618,1.618,0,0,1,1.661,1.215A3.174,3.174,0,0,1,391.654,75.615Zm7.714,4.065L401.248,69h-0.765l-0.771,4.38a1.99,1.99,0,0,0-1.966-1.02,2.961,2.961,0,0,0-1.88.63,5.15,5.15,0,0,0-1.472,3.075,3.91,3.91,0,0,0,.389,3.075,2.139,2.139,0,0,0,1.659.63,2.874,2.874,0,0,0,2.325-1.02l-0.164.93h0.765Zm-0.129-3.615c-0.264,1.5-.8,3.03-2.573,3.03s-1.771-1.53-1.507-3.03,0.8-3.03,2.574-3.03S399.5,74.565,399.239,76.065Zm11.874,3.615,0.871-4.95c0.267-1.515-.483-2.37-2.388-2.37a3.271,3.271,0,0,0-2.745,1.11l0.47,0.48a2.473,2.473,0,0,1,2.156-.915c1.47,0,1.932.615,1.729,1.77l-0.143.81h-2.34a2.617,2.617,0,0,0-2.886,2.085,1.807,1.807,0,0,0,.276,1.41,2.3,2.3,0,0,0,2.014.66,3.159,3.159,0,0,0,2.348-.81l-0.127.72h0.765Zm-0.322-2.52a2.195,2.195,0,0,1-.648,1.38,2.733,2.733,0,0,1-1.9.555c-1.305,0-1.811-.45-1.642-1.41s0.856-1.455,2.1-1.455h2.25Zm12.115,2.925,1.344-7.635h-0.765l-0.164.93a1.989,1.989,0,0,0-1.965-1.02,2.964,2.964,0,0,0-1.881.63A5.149,5.149,0,0,0,418,76.065a3.9,3.9,0,0,0,.389,3.075,2.139,2.139,0,0,0,1.659.63,2.872,2.872,0,0,0,2.324-1.02l-0.227,1.29a2.667,2.667,0,0,1-2.631,2.5,2,2,0,0,1-1.735-.795l-0.6.51a2.6,2.6,0,0,0,2.216.96A3.533,3.533,0,0,0,422.906,80.085Zm-0.057-4.02c-0.264,1.5-.8,3.03-2.573,3.03s-1.771-1.53-1.507-3.03,0.8-3.03,2.573-3.03S423.113,74.565,422.849,76.065Zm5.607-6.12L428.622,69h-0.945l-0.166.945h0.945Zm-1.8,9.735,1.272-7.23H427.16l-1.272,7.23h0.765Zm8.7-6.63a1.9,1.9,0,0,0-1.618-.69,3,3,0,0,0-2.3,1.05l0.169-.96h-0.765l-1.273,7.23h0.765l0.784-4.455a2.463,2.463,0,0,1,2.321-2.19,1.384,1.384,0,0,1,1.264.57Zm2.718,6.63L438.186,79h-0.525c-0.855,0-1.039-.405-0.9-1.215L438.312,69h-0.765L436,77.8c-0.2,1.125.24,1.875,1.41,1.875h0.66Zm-152.561,20,0.871-4.95c0.266-1.515-.483-2.37-2.388-2.37a3.271,3.271,0,0,0-2.745,1.11l0.47,0.48a2.471,2.471,0,0,1,2.156-.915c1.47,0,1.932.615,1.729,1.77l-0.143.81h-2.34a2.618,2.618,0,0,0-2.887,2.085,1.811,1.811,0,0,0,.277,1.41,2.3,2.3,0,0,0,2.014.66,3.155,3.155,0,0,0,2.347-.81l-0.126.72h0.765Zm-0.322-2.52a2.2,2.2,0,0,1-.648,1.38,2.733,2.733,0,0,1-1.9.555c-1.305,0-1.811-.45-1.642-1.41s0.856-1.455,2.1-1.455h2.25Zm8.737,2.52,0.813-4.62a2.376,2.376,0,0,0-.4-2.01,2.251,2.251,0,0,0-1.8-.69,3.208,3.208,0,0,0-2.3.945l0.15-.855h-0.765l-1.272,7.23h0.765L289.91,95.2a2.363,2.363,0,0,1,2.42-2.16c1.29,0,1.86.765,1.615,2.16l-0.789,4.485h0.765Zm8.009,0L303.81,89h-0.765l-0.771,4.38a1.989,1.989,0,0,0-1.965-1.02,2.964,2.964,0,0,0-1.881.63,5.149,5.149,0,0,0-1.471,3.075,3.9,3.9,0,0,0,.389,3.075,2.139,2.139,0,0,0,1.659.63,2.872,2.872,0,0,0,2.324-1.02l-0.164.93h0.765ZM301.8,96.065c-0.264,1.5-.8,3.03-2.574,3.03s-1.77-1.53-1.506-3.03,0.8-3.03,2.573-3.03S302.066,94.565,301.8,96.065ZM314.23,99.68l0.813-4.62a2.057,2.057,0,0,0-2.195-2.7,3.21,3.21,0,0,0-2.3.945L311.31,89h-0.765l-1.88,10.68h0.765l0.79-4.485a2.363,2.363,0,0,1,2.42-2.16c1.29,0,1.86.765,1.614,2.16l-0.789,4.485h0.765Zm8.8-3.45,0.061-.345c0.388-2.2-.475-3.525-2.275-3.525s-3.137,1.38-3.547,3.7c-0.425,2.415.428,3.7,2.423,3.7a3.913,3.913,0,0,0,2.806-1.11L322,98.21a3,3,0,0,1-2.148.87c-1.53,0-2.176-1.02-1.854-2.85h5.025Zm-0.657-.615h-4.259a3.831,3.831,0,0,1,.5-1.365,2.479,2.479,0,0,1,2.089-1.215,1.618,1.618,0,0,1,1.661,1.215A3.177,3.177,0,0,1,322.37,95.615Zm8.312-2.565a1.9,1.9,0,0,0-1.619-.69,3,3,0,0,0-2.3,1.05l0.168-.96h-0.764L324.9,99.68h0.765l0.784-4.455a2.463,2.463,0,0,1,2.32-2.19,1.386,1.386,0,0,1,1.265.57Zm6.543,6.63L337.344,99h-0.525c-0.855,0-1.039-.405-0.9-1.215L337.469,89H336.7l-1.549,8.8c-0.2,1.125.24,1.875,1.41,1.875h0.66Zm6.945,0,0.871-4.95c0.266-1.515-.483-2.37-2.388-2.37a3.271,3.271,0,0,0-2.745,1.11l0.47,0.48a2.471,2.471,0,0,1,2.156-.915c1.47,0,1.932.615,1.728,1.77l-0.142.81h-2.34a2.618,2.618,0,0,0-2.887,2.085,1.811,1.811,0,0,0,.277,1.41,2.3,2.3,0,0,0,2.014.66,3.155,3.155,0,0,0,2.347-.81l-0.126.72h0.765Zm-0.322-2.52a2.2,2.2,0,0,1-.648,1.38,2.733,2.733,0,0,1-1.9.555c-1.305,0-1.811-.45-1.642-1.41s0.856-1.455,2.1-1.455h2.25Zm8.646,2.52,1.273-7.23H353l-0.79,4.485a2.363,2.363,0,0,1-2.42,2.16c-1.29,0-1.86-.765-1.614-2.16l0.789-4.485H348.2l-0.813,4.62a2.372,2.372,0,0,0,.4,2.01,2.254,2.254,0,0,0,1.8.69,3.21,3.21,0,0,0,2.3-.945l-0.151.855h0.765Zm8.029,0.405,1.344-7.635H361.1l-0.164.93a1.989,1.989,0,0,0-1.965-1.02,2.964,2.964,0,0,0-1.881.63,5.143,5.143,0,0,0-1.471,3.075,3.906,3.906,0,0,0,.388,3.075,2.14,2.14,0,0,0,1.659.63,2.874,2.874,0,0,0,2.325-1.02l-0.227,1.29a2.667,2.667,0,0,1-2.631,2.5,2,2,0,0,1-1.735-.8l-0.6.51a2.6,2.6,0,0,0,2.216.96A3.534,3.534,0,0,0,360.523,100.085Zm-0.058-4.02c-0.264,1.5-.8,3.03-2.573,3.03s-1.77-1.53-1.506-3.03,0.8-3.03,2.573-3.03S360.729,94.565,360.465,96.065Zm8.6,3.615,0.813-4.62a2.057,2.057,0,0,0-2.195-2.7,3.21,3.21,0,0,0-2.3.945l0.758-4.3h-0.765L363.5,99.68h0.765l0.79-4.485a2.363,2.363,0,0,1,2.42-2.16c1.29,0,1.86.765,1.614,2.16L368.3,99.68h0.765Zm5.4,0L374.588,99h-0.525a0.86,0.86,0,0,1-.9-1.2l0.842-4.785h1.635l0.1-.57h-1.635l0.407-2.31h-0.765l-0.406,2.31h-0.99l-0.1.57h0.99L372.4,97.79a1.4,1.4,0,0,0,1.407,1.89h0.66Zm8.272-3.45,0.061-.345c0.388-2.2-.475-3.525-2.275-3.525s-3.138,1.38-3.547,3.7c-0.425,2.415.428,3.7,2.423,3.7a3.909,3.909,0,0,0,2.805-1.11l-0.49-.45a3,3,0,0,1-2.148.87c-1.53,0-2.176-1.02-1.854-2.85h5.025Zm-0.657-.615h-4.26a3.849,3.849,0,0,1,.5-1.365,2.477,2.477,0,0,1,2.088-1.215,1.619,1.619,0,0,1,1.662,1.215A3.177,3.177,0,0,1,382.084,95.615ZM390.4,93.05a1.9,1.9,0,0,0-1.619-.69,3,3,0,0,0-2.3,1.05l0.169-.96h-0.765l-1.272,7.23h0.765l0.784-4.455a2.462,2.462,0,0,1,2.32-2.19,1.386,1.386,0,0,1,1.265.57Zm14.46-.6h-0.84l-2.959,6.33L400.1,92.45h-0.75l-3.184,6.33-0.731-6.33H394.6l1.038,7.23h0.78l3.1-6.03,0.979,6.03h0.78Zm5.4,7.23,0.872-4.95c0.266-1.515-.483-2.37-2.388-2.37A3.271,3.271,0,0,0,406,93.47l0.47,0.48a2.471,2.471,0,0,1,2.156-.915c1.47,0,1.932.615,1.728,1.77l-0.142.81h-2.34a2.618,2.618,0,0,0-2.887,2.085,1.811,1.811,0,0,0,.277,1.41,2.3,2.3,0,0,0,2.014.66,3.155,3.155,0,0,0,2.347-.81l-0.126.72h0.764Zm-0.321-2.52a2.2,2.2,0,0,1-.648,1.38,2.733,2.733,0,0,1-1.9.555c-1.305,0-1.811-.45-1.642-1.41s0.856-1.455,2.1-1.455h2.25Zm8.648,0.465c0.248-1.41-.6-1.785-1.782-1.89l-1.152-.105c-1-.09-1.388-0.465-1.256-1.215a1.842,1.842,0,0,1,2.09-1.395,2.89,2.89,0,0,1,1.917.615l0.6-.51a3.66,3.66,0,0,0-2.4-.765,2.73,2.73,0,0,0-2.957,2.055c-0.2,1.125.409,1.77,1.842,1.89l1.182,0.1c0.929,0.09,1.3.465,1.166,1.215-0.172.975-1.024,1.47-2.434,1.47a2.589,2.589,0,0,1-2.214-.885l-0.617.525a3.366,3.366,0,0,0,2.743,1.035C417.082,99.77,418.353,98.945,418.585,97.625Zm10.768,2.055,0.871-4.95c0.267-1.515-.483-2.37-2.388-2.37a3.271,3.271,0,0,0-2.745,1.11l0.471,0.48a2.471,2.471,0,0,1,2.155-.915c1.47,0,1.932.615,1.729,1.77l-0.143.81h-2.34a2.617,2.617,0,0,0-2.886,2.085,1.811,1.811,0,0,0,.276,1.41,2.3,2.3,0,0,0,2.014.66,3.159,3.159,0,0,0,2.348-.81l-0.127.72h0.765Zm-0.322-2.52a2.2,2.2,0,0,1-.647,1.38,2.735,2.735,0,0,1-1.9.555c-1.305,0-1.811-.45-1.642-1.41s0.856-1.455,2.1-1.455h2.25Zm15.4,5.97,1.88-10.68H445.55l-0.164.93a1.989,1.989,0,0,0-1.965-1.02,2.964,2.964,0,0,0-1.881.63,5.149,5.149,0,0,0-1.471,3.075,3.9,3.9,0,0,0,.389,3.075,2.139,2.139,0,0,0,1.659.63,2.872,2.872,0,0,0,2.324-1.02l-0.771,4.38h0.765Zm0.479-7.065c-0.264,1.5-.8,3.03-2.574,3.03s-1.77-1.53-1.506-3.03,0.8-3.03,2.573-3.03S445.178,94.565,444.914,96.065Zm8.513,3.615,1.273-7.23h-0.765l-0.79,4.485a2.363,2.363,0,0,1-2.42,2.16c-1.29,0-1.86-.765-1.614-2.16L449.9,92.45h-0.765l-0.813,4.62a2.372,2.372,0,0,0,.4,2.01,2.254,2.254,0,0,0,1.8.69,3.21,3.21,0,0,0,2.3-.945l-0.151.855h0.765Zm8.887-3.45,0.061-.345c0.388-2.2-.475-3.525-2.274-3.525-1.815,0-3.138,1.38-3.547,3.7-0.425,2.415.428,3.7,2.422,3.7a3.913,3.913,0,0,0,2.806-1.11l-0.491-.45a3,3,0,0,1-2.148.87c-1.53,0-2.176-1.02-1.853-2.85h5.024Zm-0.656-.615H457.4a3.831,3.831,0,0,1,.495-1.365,2.479,2.479,0,0,1,2.089-1.215,1.618,1.618,0,0,1,1.661,1.215A3.174,3.174,0,0,1,461.658,95.615Zm8,2.01c0.248-1.41-.6-1.785-1.783-1.89l-1.151-.105c-1-.09-1.388-0.465-1.256-1.215a1.841,1.841,0,0,1,2.09-1.395,2.89,2.89,0,0,1,1.917.615l0.6-.51a3.663,3.663,0,0,0-2.4-.765,2.73,2.73,0,0,0-2.956,2.055c-0.2,1.125.408,1.77,1.842,1.89l1.182,0.1c0.929,0.09,1.3.465,1.166,1.215-0.172.975-1.024,1.47-2.434,1.47a2.588,2.588,0,0,1-2.214-.885l-0.617.525a3.364,3.364,0,0,0,2.742,1.035C468.156,99.77,469.427,98.945,469.659,97.625Zm4.513,2.055L474.291,99h-0.525a0.86,0.86,0,0,1-.9-1.2l0.842-4.785h1.635l0.1-.57H473.81l0.406-2.31h-0.765l-0.406,2.31h-0.99l-0.1.57h0.99l-0.839,4.77a1.4,1.4,0,0,0,1.407,1.89h0.66Zm4.863-9.735L479.2,89h-0.945l-0.167.945h0.945Zm-1.8,9.735,1.272-7.23H477.74l-1.273,7.23h0.765Zm8.946-3.615a3.566,3.566,0,0,0-.388-2.91,2.323,2.323,0,0,0-1.87-.795,3.281,3.281,0,0,0-2.15.795,4.713,4.713,0,0,0-1.412,2.91,3.57,3.57,0,0,0,.388,2.91,2.323,2.323,0,0,0,1.87.8,3.281,3.281,0,0,0,2.15-.8A4.707,4.707,0,0,0,486.178,96.065Zm-0.765,0a3.943,3.943,0,0,1-1.07,2.415,2.49,2.49,0,0,1-1.608.615,1.752,1.752,0,0,1-1.392-.615,3.08,3.08,0,0,1-.22-2.415,3.948,3.948,0,0,1,1.07-2.415,2.49,2.49,0,0,1,1.608-.615,1.75,1.75,0,0,1,1.392.615A3.076,3.076,0,0,1,485.413,96.065ZM493.6,99.68l0.813-4.62a2.372,2.372,0,0,0-.4-2.01,2.251,2.251,0,0,0-1.8-.69,3.21,3.21,0,0,0-2.3.945l0.15-.855H489.3l-1.272,7.23H488.8l0.789-4.485a2.363,2.363,0,0,1,2.42-2.16c1.29,0,1.86.765,1.615,2.16l-0.789,4.485H493.6Zm-246.948,20,0.813-4.62a2.057,2.057,0,0,0-2.195-2.7,3.21,3.21,0,0,0-2.3.945L243.729,109h-0.765l-1.88,10.68h0.765l0.789-4.485a2.364,2.364,0,0,1,2.42-2.16c1.29,0,1.861.765,1.615,2.16l-0.789,4.485h0.765Zm8.8-3.45,0.061-.345c0.388-2.2-.475-3.525-2.275-3.525s-3.138,1.38-3.547,3.7c-0.425,2.415.428,3.7,2.423,3.7a3.909,3.909,0,0,0,2.805-1.11l-0.491-.45a3,3,0,0,1-2.148.87c-1.53,0-2.175-1.02-1.853-2.85h5.025Zm-0.657-.615h-4.26a3.831,3.831,0,0,1,.5-1.365,2.476,2.476,0,0,1,2.088-1.215,1.618,1.618,0,0,1,1.661,1.215A3.159,3.159,0,0,1,254.789,115.615Zm16.637-3.165h-0.84l-2.959,6.33-0.956-6.33h-0.75l-3.184,6.33-0.731-6.33h-0.84l1.038,7.23h0.78l3.1-6.03,0.978,6.03h0.78Zm5.4,7.23,0.871-4.95c0.267-1.515-.482-2.37-2.387-2.37a3.274,3.274,0,0,0-2.746,1.11l0.471,0.48a2.471,2.471,0,0,1,2.156-.915c1.47,0,1.932.615,1.728,1.77l-0.142.81h-2.34a2.618,2.618,0,0,0-2.887,2.085,1.811,1.811,0,0,0,.277,1.41,2.3,2.3,0,0,0,2.014.66,3.155,3.155,0,0,0,2.347-.81l-0.127.72h0.765Zm-0.321-2.52a2.2,2.2,0,0,1-.648,1.38,2.735,2.735,0,0,1-1.9.555c-1.305,0-1.81-.45-1.641-1.41s0.856-1.455,2.1-1.455h2.25Zm8.736,2.52,0.813-4.62a2.372,2.372,0,0,0-.4-2.01,2.254,2.254,0,0,0-1.8-.69,3.212,3.212,0,0,0-2.3.945l0.151-.855h-0.765l-1.273,7.23h0.765l0.79-4.485a2.363,2.363,0,0,1,2.42-2.16c1.29,0,1.86.765,1.614,2.16l-0.789,4.485h0.765Zm5.4,0,0.119-.675h-0.525a0.86,0.86,0,0,1-.9-1.2l0.842-4.785h1.635l0.1-.57h-1.634l0.406-2.31h-0.765l-0.406,2.31h-0.99l-0.1.57h0.99l-0.839,4.77a1.4,1.4,0,0,0,1.407,1.89h0.66Zm8.272-3.45,0.061-.345c0.388-2.2-.475-3.525-2.275-3.525-1.815,0-3.137,1.38-3.547,3.7-0.425,2.415.428,3.7,2.423,3.7a3.909,3.909,0,0,0,2.805-1.11l-0.49-.45a3,3,0,0,1-2.148.87c-1.53,0-2.176-1.02-1.854-2.85h5.025Zm-0.657-.615H294a3.831,3.831,0,0,1,.5-1.365,2.479,2.479,0,0,1,2.089-1.215,1.619,1.619,0,0,1,1.661,1.215A3.177,3.177,0,0,1,298.258,115.615Zm7.715,4.065L307.852,109h-0.765l-0.77,4.38a1.991,1.991,0,0,0-1.966-1.02,2.964,2.964,0,0,0-1.881.63A5.155,5.155,0,0,0,301,116.065a3.911,3.911,0,0,0,.389,3.075,2.139,2.139,0,0,0,1.659.63,2.874,2.874,0,0,0,2.325-1.02l-0.164.93h0.765Zm-0.129-3.615c-0.264,1.5-.8,3.03-2.573,3.03s-1.771-1.53-1.507-3.03,0.8-3.03,2.573-3.03S306.108,114.565,305.844,116.065Zm9.444,3.615,0.119-.675h-0.525a0.86,0.86,0,0,1-.9-1.2l0.842-4.785h1.635l0.1-.57h-1.635l0.407-2.31h-0.765l-0.407,2.31h-0.99l-0.1.57h0.99l-0.84,4.77a1.4,1.4,0,0,0,1.408,1.89h0.66Zm8.331-3.615a3.57,3.57,0,0,0-.388-2.91,2.323,2.323,0,0,0-1.87-.8,3.281,3.281,0,0,0-2.15.8,4.708,4.708,0,0,0-1.412,2.91,3.57,3.57,0,0,0,.388,2.91,2.323,2.323,0,0,0,1.87.8,3.281,3.281,0,0,0,2.15-.8A4.713,4.713,0,0,0,323.619,116.065Zm-0.765,0a3.949,3.949,0,0,1-1.07,2.415,2.49,2.49,0,0,1-1.608.615,1.75,1.75,0,0,1-1.392-.615,3.08,3.08,0,0,1-.22-2.415,3.943,3.943,0,0,1,1.07-2.415,2.49,2.49,0,0,1,1.608-.615,1.752,1.752,0,0,1,1.392.615A3.08,3.08,0,0,1,322.854,116.065Zm11.92,1.56c0.248-1.41-.6-1.785-1.782-1.89l-1.152-.105c-1-.09-1.388-0.465-1.256-1.215a1.841,1.841,0,0,1,2.09-1.4,2.89,2.89,0,0,1,1.917.615l0.6-.51a3.66,3.66,0,0,0-2.4-.765,2.73,2.73,0,0,0-2.957,2.055c-0.2,1.125.408,1.77,1.842,1.89l1.182,0.1c0.929,0.09,1.3.465,1.166,1.215-0.172.975-1.024,1.47-2.434,1.47a2.589,2.589,0,0,1-2.214-.885l-0.617.525a3.366,3.366,0,0,0,2.743,1.035C333.271,119.77,334.542,118.945,334.774,117.625Zm8.179-1.56a3.9,3.9,0,0,0-.389-3.075,2.139,2.139,0,0,0-1.659-.63,2.872,2.872,0,0,0-2.324,1.02l0.164-.93H337.98l-1.88,10.68h0.765l0.771-4.38a1.989,1.989,0,0,0,1.965,1.02,2.964,2.964,0,0,0,1.881-.63A5.149,5.149,0,0,0,342.953,116.065Zm-0.765,0c-0.264,1.5-.8,3.03-2.573,3.03s-1.771-1.53-1.507-3.03,0.8-3.03,2.574-3.03S342.452,114.565,342.188,116.065Zm8.6,0.165,0.061-.345c0.388-2.2-.475-3.525-2.275-3.525s-3.137,1.38-3.547,3.7c-0.425,2.415.428,3.7,2.423,3.7a3.909,3.909,0,0,0,2.8-1.11l-0.49-.45a3,3,0,0,1-2.148.87c-1.53,0-2.176-1.02-1.854-2.85h5.025Zm-0.657-.615h-4.259a3.831,3.831,0,0,1,.5-1.365,2.478,2.478,0,0,1,2.088-1.215,1.619,1.619,0,0,1,1.662,1.215A3.177,3.177,0,0,1,350.127,115.615Zm8.09,4.065,0.813-4.62a2.376,2.376,0,0,0-.4-2.01,2.254,2.254,0,0,0-1.8-.69,3.21,3.21,0,0,0-2.3.945l0.15-.855h-0.765l-1.272,7.23h0.765l0.789-4.485a2.364,2.364,0,0,1,2.42-2.16c1.29,0,1.861.765,1.615,2.16l-0.789,4.485h0.765Zm8.01,0L368.106,109h-0.765l-0.771,4.38a1.989,1.989,0,0,0-1.965-1.02,2.964,2.964,0,0,0-1.881.63,5.155,5.155,0,0,0-1.471,3.075,3.907,3.907,0,0,0,.389,3.075,2.139,2.139,0,0,0,1.659.63,2.871,2.871,0,0,0,2.324-1.02l-0.163.93h0.765Zm-0.129-3.615c-0.264,1.5-.8,3.03-2.573,3.03s-1.771-1.53-1.507-3.03,0.8-3.03,2.573-3.03S366.362,114.565,366.1,116.065Zm12.428,3.615,0.814-4.62a2.057,2.057,0,0,0-2.195-2.7,3.209,3.209,0,0,0-2.3.945L375.606,109h-0.765l-1.879,10.68h0.765l0.789-4.485a2.363,2.363,0,0,1,2.42-2.16c1.29,0,1.86.765,1.615,2.16l-0.79,4.485h0.765Zm5.389-9.735,0.166-.945h-0.945l-0.166.945h0.945Zm-1.8,9.735,1.272-7.23h-0.765l-1.272,7.23h0.765Zm8.386-2.055c0.248-1.41-.6-1.785-1.782-1.89l-1.152-.105c-1-.09-1.388-0.465-1.256-1.215a1.841,1.841,0,0,1,2.09-1.4,2.89,2.89,0,0,1,1.917.615l0.6-.51a3.66,3.66,0,0,0-2.4-.765,2.73,2.73,0,0,0-2.957,2.055c-0.2,1.125.409,1.77,1.842,1.89l1.182,0.1c0.929,0.09,1.3.465,1.166,1.215-0.172.975-1.024,1.47-2.434,1.47a2.589,2.589,0,0,1-2.214-.885l-0.617.525a3.366,3.366,0,0,0,2.743,1.035C389,119.77,390.266,118.945,390.5,117.625Zm16.045-5.175H405.7l-2.959,6.33-0.956-6.33h-0.75l-3.184,6.33-0.73-6.33h-0.84l1.037,7.23h0.78l3.1-6.03,0.979,6.03h0.78Zm5.958,7.23,0.813-4.62a2.057,2.057,0,0,0-2.195-2.7,3.21,3.21,0,0,0-2.3.945L409.58,109h-0.764l-1.88,10.68H407.7l0.789-4.485a2.363,2.363,0,0,1,2.42-2.16c1.29,0,1.861.765,1.615,2.16l-0.789,4.485H412.5Zm8.856-3.615a3.57,3.57,0,0,0-.388-2.91,2.323,2.323,0,0,0-1.87-.8,3.281,3.281,0,0,0-2.15.8,4.713,4.713,0,0,0-1.412,2.91,3.57,3.57,0,0,0,.388,2.91,2.323,2.323,0,0,0,1.87.8,3.281,3.281,0,0,0,2.15-.8A4.713,4.713,0,0,0,421.357,116.065Zm-0.765,0a3.949,3.949,0,0,1-1.07,2.415,2.49,2.49,0,0,1-1.608.615,1.75,1.75,0,0,1-1.392-.615,3.08,3.08,0,0,1-.22-2.415,3.943,3.943,0,0,1,1.07-2.415,2.49,2.49,0,0,1,1.608-.615,1.75,1.75,0,0,1,1.392.615A3.08,3.08,0,0,1,420.592,116.065Zm4.989,3.615,0.118-.675h-0.525c-0.855,0-1.038-.405-0.9-1.215l1.547-8.79H425.06l-1.549,8.805c-0.2,1.125.24,1.875,1.41,1.875h0.66Zm7.911-3.45,0.061-.345c0.388-2.2-.475-3.525-2.274-3.525-1.815,0-3.138,1.38-3.547,3.7-0.425,2.415.428,3.7,2.422,3.7a3.913,3.913,0,0,0,2.806-1.11l-0.491-.45a3,3,0,0,1-2.148.87c-1.53,0-2.175-1.02-1.853-2.85h5.024Zm-0.656-.615h-4.26a3.831,3.831,0,0,1,.5-1.365,2.479,2.479,0,0,1,2.089-1.215,1.618,1.618,0,0,1,1.661,1.215A3.175,3.175,0,0,1,432.836,115.615Zm8.719,4.065,0.119-.675h-0.525c-0.855,0-1.039-.405-0.9-1.215L441.8,109h-0.765l-1.55,8.805c-0.2,1.125.24,1.875,1.41,1.875h0.66Zm4.5-9.735,0.166-.945H445.28l-0.167.945h0.945Zm-1.8,9.735,1.272-7.23h-0.765l-1.272,7.23h0.765Zm6.707-6.66,0.1-.57h-1.635l0.277-1.575a1.267,1.267,0,0,1,1.322-1.2h0.525l0.118-.675h-0.66a2.083,2.083,0,0,0-2.072,1.89l-0.275,1.56h-0.99l-0.1.57h0.99l-1.172,6.66h0.765l1.172-6.66h1.635Zm6.74,3.21,0.06-.345c0.388-2.2-.474-3.525-2.274-3.525s-3.138,1.38-3.547,3.7c-0.425,2.415.428,3.7,2.423,3.7a3.909,3.909,0,0,0,2.805-1.11l-0.491-.45a3,3,0,0,1-2.148.87c-1.53,0-2.175-1.02-1.853-2.85H457.7Zm-0.657-.615h-4.26a3.851,3.851,0,0,1,.495-1.365,2.479,2.479,0,0,1,2.089-1.215,1.618,1.618,0,0,1,1.661,1.215A3.175,3.175,0,0,1,457.045,115.615ZM468.4,119.68l0.871-4.95c0.267-1.515-.483-2.37-2.387-2.37a3.274,3.274,0,0,0-2.746,1.11l0.471,0.48a2.471,2.471,0,0,1,2.156-.915c1.47,0,1.931.615,1.728,1.77l-0.142.81h-2.34a2.618,2.618,0,0,0-2.887,2.085,1.807,1.807,0,0,0,.277,1.41,2.3,2.3,0,0,0,2.014.66,3.157,3.157,0,0,0,2.347-.81l-0.127.72H468.4Zm-0.321-2.52a2.2,2.2,0,0,1-.648,1.38,2.735,2.735,0,0,1-1.9.555c-1.3,0-1.81-.45-1.641-1.41s0.856-1.455,2.1-1.455h2.249Zm8.736,2.52,0.813-4.62a2.372,2.372,0,0,0-.4-2.01,2.254,2.254,0,0,0-1.8-.69,3.21,3.21,0,0,0-2.3.945l0.151-.855h-0.765l-1.273,7.23h0.765l0.79-4.485a2.363,2.363,0,0,1,2.42-2.16c1.289,0,1.86.765,1.614,2.16l-0.789,4.485h0.765Zm8.3-2.055c0.248-1.41-.6-1.785-1.783-1.89l-1.151-.105c-1-.09-1.388-0.465-1.256-1.215a1.84,1.84,0,0,1,2.09-1.4,2.89,2.89,0,0,1,1.917.615l0.6-.51a3.663,3.663,0,0,0-2.4-.765,2.729,2.729,0,0,0-2.956,2.055c-0.2,1.125.408,1.77,1.842,1.89l1.181,0.1c0.93,0.09,1.3.465,1.167,1.215-0.172.975-1.024,1.47-2.434,1.47a2.588,2.588,0,0,1-2.214-.885l-0.618.525a3.366,3.366,0,0,0,2.743,1.035C483.613,119.77,484.883,118.945,485.116,117.625Zm12.22-5.175H496.5l-2.959,6.33-0.956-6.33h-0.75l-3.184,6.33-0.731-6.33h-0.84l1.038,7.23h0.78l3.1-6.03,0.979,6.03h0.78Zm6.37,3.78,0.06-.345c0.388-2.2-.474-3.525-2.274-3.525-1.815,0-3.138,1.38-3.547,3.7-0.425,2.415.428,3.7,2.423,3.7a3.909,3.909,0,0,0,2.805-1.11l-0.491-.45a3,3,0,0,1-2.148.87c-1.53,0-2.175-1.02-1.853-2.85h5.025Zm-0.657-.615h-4.26a3.851,3.851,0,0,1,.5-1.365,2.479,2.479,0,0,1,2.089-1.215,1.618,1.618,0,0,1,1.661,1.215A3.175,3.175,0,0,1,503.049,115.615Zm8.311-2.565a1.9,1.9,0,0,0-1.618-.69,3,3,0,0,0-2.3,1.05l0.169-.96h-0.765l-1.272,7.23h0.765l0.784-4.455a2.462,2.462,0,0,1,2.32-2.19,1.387,1.387,0,0,1,1.265.57Zm2.917-3.105,0.166-.945H513.5l-0.166.945h0.945Zm-1.8,9.735,1.272-7.23h-0.765l-1.272,7.23h0.765Zm8.474,0,0.813-4.62a2.372,2.372,0,0,0-.4-2.01,2.252,2.252,0,0,0-1.8-.69,3.212,3.212,0,0,0-2.3.945l0.151-.855h-0.765l-1.272,7.23h0.765l0.789-4.485a2.363,2.363,0,0,1,2.42-2.16c1.29,0,1.86.765,1.615,2.16l-0.79,4.485h0.765Zm7.939,0.4,1.344-7.635h-0.765l-0.164.93a1.989,1.989,0,0,0-1.965-1.02,2.964,2.964,0,0,0-1.881.63,5.144,5.144,0,0,0-1.471,3.075,3.907,3.907,0,0,0,.388,3.075,2.141,2.141,0,0,0,1.66.63,2.873,2.873,0,0,0,2.324-1.02l-0.227,1.29a2.667,2.667,0,0,1-2.631,2.5,2,2,0,0,1-1.735-.8l-0.6.51a2.6,2.6,0,0,0,2.216.96A3.534,3.534,0,0,0,528.887,120.085Zm-0.058-4.02c-0.264,1.5-.8,3.03-2.573,3.03s-1.77-1.53-1.506-3.03,0.8-3.03,2.573-3.03S529.093,114.565,528.829,116.065Zm4.119,3.615,0.2-1.11h-1.11l-0.2,1.11h1.11Z" transform="translate(-241.094 -48.906)" fill="#ffffff"></path>
</svg>