<svg xmlns="http://www.w3.org/2000/svg" width="306.782" height="292.813" viewBox="0 0 306.782 292.813" preserveAspectRatio="none" style="width: 100%; height: 100%;">
  <metadata><!--?xpacket begin="&#xFEFF;" id="W5M0MpCehiHzreSzNTczkc9d"?-->
<x:xmpmeta xmlns:x="adobe:ns:meta/" x:xmptk="Adobe XMP Core 5.6-c142 79.160924, 2017/07/13-01:06:39        ">
   <rdf:rdf xmlns:rdf="http://www.w3.org/1999/02/22-rdf-syntax-ns#">
      <rdf:description rdf:about=""></rdf:description>
   </rdf:rdf>
</x:xmpmeta>
                                                                                                    
                                                                                                    
                                                                                                    
                                                                                                    
                                                                                                    
                                                                                                    
                                                                                                    
                                                                                                    
                                                                                                    
                                                                                                    
                                                                                                    
                                                                                                    
                                                                                                    
                                                                                                    
                                                                                                    
                                                                                                    
                                                                                                    
                                                                                                    
                                                                                                    
                                                                                                    
                           
<!--?xpacket end="w"?--></metadata>
<defs>
    
  </defs>
  <path id="喜" class="cls-1" d="M435.939,535.413v10.981h-62v20.741h62V583H379.577v20.741H524.24V583H465.06v-15.86h65.756V546.394H465.06V535.413H435.939Zm52.5,76.023,0.1,10.6H411.515v-9.761H384.274v69.543h27.241v-3.66h77.968v3.66h27.242v-70.2Zm1.043,30.121v18.3H411.515v-18.3h77.968ZM468.817,709.88H431.242q5.637-31.719-42.271-23.181v2.44A78.152,78.152,0,0,1,404.94,705a21.91,21.91,0,0,0,4.7,4.88H368.3v20.741H530.816V709.88H493.241q12.209-9.759,17.848-18.3-10.337-1.216-30.06-9.76a295.141,295.141,0,0,1-12.212,28.061h0Zm18.788,35.381H410.576v-6.1H382.4v89.063h28.181V813.583h77.029v14.641h28.181v-73.2l8.454-13.42-29.12-9.76Zm0,48.8H410.576V764.782h77.029v29.281ZM291.651,535.413v10.981h-62v20.741h62V583H235.289v20.741H379.952V583h-59.18v-15.86h65.756V546.394H320.772V535.413H291.651Zm52.742,77.465v9.129l-77.165.03v-9.761H239.986v69.543h27.242v-3.66H345.2v3.66h27.242V612.577Zm0.8,28.679v18.3H267.228v-18.3H345.2ZM324.529,709.88H286.955q5.636-31.719-42.272-23.181v2.44A78.127,78.127,0,0,1,260.652,705a21.91,21.91,0,0,0,4.7,4.88H224.017v20.741H386.528V709.88H348.953q12.209-9.759,17.848-18.3-10.336-1.216-30.06-9.76a295.141,295.141,0,0,1-12.212,28.061h0Zm18.788,35.381H266.288v-6.1H238.107v89.063h28.181V813.583h77.029v14.641H371.5v-73.2l8.454-13.42-29.12-9.76Zm0,48.8H266.288V764.782h77.029v29.281Z" transform="translate(-224.031 -535.406)" fill="#b12f37" stroke="#b12f37" stroke-width="0"></path>
</svg>