<svg xmlns="http://www.w3.org/2000/svg" width="545.937" height="40.156" viewBox="0 0 545.937 40.156" preserveAspectRatio="none" style="width: 100%; height: 100%;">
  <defs>
    
  </defs>
  <path id="Meeting_you_was_fate_and_falling_in_love_with_you_was_out_of_my" data-name="Meeting you was fate,and falling in love with you was out of my" class="cls-1" d="M109.708,937v-9.973h-0.756l-3.39,7.69-3.474-7.69h-0.756V937h0.756v-8.222l3.082,6.821h0.756l3.026-6.821V937h0.756Zm9.267,0v-0.672H113.68v-4.021h4.511v-0.672H113.68V927.7h5.295v-0.672h-6.051V937h6.051Zm8.512,0v-0.672h-5.3v-4.021H126.7v-0.672h-4.511V927.7h5.3v-0.672h-6.051V937h6.051Zm8.05-9.3v-0.672h-6.71V927.7h2.97V937h0.756v-9.3h2.984Zm2.853,9.3v-9.973h-0.756V937h0.756Zm10.49,0v-9.973h-0.757v8.642l-5.757-8.642H141.61V937h0.756v-8.671L148.123,937h0.757Zm9.673-3.474V931.9h-3.432v0.673H157.8v0.9a2.874,2.874,0,0,1-.6,1.975,2.679,2.679,0,0,1-2.074.967,2.646,2.646,0,0,1-1.891-.771c-0.714-.714-0.77-1.485-0.77-3.628s0.056-2.913.77-3.628a2.692,2.692,0,0,1,4.539,1.471h0.756a3.363,3.363,0,0,0-3.4-2.913,3.518,3.518,0,0,0-2.493,1.022c-0.91.911-.924,1.793-0.924,4.048s0.014,3.138.924,4.048a3.556,3.556,0,0,0,5.113-.126A3.254,3.254,0,0,0,158.553,933.526Zm11.746-6.5h-0.813l-2.479,5.042-2.535-5.042h-0.813l2.942,5.841V937h0.756v-4.132Zm8.26,4.986c0-2.255-.014-3.137-0.924-4.048a3.553,3.553,0,0,0-4.987,0c-0.91.911-.924,1.793-0.924,4.048s0.014,3.138.924,4.048a3.55,3.55,0,0,0,4.987,0C178.545,935.151,178.559,934.269,178.559,932.013Zm-0.756,0c0,2.143-.056,2.914-0.77,3.628a2.706,2.706,0,0,1-3.783,0c-0.714-.714-0.77-1.485-0.77-3.628s0.056-2.913.77-3.628a2.708,2.708,0,0,1,3.783,0C177.747,929.1,177.8,929.87,177.8,932.013Zm10.276,1.751v-6.737h-0.756v6.639a2.663,2.663,0,1,1-5.323,0v-6.639h-0.756v6.737A3.419,3.419,0,0,0,188.079,933.764Zm16.76-6.737h-0.8l-2.1,8.67-2.326-8.67H198.83l-2.325,8.67-2.1-8.67h-0.8L196.1,937h0.77l2.353-8.685L201.576,937h0.77ZM213.475,937l-3.67-9.973h-0.672L205.463,937h0.813l0.868-2.423H211.8L212.663,937h0.812Zm-1.919-3.1h-4.174l2.087-5.869Zm9.661,0.421a2.45,2.45,0,0,0-.868-1.933,3.169,3.169,0,0,0-1.779-.659l-1.079-.168a3.182,3.182,0,0,1-1.485-.616,1.6,1.6,0,0,1-.518-1.3,2.032,2.032,0,0,1,2.311-2.059,3.241,3.241,0,0,1,2.423.924l0.491-.49a3.944,3.944,0,0,0-2.872-1.078c-1.905,0-3.095,1.064-3.095,2.731a2.269,2.269,0,0,0,.784,1.835,3.461,3.461,0,0,0,1.779.728l1.163,0.183a2.408,2.408,0,0,1,1.442.532,1.8,1.8,0,0,1,.547,1.4c0,1.3-1,2.059-2.564,2.059a3.483,3.483,0,0,1-2.829-1.177l-0.533.532a4.21,4.21,0,0,0,3.32,1.317C219.928,937.084,221.217,936.005,221.217,934.325Zm12.264-6.626v-0.672H227.43V937h0.756v-4.524H232.7V931.8h-4.511v-4.1h5.295Zm8.834,9.3-3.67-9.973h-0.672L234.3,937h0.813l0.868-2.423h4.651L241.5,937h0.812Zm-1.919-3.1h-4.174l2.087-5.869Zm9.4-6.205v-0.672h-6.71V927.7h2.97V937h0.756v-9.3h2.984Zm8.148,9.3v-0.672h-5.3v-4.021h4.511v-0.672h-4.511V927.7h5.3v-0.672h-6.051V937h6.051Zm3.2,0.953v-1.906H260.19v2.858Zm9.691-.953-3.67-9.973h-0.672L262.821,937h0.813l0.868-2.423h4.651L270.021,937h0.812Zm-1.919-3.1H264.74l2.087-5.869ZM279.99,937v-9.973h-0.757v8.642l-5.757-8.642H272.72V937h0.756v-8.671L279.233,937h0.757Zm10.024-5.127c0-1.344.042-2.927-.967-3.936a3.446,3.446,0,0,0-2.493-.91h-3.348V937h3.348a3.446,3.446,0,0,0,2.493-.91C290.056,935.081,290.014,933.218,290.014,931.873Zm-0.757,0c0,1.107.056,2.872-.742,3.684a2.864,2.864,0,0,1-2.143.771h-2.41V927.7h2.41a2.867,2.867,0,0,1,2.143.77C289.313,929.282,289.257,930.767,289.257,931.873ZM302.6,927.7v-0.672h-6.051V937H297.3v-4.524h4.511V931.8H297.3v-4.1h5.3Zm8.834,9.3-3.67-9.973h-0.672L303.421,937h0.813l0.868-2.423h4.651L310.621,937h0.812Zm-1.919-3.1H305.34l2.087-5.869Zm9.857,3.1v-0.672h-5.295v-9.3H313.32V937h6.051Zm8.148,0v-0.672h-5.3v-9.3h-0.756V937h6.051Zm2.853,0v-9.973h-0.756V937h0.756Zm10.49,0v-9.973h-0.757v8.642l-5.757-8.642h-0.756V937h0.756v-8.671L340.105,937h0.757Zm9.673-3.474V931.9H347.1v0.673h2.675v0.9a2.874,2.874,0,0,1-.6,1.975,2.678,2.678,0,0,1-2.073.967,2.647,2.647,0,0,1-1.892-.771c-0.714-.714-0.77-1.485-0.77-3.628s0.056-2.913.77-3.628a2.692,2.692,0,0,1,4.539,1.471h0.756a3.363,3.363,0,0,0-3.4-2.913,3.521,3.521,0,0,0-2.494,1.022c-0.91.911-.924,1.793-0.924,4.048s0.014,3.138.924,4.048a3.556,3.556,0,0,0,5.113-.126A3.254,3.254,0,0,0,350.535,933.526ZM357.8,937v-9.973h-0.756V937H357.8Zm10.49,0v-9.973h-0.757v8.642l-5.757-8.642h-0.756V937h0.756v-8.671L367.531,937h0.757Zm12.977,0v-0.672H375.97v-9.3h-0.756V937h6.051Zm8.54-4.987c0-2.255-.014-3.137-0.924-4.048a3.553,3.553,0,0,0-4.987,0c-0.91.911-.924,1.793-0.924,4.048s0.014,3.138.924,4.048a3.55,3.55,0,0,0,4.987,0C389.791,935.151,389.805,934.269,389.805,932.013Zm-0.756,0c0,2.143-.056,2.914-0.77,3.628a2.7,2.7,0,0,1-3.782,0c-0.715-.714-0.771-1.485-0.771-3.628s0.056-2.913.771-3.628a2.707,2.707,0,0,1,3.782,0C388.993,929.1,389.049,929.87,389.049,932.013Zm9.38-4.986h-0.8l-2.8,8.642-2.8-8.642h-0.8L394.507,937h0.644ZM406.3,937v-0.672H401v-4.021h4.511v-0.672H401V927.7h5.3v-0.672h-6.051V937H406.3Zm16.144-9.973h-0.8l-2.1,8.67-2.326-8.67h-0.784l-2.325,8.67-2.1-8.67h-0.8L413.7,937h0.77l2.353-8.685L419.178,937h0.77ZM425.152,937v-9.973H424.4V937h0.756Zm8.809-9.3v-0.672h-6.71V927.7h2.97V937h0.756v-9.3h2.984Zm8.807,9.3v-9.973h-0.757v4.608h-5.2v-4.608h-0.756V937h0.756v-4.693h5.2V937h0.757Zm12.165-9.973H454.12l-2.479,5.042-2.535-5.042h-0.813l2.942,5.841V937h0.756v-4.132Zm8.26,4.986c0-2.255-.014-3.137-0.924-4.048a3.553,3.553,0,0,0-4.987,0c-0.91.911-.924,1.793-0.924,4.048s0.014,3.138.924,4.048a3.55,3.55,0,0,0,4.987,0C463.179,935.151,463.193,934.269,463.193,932.013Zm-0.756,0c0,2.143-.056,2.914-0.77,3.628a2.7,2.7,0,0,1-3.782,0c-0.715-.714-0.771-1.485-0.771-3.628s0.056-2.913.771-3.628a2.707,2.707,0,0,1,3.782,0C462.381,929.1,462.437,929.87,462.437,932.013Zm10.277,1.751v-6.737h-0.757v6.639a2.663,2.663,0,1,1-5.323,0v-6.639h-0.756v6.737A3.419,3.419,0,0,0,472.714,933.764Zm16.759-6.737h-0.8l-2.1,8.67-2.325-8.67h-0.785l-2.325,8.67-2.1-8.67h-0.8L480.733,937h0.77l2.353-8.685L486.21,937h0.77ZM498.11,937l-3.67-9.973h-0.673L490.1,937h0.813l0.868-2.423h4.651L497.3,937h0.813Zm-1.919-3.1h-4.175l2.087-5.869Zm9.66,0.421a2.45,2.45,0,0,0-.868-1.933,3.169,3.169,0,0,0-1.779-.659l-1.079-.168a3.182,3.182,0,0,1-1.485-.616,1.6,1.6,0,0,1-.518-1.3,2.032,2.032,0,0,1,2.311-2.059,3.245,3.245,0,0,1,2.424.924l0.49-.49a3.944,3.944,0,0,0-2.872-1.078c-1.905,0-3.1,1.064-3.1,2.731a2.269,2.269,0,0,0,.784,1.835,3.461,3.461,0,0,0,1.779.728l1.163,0.183a2.408,2.408,0,0,1,1.442.532,1.8,1.8,0,0,1,.547,1.4c0,1.3-1,2.059-2.564,2.059a3.483,3.483,0,0,1-2.829-1.177l-0.533.532a4.21,4.21,0,0,0,3.32,1.317C504.562,937.084,505.851,936.005,505.851,934.325Zm12.656-2.312c0-2.255-.014-3.137-0.924-4.048a3.553,3.553,0,0,0-4.987,0c-0.91.911-.924,1.793-0.924,4.048s0.014,3.138.924,4.048a3.55,3.55,0,0,0,4.987,0C518.493,935.151,518.507,934.269,518.507,932.013Zm-0.756,0c0,2.143-.056,2.914-0.77,3.628a2.7,2.7,0,0,1-3.782,0c-0.715-.714-0.771-1.485-0.771-3.628s0.056-2.913.771-3.628a2.707,2.707,0,0,1,3.782,0C517.7,929.1,517.751,929.87,517.751,932.013Zm10.277,1.751v-6.737h-0.757v6.639a2.663,2.663,0,1,1-5.323,0v-6.639h-0.756v6.737A3.419,3.419,0,0,0,528.028,933.764Zm8.665-6.065v-0.672h-6.71V927.7h2.97V937h0.756v-9.3h2.984Zm12.251,4.314c0-2.255-.014-3.137-0.925-4.048a3.553,3.553,0,0,0-4.987,0c-0.91.911-.924,1.793-0.924,4.048s0.014,3.138.924,4.048a3.55,3.55,0,0,0,4.987,0C548.93,935.151,548.944,934.269,548.944,932.013Zm-0.757,0c0,2.143-.056,2.914-0.77,3.628a2.7,2.7,0,0,1-3.782,0c-0.715-.714-0.771-1.485-0.771-3.628s0.056-2.913.771-3.628a2.707,2.707,0,0,1,3.782,0C548.131,929.1,548.187,929.87,548.187,932.013Zm9.632-4.314v-0.672h-6.051V937h0.756v-4.524h4.511V931.8h-4.511v-4.1h5.295Zm14.24,9.3v-9.973H571.3l-3.39,7.69-3.474-7.69h-0.756V937h0.756v-8.222l3.082,6.821h0.756l3.026-6.821V937h0.757Zm8.454-9.973H579.7l-2.479,5.042-2.535-5.042h-0.813l2.942,5.841V937h0.756v-4.132Zm11.943,7.143h-0.743a2.69,2.69,0,0,1-4.538,1.471c-0.715-.714-0.771-1.485-0.771-3.628s0.056-2.913.771-3.628a2.646,2.646,0,0,1,1.891-.77,2.618,2.618,0,0,1,2.619,2.241h0.771a3.306,3.306,0,0,0-3.39-2.913,3.521,3.521,0,0,0-2.494,1.022c-0.91.911-.924,1.793-0.924,4.048s0.014,3.138.924,4.048a3.517,3.517,0,0,0,2.494,1.023A3.326,3.326,0,0,0,592.456,934.17Zm9.183-2.157c0-2.255-.014-3.137-0.924-4.048a3.553,3.553,0,0,0-4.987,0c-0.91.911-.924,1.793-0.924,4.048s0.014,3.138.924,4.048a3.55,3.55,0,0,0,4.987,0C601.625,935.151,601.639,934.269,601.639,932.013Zm-0.756,0c0,2.143-.056,2.914-0.77,3.628a2.7,2.7,0,0,1-3.782,0c-0.715-.714-0.771-1.485-0.771-3.628s0.056-2.913.771-3.628a2.707,2.707,0,0,1,3.782,0C600.827,929.1,600.883,929.87,600.883,932.013ZM611.734,937v-9.973h-0.756v8.642l-5.758-8.642h-0.756V937h0.756v-8.671L610.978,937h0.756Zm8.8-9.3v-0.672h-6.71V927.7h2.97V937h0.756v-9.3h2.984ZM629.4,937l-2.41-4.608a2.7,2.7,0,0,0-.56-5.365h-3.8V937h0.756v-4.594h2.746L628.519,937H629.4Zm-0.869-7.284a1.935,1.935,0,0,1-2.2,2.017h-2.942V927.7h2.942A1.935,1.935,0,0,1,628.533,929.716Zm9.885,2.3c0-2.255-.014-3.137-0.925-4.048a3.553,3.553,0,0,0-4.987,0c-0.91.911-.924,1.793-0.924,4.048s0.014,3.138.924,4.048a3.55,3.55,0,0,0,4.987,0C638.4,935.151,638.418,934.269,638.418,932.013Zm-0.757,0c0,2.143-.056,2.914-0.77,3.628a2.7,2.7,0,0,1-3.782,0c-0.715-.714-0.771-1.485-0.771-3.628s0.056-2.913.771-3.628a2.707,2.707,0,0,1,3.782,0C637.605,929.1,637.661,929.87,637.661,932.013ZM647.293,937v-0.672H642v-9.3h-0.756V937h6.051ZM233.1,967v-0.672h-5.3v-9.3h-0.756V967H233.1Zm8.54-4.987c0-2.255-.014-3.137-0.924-4.048a3.553,3.553,0,0,0-4.987,0c-0.91.911-.924,1.793-0.924,4.048s0.014,3.138.924,4.048a3.55,3.55,0,0,0,4.987,0C241.622,965.151,241.636,964.269,241.636,962.013Zm-0.756,0c0,2.143-.056,2.914-0.77,3.628a2.7,2.7,0,0,1-3.782,0c-0.715-.714-0.771-1.485-0.771-3.628s0.056-2.913.771-3.628a2.707,2.707,0,0,1,3.782,0C240.824,959.1,240.88,959.87,240.88,962.013Zm9.38-4.986h-0.8l-2.8,8.642-2.8-8.642h-0.8L246.338,967h0.644ZM252.833,967v-9.973h-0.756V967h0.756Zm10.49,0v-9.973h-0.757v8.642l-5.757-8.642h-0.756V967h0.756v-8.671L262.566,967h0.757ZM273,963.526V961.9h-3.431v0.673h2.675v0.9a2.874,2.874,0,0,1-.6,1.975,2.678,2.678,0,0,1-2.073.967,2.643,2.643,0,0,1-1.891-.771c-0.715-.714-0.771-1.485-0.771-3.628s0.056-2.913.771-3.628a2.691,2.691,0,0,1,4.538,1.471h0.756a3.362,3.362,0,0,0-3.4-2.913,3.521,3.521,0,0,0-2.494,1.022c-0.91.911-.924,1.793-0.924,4.048s0.014,3.138.924,4.048a3.556,3.556,0,0,0,5.113-.126A3.254,3.254,0,0,0,273,963.526Zm11.746-6.5h-0.813l-2.479,5.042-2.535-5.042H278.1l2.942,5.841V967H281.8v-4.132Zm8.26,4.986c0-2.255-.014-3.137-0.924-4.048a3.553,3.553,0,0,0-4.987,0c-0.91.911-.924,1.793-0.924,4.048s0.014,3.138.924,4.048a3.55,3.55,0,0,0,4.987,0C292.988,965.151,293,964.269,293,962.013Zm-0.756,0c0,2.143-.056,2.914-0.77,3.628a2.7,2.7,0,0,1-3.782,0c-0.715-.714-0.771-1.485-0.771-3.628s0.056-2.913.771-3.628a2.707,2.707,0,0,1,3.782,0C292.19,959.1,292.246,959.87,292.246,962.013Zm10.277,1.751v-6.737h-0.757v6.639a2.663,2.663,0,1,1-5.323,0v-6.639h-0.756v6.737A3.419,3.419,0,0,0,302.523,963.764ZM310.065,967v-9.973h-0.756V967h0.756Zm9.075-2.675a2.45,2.45,0,0,0-.868-1.933,3.169,3.169,0,0,0-1.779-.659l-1.079-.168a3.187,3.187,0,0,1-1.485-.616,1.6,1.6,0,0,1-.518-1.3,2.033,2.033,0,0,1,2.311-2.059,3.245,3.245,0,0,1,2.424.924l0.49-.49a3.944,3.944,0,0,0-2.872-1.078c-1.905,0-3.1,1.064-3.1,2.731a2.269,2.269,0,0,0,.784,1.835,3.461,3.461,0,0,0,1.779.728l1.163,0.183a2.408,2.408,0,0,1,1.442.532,1.8,1.8,0,0,1,.547,1.4c0,1.3-1,2.059-2.564,2.059a3.483,3.483,0,0,1-2.829-1.177l-0.532.532a4.207,4.207,0,0,0,3.319,1.317C317.851,967.084,319.14,966.005,319.14,964.325Zm12.628-.155h-0.742a2.69,2.69,0,0,1-4.538,1.471c-0.715-.714-0.771-1.485-0.771-3.628s0.056-2.913.771-3.628a2.646,2.646,0,0,1,1.891-.77A2.618,2.618,0,0,1,331,959.856h0.77a3.3,3.3,0,0,0-3.389-2.913,3.521,3.521,0,0,0-2.494,1.022c-0.91.911-.924,1.793-0.924,4.048s0.014,3.138.924,4.048a3.517,3.517,0,0,0,2.494,1.023A3.324,3.324,0,0,0,331.768,964.17ZM340.56,967v-0.672h-5.3v-9.3h-0.756V967h6.051Zm8.541-4.987c0-2.255-.014-3.137-0.925-4.048a3.553,3.553,0,0,0-4.987,0c-0.91.911-.924,1.793-0.924,4.048s0.014,3.138.924,4.048a3.55,3.55,0,0,0,4.987,0C349.087,965.151,349.1,964.269,349.1,962.013Zm-0.757,0c0,2.143-.056,2.914-0.77,3.628a2.7,2.7,0,0,1-3.782,0c-0.715-.714-0.771-1.485-0.771-3.628s0.056-2.913.771-3.628a2.707,2.707,0,0,1,3.782,0C348.288,959.1,348.344,959.87,348.344,962.013Zm9.436,2.312a2.45,2.45,0,0,0-.868-1.933,3.166,3.166,0,0,0-1.779-.659l-1.079-.168a3.187,3.187,0,0,1-1.485-.616,1.6,1.6,0,0,1-.518-1.3,2.033,2.033,0,0,1,2.311-2.059,3.245,3.245,0,0,1,2.424.924l0.49-.49a3.944,3.944,0,0,0-2.872-1.078c-1.9,0-3.095,1.064-3.095,2.731a2.269,2.269,0,0,0,.784,1.835,3.461,3.461,0,0,0,1.779.728l1.163,0.183a2.408,2.408,0,0,1,1.442.532,1.8,1.8,0,0,1,.547,1.4c0,1.3-1,2.059-2.564,2.059a3.483,3.483,0,0,1-2.829-1.177l-0.532.532a4.207,4.207,0,0,0,3.319,1.317C356.492,967.084,357.78,966.005,357.78,964.325ZM366.334,967v-0.672h-5.3v-4.021h4.511v-0.672h-4.511V957.7h5.3v-0.672h-6.051V967h6.051Zm8.512,0v-0.672h-5.3v-9.3H368.8V967h6.051Zm7.336-9.973h-0.813l-2.479,5.042-2.535-5.042h-0.813l2.942,5.841V967h0.756v-4.132ZM394.475,967l-2.41-4.608a2.7,2.7,0,0,0-.56-5.365h-3.8V967h0.756v-4.594h2.746L393.592,967h0.883Zm-0.869-7.284a1.935,1.935,0,0,1-2.2,2.017h-2.942V957.7h2.942A1.935,1.935,0,0,1,393.606,959.716ZM403.1,967v-0.672h-5.3v-4.021h4.511v-0.672H397.8V957.7h5.3v-0.672h-6.051V967H403.1Zm8.512,0v-0.672h-5.3v-9.3h-0.756V967h6.051Zm8.779,0-3.67-9.973h-0.673L412.376,967h0.813l0.868-2.423h4.651L419.576,967h0.813Zm-1.919-3.1H414.3l2.087-5.869Zm9.394-6.205v-0.672h-6.71V957.7h2.97V967h0.756v-9.3h2.984Zm8.148,9.3v-0.672h-5.3v-4.021h4.511v-0.672h-4.511V957.7h5.3v-0.672h-6.051V967h6.051Zm9.269-5.127c0-1.344.042-2.927-.967-3.936a3.446,3.446,0,0,0-2.493-.91h-3.348V967h3.348a3.446,3.446,0,0,0,2.493-.91C445.323,965.081,445.281,963.218,445.281,961.873Zm-0.757,0c0,1.107.056,2.872-.742,3.684a2.862,2.862,0,0,1-2.143.771h-2.41V957.7h2.41a2.865,2.865,0,0,1,2.143.77C444.58,959.282,444.524,960.767,444.524,961.873ZM457.4,957.7v-0.672h-6.71V957.7h2.97V967h0.756v-9.3H457.4Zm8.541,4.314c0-2.255-.014-3.137-0.925-4.048a3.553,3.553,0,0,0-4.987,0c-0.91.911-.924,1.793-0.924,4.048s0.014,3.138.924,4.048a3.55,3.55,0,0,0,4.987,0C465.931,965.151,465.945,964.269,465.945,962.013Zm-0.757,0c0,2.143-.056,2.914-0.77,3.628a2.7,2.7,0,0,1-3.782,0c-0.715-.714-0.771-1.485-0.771-3.628s0.056-2.913.771-3.628a2.707,2.707,0,0,1,3.782,0C465.132,959.1,465.188,959.87,465.188,962.013ZM480.856,967v-9.973H480.1l-3.39,7.69-3.474-7.69h-0.756V967h0.756v-8.222l3.082,6.821h0.757l3.025-6.821V967h0.757Zm8.454-9.973H488.5l-2.479,5.042-2.535-5.042H482.67l2.942,5.841V967h0.756v-4.132ZM500.888,967v-0.672h-5.295v-9.3h-0.756V967h6.051Zm2.853,0v-9.973h-0.756V967h0.756Zm9.271-9.3v-0.672h-6.051V967h0.756v-4.524h4.511V961.8h-4.511v-4.1h5.295Zm8.2,9.3v-0.672h-5.295v-4.021h4.511v-0.672h-4.511V957.7h5.295v-0.672h-6.051V967h6.051Z" transform="translate(-101.344 -926.938)" fill="#ffffff"></path>
</svg>