<svg xmlns="http://www.w3.org/2000/svg" width="25.781" height="171" viewBox="0 0 25.781 171" preserveAspectRatio="none" style="width: 100%; height: 100%;">
  <defs>
    
  </defs>
  <path id="wedding" class="cls-1" d="M300.242,7201.16a3.169,3.169,0,0,1-1.224.39q-1.128.165-2.184,0.24-1.152.09-1.92,0.12c-0.112.01-.136,0.13-0.072,0.33l0.864,0.72a0.269,0.269,0,0,0,.312.05,1.844,1.844,0,0,0,.192-0.02q0.624-.12.936-0.15c0.768-.12,1.608-0.23,2.52-0.31q0.36-.045,1.248-0.12a4.688,4.688,0,0,0,.6-0.05c0.144-.03.16-0.12,0.048-0.26l-1.008-.91a0.323,0.323,0,0,0-.312-0.03h0Zm9.5,11.88-2.88.27a12.391,12.391,0,0,0-1.272-1.78q1.488-.165,4.1-0.36a2.35,2.35,0,0,1,.1,1.61Zm1.608-4.32-0.12,1.06a3.248,3.248,0,0,1-1.392.41q-1.56.2-4.632,0.45v-0.12l-0.072-1.6c0.928-.1,2.544-0.24,4.848-0.41,0.464-.03.8-0.06,1.008-0.07,0.272-.05.392,0.04,0.36,0.28h0Zm0.288,8.48c-0.016.12-.048,0.43-0.1,0.91q-0.048.555-.072,0.84a3.637,3.637,0,0,1-.888.19,1.481,1.481,0,0,0-.24.05c-2.048.17-3.824,0.32-5.328,0.43,0-.11-0.008-0.3-0.024-0.55-0.032-.8-0.056-1.38-0.072-1.73q3.1-.24,6.432-0.48a0.267,0.267,0,0,1,.288.34h0Zm1.68-15.36a4.585,4.585,0,0,1-2.208.64l-1.992.22a0.612,0.612,0,0,1,.024-0.14v-0.15a2.458,2.458,0,0,1,.1-0.69,0.1,0.1,0,0,0,.024-0.05l0.288-.53a0.286,0.286,0,0,0-.048-0.43l-2.064-1.27-0.312.4a3.258,3.258,0,0,1,.7,2.55v0.41c-1.2.09-2.192,0.16-2.976,0.19a24.878,24.878,0,0,1-2.688.07c-0.128.06-.144,0.18-0.048,0.34l1.008,0.84a0.4,0.4,0,0,0,.432.02c0.208-.05.72-0.11,1.536-0.19,0.352-.03.64-0.07,0.864-0.1l1.872-.19v1.68l-1.608.1q-1.92.12-2.64,0.12a0.2,0.2,0,0,0-.072.33l0.864,0.67a0.508,0.508,0,0,0,.528.05q0.5-.09,1.776-0.21l4.1-.36c0.912-.07,1.664-0.1,2.256-0.1q0.312-.075.144-0.36l-1.1-.86a0.373,0.373,0,0,0-.36-0.03,5.578,5.578,0,0,1-1.992.46l-0.7.07c0.032-.75.048-1.3,0.048-1.66l1.92-.12q2.424-.165,3.744-0.21c0.256-.05.32-0.19,0.192-0.41l-1.248-1.06a0.435,0.435,0,0,0-.36-0.04h0Zm-14.616,16.17,0.048-6.96a14.841,14.841,0,0,1,2.376,2.21q0.36,0.36.552-.12l-0.048-1.61q-1.464-.675-2.88-1.2v-0.29q0.5-.735,1.008-1.56l0.432-.48c0.144-.16.16-0.28,0.048-0.38l-0.912-.91,0.72-.07a3.183,3.183,0,0,0,.36-0.03c1.008-.08,1.648-0.14,1.92-0.19,0.176-.05.2-0.18,0.072-0.38l-1.152-.77a0.316,0.316,0,0,0-.312-0.03,3.79,3.79,0,0,1-1.632.41c-0.64.1-1.744,0.21-3.312,0.34-0.08.01-.136,0.02-0.168,0.02-0.288.02-.656,0.03-1.1,0.05-0.528.03-.864,0.05-1.008,0.05a0.213,0.213,0,0,0-.072.31l1.056,0.77a0.384,0.384,0,0,0,.336.07,7.531,7.531,0,0,1,.768-0.12c0.4-.05.736-0.1,1.008-0.14l1.728-.2a3.732,3.732,0,0,1-.528,1.85l-0.168.34-0.672-.55-0.312.26a4.728,4.728,0,0,1,.48,1.18,32.567,32.567,0,0,1-4.344,5.78l0.312,0.38a34.238,34.238,0,0,0,4.176-4.27v0.87c-0.032,2.46-.072,4.19-0.12,5.18-0.016.1-.04,0.23-0.072,0.41a1.9,1.9,0,0,1-.144.53l-0.216.74a0.436,0.436,0,0,0,.024.5l1.032,1.42c0.256,0.22.432,0.2,0.528-.07,0.08-.55.144-1.66,0.192-3.34h0Zm6.528-6.45H305.4a0.822,0.822,0,0,1,.168-0.03l-0.24.17c0.224,0.62.4,1.19,0.528,1.7l-1.824.12q-1.728.12-2.76,0.12a0.209,0.209,0,0,0-.072.34l1.056,0.84a0.418,0.418,0,0,0,.48,0,20.984,20.984,0,0,1,2.472-.36l0.864-.07c0.1,0.48.184,1.02,0.264,1.63q0.072,0.285.336,0.12l0.96-1.39a2.833,2.833,0,0,1-.24-0.51l2.184-.16q-0.216,1.1-.432,1.92l-4.3.36-1.272-1.04-0.336.29a2.806,2.806,0,0,1,.432,1.32,14.24,14.24,0,0,1,.1,2.07,5.4,5.4,0,0,1-.024.6l-0.144.52a0.339,0.339,0,0,0,.024.41l0.936,0.96c0.208,0.15.336,0.13,0.384-.05l0.072-.86c0.144-.02.384-0.03,0.72-0.05,2.592-.16,4.312-0.26,5.16-0.31,0.3-.02.7-0.03,1.176-0.05,0.544-.01.952-0.03,1.224-0.05q0.288-.135.1-0.36l-0.792-.74c0.128-.7.264-1.33,0.408-1.87a1.294,1.294,0,0,1,.216-0.43l0.408-.39c0.1-.14.1-0.25,0-0.31l-1.176-1.1a0.207,0.207,0,0,0-.288.04l-0.5.48a2.089,2.089,0,0,1-1.1.39H310.49q-0.456.045-.72,0.09c0.288-.57.592-1.22,0.912-1.94l1.224-.1,3.648-.24a0.2,0.2,0,0,0,.216-0.14,0.336,0.336,0,0,0-.12-0.26l-1.224-1.06a0.333,0.333,0,0,0-.312,0,5.385,5.385,0,0,1-2.184.6c-0.288.05-.56,0.08-0.816,0.1l0.12-.32,0.312-.48a0.24,0.24,0,0,0-.1-0.38l-0.888-.58c0.192-.01.464-0.04,0.816-0.07q0.912-.075,1.32-0.09,0.312-.15.1-0.39l-0.552-.53q0.1-.36.264-0.93a3.8,3.8,0,0,1,.12-0.39,1.9,1.9,0,0,1,.216-0.43l0.312-.31a0.226,0.226,0,0,0,.024-0.36l-1.128-.96a0.253,0.253,0,0,0-.288,0l-0.48.46a2.9,2.9,0,0,1-1.2.36c-0.96.12-2.352,0.26-4.176,0.4-0.448.05-.784,0.08-1.008,0.1l-0.984-.77-0.336.31a2.555,2.555,0,0,1,.384,1.08,7.4,7.4,0,0,1,.1,1.2l-0.048.58-0.144.55a0.444,0.444,0,0,0,.048.39l0.888,0.86c0.224,0.16.352,0.14,0.384-.05a3.426,3.426,0,0,0,.048-0.57h0Zm1.944,59.73q-1.344.12-2.016,0.15v-1.54l4.848-.24-0.168,1.3a8.679,8.679,0,0,1-1.752.26c-0.208.02-.512,0.04-0.912,0.07h0Zm3.1-3.67-0.144.98c-1.632.13-3.288,0.24-4.968,0.34v-1.56l4.8-.31c0.288,0,.392.18,0.312,0.55h0Zm-0.48-5.3-0.168,1.22a12.538,12.538,0,0,1-2.136.31,3.877,3.877,0,0,0-.408.03c-0.864.08-1.5,0.13-1.92,0.16v-1.8l4.392-.31q0.312,0.03.24,0.39h0Zm-5.976,1.82c-0.288.02-.7,0.05-1.248,0.1-1.52.11-2.576,0.17-3.168,0.19l-0.144-1.75c0.592-.05,1.576-0.12,2.952-0.22q1.056-.075,1.584-0.12,0,0.87.024,1.8h0Zm-0.672-9.05-0.288.34q0.84,0.72.864,3.48-2.352.165-6.072,0.38c-0.624.03-1.24,0.06-1.848,0.07q-0.792.03-2.112,0.03c-0.16.03-.192,0.13-0.1,0.31l1.368,0.98a0.5,0.5,0,0,0,.5.03,16.836,16.836,0,0,1,2.952-.41q1.488-.15,4.3-0.36c0.464-.05.808-0.08,1.032-0.1l0.024,1.66c-1.344.1-2.888,0.19-4.632,0.29l-1.368-.91-0.24.26a3.523,3.523,0,0,1,.528,1.56l0.1,0.86a1.539,1.539,0,0,1-.048.48l-0.168.63a0.467,0.467,0,0,0,0,.36l1.008,1.01c0.208,0.14.352,0.12,0.432-.05l0.048-.7,4.392-.33v1.56c-1.9.12-3.768,0.21-5.592,0.26-0.24,0-.544.01-0.912,0.02q-1.008.03-1.536,0.03c-0.112.05-.136,0.14-0.072,0.29l1.32,0.86a0.661,0.661,0,0,0,.5.05,25.3,25.3,0,0,1,2.88-.34l3.408-.24v1.56q-3.384.195-6.84,0.36c-1.632.08-2.912,0.11-3.84,0.07-0.144.02-.176,0.13-0.1,0.34l1.344,0.91a0.632,0.632,0,0,0,.6.03,0.851,0.851,0,0,1,.24-0.05,22.842,22.842,0,0,1,2.544-.29c2.464-.18,4.48-0.3,6.048-0.38v1.53l-4.752.27q-2.448.135-3.36,0.12c-0.112.11-.128,0.2-0.048,0.28l1.416,0.89a0.54,0.54,0,0,0,.528.03c0.608-.12,1.392-0.22,2.352-0.32,0.736-.08,2.016-0.17,3.84-0.28,0,0.6-.016,1.37-0.048,2.3-0.016.21-.024,0.36-0.024,0.46-0.016.3-.176,0.4-0.48,0.28l-2.76-.91-0.264.55a30.714,30.714,0,0,1,3.768,2.64,0.387,0.387,0,0,0,.6-0.04,4.259,4.259,0,0,0,.672-1.44,4.326,4.326,0,0,0,.072-1.37c-0.064-.9-0.1-1.75-0.12-2.57l3.84-.17c0.1,0,.224-0.01.384-0.02q1.728-.045,2.568-0.03c0.208-.06.256-0.2,0.144-0.43l-1.08-.89,0.312-1.29c0.368,0,.728-0.02,1.08-0.05,0.608-.03,1.4-0.04,2.376-0.02h0.744c0.256-.04.32-0.16,0.192-0.39l-1.3-1.22a0.3,0.3,0,0,0-.384-0.05,4.808,4.808,0,0,1-2.448.62l0.168-.67a0.872,0.872,0,0,1,.312-0.55l0.5-.46a0.286,0.286,0,0,0,0-.43l-1.248-1.1a0.31,0.31,0,0,0-.36-0.05l-0.672.46a6.1,6.1,0,0,1-2.712.55c-0.832.08-.9,0.09-0.192,0.02-1.024.08-1.784,0.14-2.28,0.17v-1.54l3.312-.21q1.632-.1,2.736-0.12c0.208-.05.256-0.15,0.144-0.31l-0.624-.6,0.456-1.2a0.782,0.782,0,0,1,.264-0.32l0.36-.24a0.227,0.227,0,0,0,.072-0.33l-1.248-1.18a0.243,0.243,0,0,0-.36-0.02l-0.6.38a3.816,3.816,0,0,1-1.416.39c-0.992.11-2.024,0.2-3.1,0.26,0-.58.008-1.12,0.024-1.63q2.568-.195,6.1-0.34,2.76-.12,3.84-0.12a0.24,0.24,0,0,0,.168-0.36l-1.536-1.32a0.242,0.242,0,0,0-.336,0l-0.816.48a4.61,4.61,0,0,1-1.32.24q-2.04.195-5.568,0.43c-0.224.02-.392,0.04-0.5,0.05,0-.29.008-0.55,0.024-0.79a1.34,1.34,0,0,1,.12-0.48,0.39,0.39,0,0,0,.024-0.1l0.312-.48a0.248,0.248,0,0,0-.024-0.36Zm-5.126-13.1a1.505,1.505,0,0,1-.61-0.5l-1.94-3.05,1.75-2.58a1.524,1.524,0,0,1,.445-0.42,0.975,0.975,0,0,1,.565-0.17h0.14v-0.1h-2.25v0.1h0.12a0.375,0.375,0,0,1,.34.21,0.361,0.361,0,0,1,.06.2,0.42,0.42,0,0,1-.06.21l-1.36,2.15-1.38-2.16a0.467,0.467,0,0,1-.05-0.2,0.441,0.441,0,0,1,.41-0.41h0.12v-0.1H291.9v0.1h0.14a0.956,0.956,0,0,1,.4.08,1.326,1.326,0,0,1,.61.51l1.75,2.77-1.91,2.85a1.812,1.812,0,0,1-.45.42,1.082,1.082,0,0,1-.57.17h-0.14v0.1H294v-0.1h-0.13a0.388,0.388,0,0,1-.34-0.21,0.374,0.374,0,0,1-.07-0.21,0.361,0.361,0,0,1,.06-0.2l1.54-2.42,1.54,2.43a0.418,0.418,0,0,1,.05.2,0.439,0.439,0,0,1-.07.21,0.384,0.384,0,0,1-.34.2h-0.12v0.1h2.44v-0.1h-0.14a1.136,1.136,0,0,1-.4-0.08h0Zm1.019,0.08v0.1h2.19v-0.1H301.1a0.6,0.6,0,0,1-.45-0.19,0.59,0.59,0,0,1-.19-0.44v-5.55a0.641,0.641,0,0,1,.64-0.62h0.13v-0.1h-2.19v0.1h0.13a0.641,0.641,0,0,1,.64.62v5.55a0.627,0.627,0,0,1-.2.44,0.585,0.585,0,0,1-.445.19h-0.13Zm4.155,0.1a3.577,3.577,0,0,0,.935.14,1.805,1.805,0,0,0,1.36-.52,1.779,1.779,0,0,0,.51-1.31,1.606,1.606,0,0,0-.5-1.26l-1.97-1.82a1.167,1.167,0,0,1-.4-0.88,1.134,1.134,0,0,1,.345-0.85,1.157,1.157,0,0,1,.855-0.34,1.216,1.216,0,0,1,.835.28,0.921,0.921,0,0,1,.325.75h0.09v-1.23h-0.39a4.031,4.031,0,0,0-.86-0.1,1.7,1.7,0,0,0-1.285.5,1.719,1.719,0,0,0-.475,1.22,1.6,1.6,0,0,0,.54,1.21l1.92,1.78a1.208,1.208,0,0,1,.39.93,1.265,1.265,0,0,1-.4.96,1.467,1.467,0,0,1-1.035.38,1.269,1.269,0,0,1-.98-0.41,1.45,1.45,0,0,1-.37-1.01c0-.08,0-0.15.01-0.22h-0.09a2.676,2.676,0,0,0-.15.85,3.223,3.223,0,0,0,.03.54A1.69,1.69,0,0,0,303.194,7242.17Zm8.715-.1v0.1h2.19v-0.1h-0.13a0.588,0.588,0,0,1-.445-0.19,0.635,0.635,0,0,1-.195-0.44v-5.54a0.658,0.658,0,0,1,.195-0.45,0.617,0.617,0,0,1,.445-0.18h0.13v-0.1h-2.19v0.1h0.13a0.627,0.627,0,0,1,.64.62v2.67h-4.09v-2.67a0.641,0.641,0,0,1,.64-0.62h0.13v-0.1h-2.19v0.1h0.13a0.641,0.641,0,0,1,.64.62v5.55a0.627,0.627,0,0,1-.195.44,0.585,0.585,0,0,1-.445.19h-0.13v0.1h2.19v-0.1h-0.13a0.6,0.6,0,0,1-.45-0.19,0.59,0.59,0,0,1-.19-0.44v-2.58h4.09v2.59a0.627,0.627,0,0,1-.195.44,0.614,0.614,0,0,1-.445.18h-0.13Zm3.39,0v0.1h2.19v-0.1h-0.13a0.6,0.6,0,0,1-.45-0.19,0.59,0.59,0,0,1-.19-0.44v-5.55a0.641,0.641,0,0,1,.64-0.62h0.13v-0.1H315.3v0.1h0.13a0.641,0.641,0,0,1,.64.62v5.55a0.627,0.627,0,0,1-.195.44,0.585,0.585,0,0,1-.445.19H315.3Zm-6.979,87.03v-1.97h-0.1v0.09a0.372,0.372,0,0,1-.13.31,0.46,0.46,0,0,1-.245.1,0.848,0.848,0,0,1-.225-0.03l-4.68-1.34,5.53-1.97,0.01-.09-5.74-1.86,4.87-1.52a0.76,0.76,0,0,1,.22-0.03,0.415,0.415,0,0,1,.255.1,0.384,0.384,0,0,1,.135.32v0.09h0.1v-2.22h-0.1v0.08a0.978,0.978,0,0,1-.155.51,0.957,0.957,0,0,1-.455.37l-6.41,2.27v0.09a4.186,4.186,0,0,1,1.11.21l4.61,1.52-5.72,2.04v0.09a3.943,3.943,0,0,1,1.11.22l5.29,1.66a0.714,0.714,0,0,1,.35.23,0.891,0.891,0,0,1,.27.65v0.08h0.1Zm-6.9.49h-0.1v4.15l1.62,0.58v-0.1a2.509,2.509,0,0,1-.98-0.65,1.711,1.711,0,0,1-.33-1.13v-1.43h2.99v1.7a0.5,0.5,0,0,1-.49.47h-0.15v0.1h1.58v-0.1h-0.14a0.488,0.488,0,0,1-.35-0.14,0.514,0.514,0,0,1-.15-0.34v-1.69h3.09v2.04a0.565,0.565,0,0,1-.18.39,0.573,0.573,0,0,1-.41.17h-0.18v0.1h1.26a2.7,2.7,0,0,1-.12-0.52,4.155,4.155,0,0,1-.06-0.67v-2.93l-0.1.01v0.12a0.626,0.626,0,0,1-.165.43,0.642,0.642,0,0,1-.405.21h-5.6a0.633,0.633,0,0,1-.445-0.2,0.593,0.593,0,0,1-.185-0.44v-0.13Zm6.9,9.16v-3.39l-0.1.01v0.12a0.669,0.669,0,0,1-.165.44,0.516,0.516,0,0,1-.405.2h-5.6a0.633,0.633,0,0,1-.445-0.2,0.593,0.593,0,0,1-.185-0.44v-0.13h-0.1v3.39a3.561,3.561,0,0,0,.965,2.59,3.713,3.713,0,0,0,5.07,0,3.565,3.565,0,0,0,.965-2.59h0Zm-0.3,0a2.619,2.619,0,0,1-.88,2.05,3.327,3.327,0,0,1-2.32.79,3.717,3.717,0,0,1-1.675-.36,2.621,2.621,0,0,1-1.125-1,2.739,2.739,0,0,1-.4-1.48v-1.97h6.4v1.97Zm0.3,8.07v-3.39l-0.1.01v0.12a0.669,0.669,0,0,1-.165.44,0.516,0.516,0,0,1-.405.2h-5.6a0.677,0.677,0,0,1-.445-0.2,0.593,0.593,0,0,1-.185-0.44v-0.13h-0.1v3.39a3.561,3.561,0,0,0,.965,2.59,3.713,3.713,0,0,0,5.07,0,3.565,3.565,0,0,0,.965-2.59h0Zm-0.3,0a2.619,2.619,0,0,1-.88,2.05,3.374,3.374,0,0,1-2.32.79,3.717,3.717,0,0,1-1.675-.36,2.686,2.686,0,0,1-1.125-1,2.739,2.739,0,0,1-.4-1.48v-1.97h6.4v1.97Zm-6.6,4.68h-0.1v2.19h0.1v-0.13a0.6,0.6,0,0,1,.185-0.45,0.585,0.585,0,0,1,.445-0.19h5.55a0.632,0.632,0,0,1,.62.64v0.13h0.1v-2.19h-0.1v0.13a0.6,0.6,0,0,1-.18.44,0.661,0.661,0,0,1-.44.2h-5.55a0.677,0.677,0,0,1-.445-0.2,0.593,0.593,0,0,1-.185-0.44v-0.13Zm6.8,10.74h0.1v-2.06h-0.1v0.19a0.609,0.609,0,0,1-.175.43,0.633,0.633,0,0,1-.435.19h-4.96l5.82-5.45v-0.1l-0.16.02a8.733,8.733,0,0,1-1.09.07h-5.19a0.58,0.58,0,0,1-.435-0.18,0.605,0.605,0,0,1-.175-0.43v-0.19h-0.1v2.06h0.1v-0.19a0.613,0.613,0,0,1,.6-0.61H307l-5.82,5.45v0.09l0.18-.02a7.718,7.718,0,0,1,1.1-.07h5.16a0.582,0.582,0,0,1,.425.19,0.593,0.593,0,0,1,.175.43v0.18Zm-7.04,4.64a4.034,4.034,0,0,0,.2,1.31,3.533,3.533,0,0,0,.475.97,3.35,3.35,0,0,0,.61.62h1.65a0.38,0.38,0,0,1,.335.12,0.543,0.543,0,0,1,.115.38v0.15h0.1v-1.96h-0.1v0.16a0.55,0.55,0,0,1-.115.37,0.42,0.42,0,0,1-.335.14h-1.77a3.339,3.339,0,0,1-.87-2.26,2.605,2.605,0,0,1,.925-2.06,4.136,4.136,0,0,1,4.835,0,2.573,2.573,0,0,1,.92,2.06,2.8,2.8,0,0,1-.465,1.65,2.263,2.263,0,0,1-1.325.89v0.09l1.41-.2a4.373,4.373,0,0,0,.68-2.43,3.492,3.492,0,0,0-1-2.6,4,4,0,0,0-5.265,0,3.531,3.531,0,0,0-1.01,2.6h0Z" transform="translate(-291.719 -7199.44)" fill="#fff" stroke="#fff" stroke-width="0"></path>
</svg>